<?xml version="1.0" standalone="no"?>
<!DOCTYPE svg PUBLIC "-//W3C//DTD SVG 1.1//EN" "http://www.w3.org/Graphics/SVG/1.1/DTD/svg11.dtd" >
<svg xmlns="http://www.w3.org/2000/svg" xmlns:xlink="http://www.w3.org/1999/xlink" version="1.1">
<metadata></metadata>
<defs>
<font id="ralewayitalic" horiz-adv-x="598" >
<font-face units-per-em="1000" ascent="800" descent="-200" />
<missing-glyph horiz-adv-x="249" />
<glyph unicode="ff" horiz-adv-x="562" d="M130 467h-68l11 54h69l1 6q8 33 24 64.5t40 56t55 39t70 14.5q34 0 59.5 -8t42.5 -18q26 29 60 47t79 18q22 0 37 -4t26 -9.5t18 -11t12 -8.5l-30 -49q-8 7 -21 14.5t-42 7.5q-30 0 -53.5 -13t-41 -33t-29 -46t-16.5 -51l-3 -16h155l-11 -54h-156l-99 -467h-68l99 467 h-152l-99 -467h-68zM362 521q5 28 15 55t24 46q-13 12 -33.5 16t-36.5 4q-27 0 -47.5 -10t-35 -26.5t-24 -37t-13.5 -40.5l-1 -7h152z" />
<glyph unicode="fi" horiz-adv-x="484" d="M130 467h-68l11 54h69l2 14q5 36 23 72.5t47 66t67 48t84 18.5q52 0 86 -17t49 -30l-41 -49q-14 15 -41 25.5t-62 10.5q-30 0 -54 -13t-42 -33t-30 -46t-17 -51l-3 -16h248l-111 -521h-68l99 467h-180l-99 -467h-68z" />
<glyph unicode="fl" horiz-adv-x="559" d="M403 -6q-40 0 -60 21t-20 52q0 8 1 15.5t4 20.5l100 468q2 8 3 15.5t1 15.5q0 31 -18.5 54.5t-64.5 23.5q-28 0 -50.5 -11.5t-39.5 -31.5t-29 -46.5t-18 -56.5l-2 -13h102l-11 -54h-103l-99 -467h-68l99 467h-68l11 54h69l4 19q9 44 28 80.5t46 63t62.5 41.5t78.5 15 q72 0 107 -32t35 -85q0 -20 -4 -39l-99 -467q-2 -10 -2 -16q0 -17 9.5 -31.5t31.5 -14.5q17 0 35 4.5l26 6.5l-2 -56q-1 -1 -9.5 -3.5t-22 -5.5t-30.5 -5t-33 -2z" />
<glyph unicode="ffi" horiz-adv-x="704" d="M130 467h-68l11 54h69l1 6q7 31 23 62t40 56t55.5 40.5t70.5 15.5q34 0 59.5 -8t42.5 -18q28 29 65.5 47t85.5 18q24 0 45 -5t38.5 -12t30.5 -15.5t21 -14.5l-41 -49q-12 14 -40 25t-60 11t-56.5 -13t-42.5 -33t-30 -46t-17 -51l-3 -16h249l-111 -521h-68l99 467h-181 l-99 -467h-68l99 467h-152l-99 -467h-68zM362 521q5 26 15 54t24 47q-13 12 -33.5 16t-36.5 4q-27 0 -48 -10.5t-35.5 -27t-23.5 -37t-13 -39.5l-1 -7h152z" />
<glyph unicode="ffl" horiz-adv-x="783" d="M629 -6q-42 0 -62 20.5t-20 52.5q0 9 1 17.5t4 22.5l99 464q2 8 3 15.5t1 15.5q0 32 -18 55t-62 23q-30 0 -53 -12.5t-40 -33.5t-28.5 -48t-17.5 -56l-2 -9h102l-12 -54h-102l-99 -467h-68l99 467h-156l-99 -467h-68l99 467h-68l11 54h69l1 6q8 34 25.5 65.5t42.5 55.5 t56.5 38.5t69.5 14.5q35 0 57 -8t39 -18q29 31 66.5 48t85.5 17q72 0 107 -32.5t35 -84.5q0 -16 -5 -39l-99 -467q-2 -10 -2 -17q0 -17 9.5 -31t32.5 -14q8 0 18 1.5t19 4t15.5 4t7.5 1.5l-2 -56q0 -1 -9 -3.5t-22 -5.5t-29.5 -5t-31.5 -2zM365 521q7 29 15.5 57t19.5 45 q-13 12 -30 15.5t-33 3.5q-26 0 -47.5 -10t-38 -26t-26.5 -36.5t-14 -40.5l-1 -8h155z" />
<glyph horiz-adv-x="0" />
<glyph horiz-adv-x="0" />
<glyph unicode=" "  horiz-adv-x="249" />
<glyph unicode="&#x09;" horiz-adv-x="249" />
<glyph unicode="&#xa0;" horiz-adv-x="249" />
<glyph unicode="!" horiz-adv-x="248" d="M75 228l103 489h68l-103 -489h-68zM26 0l24 112h69l-25 -112h-68z" />
<glyph unicode="&#x22;" horiz-adv-x="287" d="M112 522l41 194h60l-41 -194h-60zM205 522l42 194h59l-41 -194h-60z" />
<glyph unicode="#" horiz-adv-x="652" d="M648 457h-124l-86 -196h127l-11 -54h-140l-91 -207h-58l93 207h-177l-91 -207h-58l93 207h-107l11 54h121l85 196h-124l12 51h136l89 202h57l-90 -202h177l88 202h58l-90 -202h111zM381 261l87 196h-176l-86 -196h175z" />
<glyph unicode="$" horiz-adv-x="594" d="M546 577q-20 32 -60.5 53t-97.5 23l-56 -267q45 -10 82.5 -22.5t64 -31.5t41 -45.5t14.5 -63.5q0 -56 -21.5 -98.5t-59.5 -71t-89.5 -43.5t-110.5 -16l-21 -97h-36l21 98q-140 9 -222 102l47 57q24 -37 74 -64.5t117 -32.5l57 267q-45 12 -80 25t-59 30t-36 40.5 t-12 55.5q0 53 20.5 96t56.5 73.5t84.5 48.5t104.5 21l22 101h36l-21 -100q62 -2 107.5 -23.5t77.5 -58.5zM457 202q0 46 -36 70.5t-104 44.5l-56 -261q91 0 143.5 37.5t52.5 108.5zM179 497q0 -43 31 -65t94 -39l55 259q-95 -5 -137.5 -48t-42.5 -107z" />
<glyph unicode="%" horiz-adv-x="688" d="M211 433q-26 0 -47 9t-36 25t-23.5 37.5t-8.5 46.5q0 34 15 64.5t39.5 54t56.5 37t66 13.5q26 0 47 -9t36 -25t23.5 -38t8.5 -47q0 -34 -15 -64.5t-40 -53.5t-56.5 -36.5t-65.5 -13.5zM220 472q22 0 42.5 10.5t37 28t26.5 39.5t10 46q0 35 -20 59.5t-52 24.5 q-22 0 -42.5 -10.5t-37 -27.5t-26.5 -39t-10 -46q0 -35 20 -60t52 -25zM439 -10q-26 0 -47 9t-36.5 25t-24 38t-8.5 47q0 34 15 64.5t40 53.5t57 36.5t65 13.5q26 0 47 -9t36 -25t23.5 -37.5t8.5 -46.5q0 -34 -15 -64.5t-39.5 -54t-56 -37t-65.5 -13.5zM447 30q22 0 43 10 t37.5 27.5t26.5 39.5t10 46q0 35 -20.5 60t-52.5 25q-22 0 -43 -10.5t-37.5 -28t-26.5 -39.5t-10 -46q0 -35 20.5 -59.5t52.5 -24.5zM7 27l669 687l28 -30l-669 -688z" />
<glyph unicode="&#x26;" horiz-adv-x="671" d="M408 104q-49 -54 -106 -84t-117 -30q-37 0 -67.5 12.5t-52.5 34t-34.5 52t-12.5 66.5q0 40 14.5 74.5t39.5 64t59.5 55.5t75.5 51q-30 46 -43 78.5t-13 61.5q0 37 17 69.5t45.5 57t66 38.5t78.5 14q54 0 96 -28t63 -77l-47 -42q-16 42 -48.5 68t-74.5 26q-26 0 -50 -9.5 t-42 -25.5t-29 -37t-11 -44t13 -53.5t48 -81.5l144 -206q26 44 44.5 96t29.5 111h160l-12 -55h-99q-16 -57 -38.5 -107.5t-51.5 -92.5l113 -161h-86zM199 46q48 0 93.5 27.5t85.5 75.5l-142 207q-70 -44 -110.5 -89.5t-40.5 -103.5q0 -55 32.5 -86t81.5 -31z" />
<glyph unicode="'" horiz-adv-x="193" d="M112 521l41 195h60l-41 -195h-60z" />
<glyph unicode="(" horiz-adv-x="263" d="M44 260q0 66 18 126.5t49 119t72.5 116t88.5 117.5l46 -25q-30 -35 -66 -86.5t-68 -111t-53.5 -124t-21.5 -125.5q0 -62 14 -137t40 -140l-56 -27q-29 69 -46 147t-17 150z" />
<glyph unicode=")" horiz-adv-x="263" d="M239 432q0 -62 -17 -121.5t-47 -117t-71.5 -115t-90.5 -115.5l-45 27q45 54 83 108.5t65 108.5t42 108.5t15 108.5q0 39 -4.5 80.5t-12 80.5t-17 72.5t-19.5 56.5l58 25q26 -72 43.5 -151.5t17.5 -155.5z" />
<glyph unicode="*" horiz-adv-x="313" d="M135 546l54 62l-60 22l18 36l61 -26l13 73h41l-18 -73l73 26l2 -36l-70 -22l29 -62l-36 -22l-26 65l-55 -65z" />
<glyph unicode="+" horiz-adv-x="414" d="M372 383v-56h-124v-135h-63v135h-124v56h124v135h63v-135h124z" />
<glyph unicode="," horiz-adv-x="222" d="M4 -81l35 84h-23l20 95h65l-20 -95l-42 -84h-35z" />
<glyph unicode="-" horiz-adv-x="405" d="M51 241l13 63h278l-13 -63h-278z" />
<glyph unicode="." horiz-adv-x="188" d="M2 0l21 98h58l-21 -98h-58z" />
<glyph unicode="/" horiz-adv-x="599" d="M651 710l-600 -710h-77l601 710h76z" />
<glyph unicode="0" horiz-adv-x="592" d="M230 -10q-43 0 -77 17t-58 48t-36.5 73.5t-12.5 92.5q0 78 26 146.5t69 119.5t99.5 80.5t118.5 29.5q42 0 76 -17.5t58 -48t37 -73t13 -93.5q0 -78 -26 -146.5t-69.5 -119t-100 -80t-117.5 -29.5zM243 54q46 0 88 23.5t73.5 64.5t50 96.5t18.5 119.5q0 78 -33.5 126.5 t-93.5 48.5q-47 0 -89 -24t-73.5 -65t-50 -97t-18.5 -119q0 -78 33.5 -126t94.5 -48z" />
<glyph unicode="1" horiz-adv-x="410" d="M16 62h135l91 428q-11 -12 -32 -26t-46 -26t-50.5 -20t-44.5 -8l14 66q22 0 51 13t55.5 30t46.5 32t23 20h69l-108 -509h121l-13 -62h-325z" />
<glyph unicode="2" horiz-adv-x="503" d="M-17 0q7 34 19 69.5t35 69.5t60.5 65.5t96.5 57.5q58 25 97.5 47t64.5 43.5t36 44t11 49.5q0 29 -21.5 51.5t-75.5 22.5q-30 0 -58.5 -10t-52.5 -23.5t-42 -28t-28 -23.5l-30 51q7 6 27 22t49.5 32t67.5 28.5t82 12.5q38 0 67.5 -10.5t49 -28.5t29.5 -41.5t10 -50.5 q0 -43 -18 -75t-47.5 -56.5t-66.5 -43.5t-74 -36q-47 -21 -80 -41t-55.5 -41t-36 -44t-21.5 -51h328l-13 -62h-410v0z" />
<glyph unicode="3" horiz-adv-x="510" d="M150 -147q-72 0 -120 30.5t-64 84.5l55 43q11 -44 46 -70t96 -26q84 0 134.5 46t50.5 126q0 54 -34.5 86t-102.5 32h-24l12 58h26q42 0 75.5 11.5t56.5 32t35.5 48.5t12.5 61q0 48 -31 73t-82 25q-54 0 -99.5 -25.5t-77.5 -70.5l-34 42q17 26 42.5 47.5t55.5 36.5 t64 23.5t69 8.5q77 0 121.5 -40.5t44.5 -106.5q0 -35 -12.5 -67.5t-34 -58.5t-51.5 -44t-65 -23q50 -9 77 -47t27 -94q0 -53 -20.5 -97.5t-57 -76.5t-85.5 -50t-106 -18z" />
<glyph unicode="4" horiz-adv-x="527" d="M287 51h-315l13 60l427 460h54l-98 -458h84l-13 -62h-84l-38 -178h-68zM307 113l75 351l-324 -351h249z" />
<glyph unicode="5" horiz-adv-x="526" d="M157 -149q-72 0 -122 37t-66 99l52 34q16 -49 55.5 -79t93.5 -30q40 0 77.5 15.5t66 43.5t45.5 65t17 81q0 60 -35 97t-92 37q-44 0 -87.5 -20.5t-75.5 -59.5h-63q4 9 17 42t31 77.5t37.5 94t36 91t27.5 68.5t12 27h326l-14 -63h-275l-100 -255q30 28 68 43.5t80 15.5 q40 0 72.5 -13.5t56 -37.5t36.5 -57.5t13 -73.5q0 -61 -24.5 -112t-65 -88t-93 -58t-107.5 -21z" />
<glyph unicode="6" horiz-adv-x="588" d="M238 -10q-89 0 -139.5 59.5t-50.5 162.5q0 99 25.5 190t71.5 160.5t111 111t143 41.5q66 0 112 -35t61 -97l-52 -40q-10 51 -46 81.5t-89 30.5q-43 0 -84 -22.5t-75 -63t-59 -97.5t-36 -127q34 60 92.5 94.5t124.5 34.5q42 0 76.5 -15t58.5 -41.5t37.5 -62.5t13.5 -78 q0 -58 -25 -110t-66 -91.5t-94.5 -62.5t-110.5 -23zM251 50q40 0 79 17.5t69.5 47.5t49 69t18.5 82q0 32 -10 59.5t-28 48t-43.5 32.5t-56.5 12q-41 0 -79.5 -17.5t-69 -47.5t-49 -69t-18.5 -82q0 -32 10 -59.5t28.5 -48t44 -32.5t55.5 -12z" />
<glyph unicode="7" horiz-adv-x="514" d="M436 520h-360l13 63h469l-492 -710h-77z" />
<glyph unicode="8" horiz-adv-x="570" d="M217 -8q-44 0 -80 13.5t-61 37t-38.5 55.5t-13.5 69q0 42 16.5 76.5t42 61.5t56.5 45.5t61 29.5q-35 17 -58 49t-23 75q0 49 24 87t60.5 64.5t81.5 40.5t87 14q34 0 66 -10t57 -29t40 -47.5t15 -64.5q0 -33 -12.5 -60.5t-33.5 -50t-47.5 -40t-54.5 -28.5q43 -17 71.5 -57 t28.5 -94q0 -53 -24.5 -96.5t-64.5 -74.5t-91 -48.5t-105 -17.5zM233 53q34 0 69.5 12.5t64.5 35.5t47.5 55t18.5 71q0 29 -12 52t-31.5 39t-44.5 24.5t-51 8.5q-34 0 -69.5 -12.5t-64 -35.5t-47 -55t-18.5 -71q0 -29 11.5 -52t31 -39t44.5 -24.5t51 -8.5zM307 405 q27 0 57.5 9.5t56 28t42 45t16.5 60.5q0 24 -9.5 42.5t-26 31t-38.5 19.5t-47 7q-31 0 -61.5 -10t-55 -28.5t-39.5 -44.5t-15 -58q0 -24 10.5 -43t27.5 -32t38.5 -20t43.5 -7z" />
<glyph unicode="9" horiz-adv-x="571" d="M173 -155q-66 0 -112 35t-61 98l52 39q9 -51 45 -81t90 -30q43 0 84.5 22.5t76 63t59 97.5t33.5 127q-34 -60 -92.5 -95t-124.5 -35q-42 0 -76 15t-58.5 41.5t-38 62.5t-13.5 78q0 58 25 110t66 91.5t95 62.5t111 23q88 0 139 -59t51 -162q0 -99 -25.5 -190.5t-72 -161 t-111 -111t-142.5 -41.5zM242 142q41 0 80 17.5t69.5 47.5t49 69.5t18.5 82.5q0 31 -10 59t-28.5 48.5t-44 32.5t-56.5 12q-40 0 -79 -17.5t-69.5 -47.5t-49.5 -69.5t-19 -82.5q0 -32 10.5 -59.5t29 -48t44 -32.5t55.5 -12z" />
<glyph unicode=":" horiz-adv-x="185" d="M88 420l21 98h58l-21 -98h-58zM-1 0l22 98h57l-21 -98h-58z" />
<glyph unicode=";" horiz-adv-x="190" d="M90 420l20 98h58l-21 -98h-57zM-10 -81l34 84h-23l20 95h65l-20 -95l-42 -84h-34z" />
<glyph unicode="&#x3c;" horiz-adv-x="545" d="M30 276l419 252v-73l-320 -196l320 -195v-75l-419 250v37z" />
<glyph unicode="=" horiz-adv-x="471" d="M79 194v49h301v-49h-301zM79 309v49h301v-49h-301z" />
<glyph unicode="&#x3e;" horiz-adv-x="545" d="M496 239l-419 -250v75l320 195l-320 196v73l419 -252v-37z" />
<glyph unicode="?" horiz-adv-x="458" d="M124 202q14 66 41.5 105t74.5 65q24 14 54 28t55.5 34.5t43 50t17.5 74.5q0 51 -30.5 77t-72.5 26q-25 0 -49.5 -8t-47 -21.5t-41.5 -32.5t-34 -40l-40 30q19 31 45.5 55t56 40.5t61 25t62.5 8.5t58.5 -9.5t48.5 -28t33 -47t12 -66.5q0 -50 -14 -84t-38 -58t-55 -41.5 t-64 -34.5q-19 -10 -37 -20.5t-33.5 -27t-28 -40.5t-20.5 -60h-58zM83 0l23 107h57l-22 -107h-58z" />
<glyph unicode="@" horiz-adv-x="803" d="M560 21q32 0 59 28t46.5 70t30 91t10.5 91q0 53 -17 101.5t-49.5 85.5t-80 59t-108.5 22q-74 0 -144 -32t-125 -87.5t-88.5 -129.5t-33.5 -158q0 -59 17.5 -109t49.5 -86.5t78.5 -57.5t103.5 -21q40 0 76.5 10t75.5 28l5 -32q-42 -20 -84.5 -30t-82.5 -10 q-60 0 -110.5 22.5t-87 63t-56.5 96.5t-20 123q0 63 18 120.5t48.5 107t72.5 89.5t90.5 68t100.5 43.5t104 15.5q66 0 118 -23.5t88.5 -64t56 -93.5t19.5 -111q0 -43 -11 -99.5t-34.5 -107t-60 -85.5t-87.5 -35q-29 0 -46 14.5t-17 49.5v13t2 15q-33 -32 -77 -52.5 t-89 -20.5q-35 0 -63.5 14t-48.5 38.5t-30.5 57t-10.5 70.5q0 53 20 102.5t53.5 87t77 60t90.5 22.5q51 0 85 -25.5t49 -67.5l18 88h45l-75 -351q-3 -14 -4 -23.5t-1 -15.5q0 -39 34 -39zM341 44q24 0 48.5 9t46.5 24.5t38.5 35.5t25.5 43l29 154q-15 53 -47.5 78t-74.5 25 q-35 0 -69 -17.5t-61 -47t-44 -69t-17 -84.5q0 -33 9.5 -60.5t26.5 -48t39.5 -31.5t49.5 -11z" />
<glyph unicode="A" horiz-adv-x="651" d="M386 710h60l128 -710h-74l-39 222h-299l-132 -222h-75zM457 277l-58 351l-211 -351h269z" />
<glyph unicode="B" horiz-adv-x="641" d="M175 710h326q30 0 52.5 -12.5t37.5 -32.5t22.5 -46t7.5 -54q0 -32 -10 -62.5t-28 -57t-43.5 -47.5t-55.5 -34q45 -15 68.5 -54t23.5 -90q0 -48 -20 -88t-52.5 -69.5t-74.5 -46t-87 -16.5h-318zM355 61q29 0 56.5 13.5t48.5 36t34 51t13 59.5q0 22 -6 42t-17.5 35 t-27.5 23.5t-37 8.5h-256l-57 -269h249zM405 387q28 0 54 13.5t46 35.5t32 50.5t12 59.5q0 43 -22 73t-61 30h-235l-56 -262h230z" />
<glyph unicode="C" horiz-adv-x="656" d="M294 -6q-59 0 -105 25.5t-77.5 67.5t-48 96t-16.5 111q0 73 30.5 147.5t84.5 135t128 99t162 38.5q91 0 145.5 -43t71.5 -112l-63 -34q-9 35 -26.5 59t-40.5 39t-50 21.5t-54 6.5q-70 0 -128.5 -32.5t-100.5 -84t-65.5 -114.5t-23.5 -123q0 -49 13.5 -92.5t38.5 -76.5 t61 -52t81 -19q28 0 59.5 7.5t62.5 24t60 41t52 59.5l52 -30q-25 -40 -60.5 -70.5t-76.5 -51.5t-84 -32t-82 -11z" />
<glyph unicode="D" horiz-adv-x="690" d="M175 710h230q66 0 115 -21t81 -58t47.5 -86.5t15.5 -106.5q0 -94 -31 -174.5t-86 -139t-130 -91.5t-163 -33h-230zM267 62q75 0 135.5 30t102.5 80.5t64.5 116.5t22.5 138q0 48 -12.5 89t-38 70t-63 45.5t-87.5 16.5h-160l-125 -586h161z" />
<glyph unicode="E" horiz-adv-x="582" d="M175 710h445l-13 -62h-376l-55 -256h328l-12 -59h-328l-58 -271h385l-13 -62h-454z" />
<glyph unicode="F" horiz-adv-x="572" d="M175 710h442l-13 -62h-373l-55 -261h315l-13 -58h-315l-70 -329h-69z" />
<glyph unicode="G" horiz-adv-x="687" d="M532 103q-115 -108 -237 -108q-58 0 -104 24.5t-78 66t-49 95t-17 111.5q0 80 33 156t88.5 135.5t127 95.5t149.5 36q49 0 87 -11.5t66 -32t45.5 -49t26.5 -62.5l-62 -36q-18 66 -64.5 97t-113.5 31q-64 0 -121 -31.5t-99.5 -82.5t-67.5 -114.5t-25 -127.5q0 -49 14 -92 t39.5 -75.5t61.5 -51.5t81 -19q57 0 115 28.5t119 89.5l26 119h-148l11 54h208l-74 -349h-60z" />
<glyph unicode="H" horiz-adv-x="709" d="M175 710h69l-67 -316h395l67 316h70l-151 -710h-70l71 332h-395l-71 -332h-69z" />
<glyph unicode="I" horiz-adv-x="245" d="M175 709h69l-151 -709h-69z" />
<glyph unicode="J" horiz-adv-x="468" d="M100 -11q-85 0 -137 44l31 56q17 -15 47.5 -26t71.5 -11q51 0 85.5 19.5t58.5 57.5t40.5 93.5t31.5 126.5l77 360h70l-77 -360q-17 -81 -38 -147.5t-54.5 -113.5t-83 -73t-123.5 -26z" />
<glyph unicode="K" horiz-adv-x="615" d="M175 709h69l-88 -412l455 413h78l-342 -312l205 -398h-78l-179 357l-155 -139l-47 -218h-69z" />
<glyph unicode="L" horiz-adv-x="557" d="M175 710h69l-138 -648h388l-13 -62h-457z" />
<glyph unicode="M" horiz-adv-x="840" d="M175 710h72l157 -486l364 486h72l-151 -710h-70l124 583l-338 -451h-41l-146 451l-125 -583h-69z" />
<glyph unicode="N" horiz-adv-x="740" d="M175 710h54l316 -591l125 590h69l-151 -709h-59l-313 580l-123 -580h-69z" />
<glyph unicode="O" horiz-adv-x="722" d="M296 -5q-60 0 -106.5 24.5t-78.5 65t-48.5 93.5t-16.5 110q0 81 34 158t90.5 137t129 96t150.5 36q60 0 106 -25t77.5 -66t48 -94t16.5 -110q0 -81 -33.5 -157.5t-89.5 -136t-128.5 -95.5t-150.5 -36zM310 58q66 0 123.5 32t101 83.5t68.5 115t25 126.5q0 47 -13 90 t-37.5 75.5t-60.5 51.5t-81 19q-66 0 -124 -32t-101.5 -83t-68.5 -114.5t-25 -127.5q0 -47 12.5 -90t37.5 -75.5t60.5 -51.5t82.5 -19z" />
<glyph unicode="P" horiz-adv-x="599" d="M175 710h280q37 0 66.5 -15.5t49.5 -41.5t31 -59.5t11 -68.5q0 -48 -20 -95t-54 -84.5t-79 -60.5t-95 -23h-216l-56 -262h-69zM374 324q34 0 65 17t53.5 44.5t36 62.5t13.5 71q0 27 -7.5 50.5t-21.5 41t-33.5 27.5t-42.5 10h-206l-69 -324h212z" />
<glyph unicode="Q" horiz-adv-x="721" d="M495 59q-46 -30 -96 -47t-103 -17q-60 0 -106.5 24.5t-78.5 65t-48.5 93.5t-16.5 110q0 81 34 158t90.5 137t129.5 96t151 36q60 0 106 -25t77.5 -66t47.5 -94t16 -110q0 -46 -11.5 -91t-32 -86.5t-49 -79t-63.5 -67.5l59 -96h-70zM310 58q42 0 81 13.5t74 37.5l-65 109 h69l42 -70q54 53 85.5 124t31.5 143q0 47 -13 90t-37.5 75.5t-60.5 52t-81 19.5q-66 0 -124 -32t-101.5 -83t-68.5 -115t-25 -128q0 -47 12.5 -90t37.5 -75.5t60.5 -51.5t82.5 -19z" />
<glyph unicode="R" horiz-adv-x="628" d="M24 0l151 710h285q37 0 67 -15.5t50 -41.5t31 -59.5t11 -68.5q0 -43 -16 -84.5t-43 -75.5t-63.5 -58.5t-77.5 -32.5l107 -274h-79l-102 262h-196l-56 -262h-69zM381 324q34 0 64.5 17t53 44.5t35.5 62t13 69.5q0 27 -7.5 50.5t-21 41.5t-33 28.5t-42.5 10.5h-212 l-69 -324h219z" />
<glyph unicode="S" horiz-adv-x="585" d="M241 -6q-159 0 -250 103l47 57q27 -41 83.5 -69.5t134.5 -28.5q91 0 144 37.5t53 108.5q0 26 -11.5 44.5t-34 33t-54.5 25t-74 21.5q-43 11 -76.5 23.5t-56.5 29.5t-35 40.5t-12 55.5q0 56 22.5 100.5t61.5 75.5t91.5 47.5t113.5 16.5q67 0 116.5 -21.5t82.5 -60.5 l-45 -56q-20 34 -64 55t-104 21q-52 0 -89.5 -12t-62 -33t-36 -49.5t-11.5 -61.5q0 -24 10 -41t30 -29.5t50 -22t70 -19.5q44 -11 80 -23.5t61.5 -31t39.5 -44.5t14 -63q0 -57 -22.5 -100t-61.5 -71.5t-91.5 -43t-113.5 -14.5z" />
<glyph unicode="T" horiz-adv-x="582" d="M328 648h-238l13 62h547l-13 -62h-239l-138 -648h-69z" />
<glyph unicode="U" horiz-adv-x="724" d="M298 -5q-62 0 -105 18.5t-69 50.5t-37.5 74.5t-11.5 91.5q0 57 14 122l76 358h69l-76 -358q-6 -29 -9.5 -56.5t-3.5 -53.5q0 -39 8.5 -72.5t28 -58t51 -39t77.5 -14.5q63 0 110.5 25.5t81 67t54.5 94.5t32 107l76 358h69l-75 -358q-15 -72 -44 -137t-73.5 -113.5 t-104.5 -77.5t-138 -29z" />
<glyph unicode="V" horiz-adv-x="648" d="M97 710h73l106 -623l369 623h73l-430 -710h-62z" />
<glyph unicode="W" horiz-adv-x="997" d="M95 710h75l108 -629l195 321l-53 303h66l40 -252l149 252h66l-182 -303l59 -321l374 629h77l-437 -710h-60l-66 351l-216 -351h-61z" />
<glyph unicode="X" horiz-adv-x="604" d="M274 350l-182 360h79l153 -310l284 310h77l-335 -360l176 -350h-77l-147 300l-274 -300h-79z" />
<glyph unicode="Y" horiz-adv-x="607" d="M257 266l-166 444h77l137 -382l300 382h76l-356 -446l-56 -264h-69z" />
<glyph unicode="Z" horiz-adv-x="596" d="M-24 55l580 593h-446l13 62h528l-12 -55l-574 -593h447l-13 -62h-535z" />
<glyph unicode="[" horiz-adv-x="251" d="M14 -40l166 780h116l-12 -57h-53l-142 -666h54l-12 -57h-117z" />
<glyph unicode="\" horiz-adv-x="534" d="M184 710l262 -710h-76l-263 710h77z" />
<glyph unicode="]" horiz-adv-x="250" d="M-25 -40l12 57h53l142 666h-53l12 57h116l-165 -780h-117z" />
<glyph unicode="^" horiz-adv-x="541" d="M52 303l198 407h58l197 -407h-60l-166 343l-169 -343h-58z" />
<glyph unicode="_" horiz-adv-x="492" d="M-14 -62l13 62h362l-13 -62h-362z" />
<glyph unicode="`" horiz-adv-x="213" d="M67 730h70l38 -93l-49 -17z" />
<glyph unicode="a" d="M210 -10q-44 0 -78 17.5t-58 47.5t-36.5 69.5t-12.5 83.5q0 62 24 120t64 103t92 72t109 27q63 0 104 -34.5t58 -83.5l24 109h68l-92 -432q-2 -8 -2 -13q0 -16 19 -16l-13 -60q-8 -1 -15 -2t-12 -1q-23 2 -34.5 12.5t-11.5 27.5q0 8 2.5 21t8.5 43q-40 -51 -96.5 -81 t-111.5 -30zM238 50q25 0 54 10t55.5 27.5t48 41t31.5 50.5l33 161q-3 27 -16 50.5t-32 41t-43 28t-50 10.5q-45 0 -85.5 -22.5t-71 -58.5t-48.5 -81t-18 -90q0 -35 10 -65.5t29 -53t45 -36t58 -13.5z" />
<glyph unicode="b" horiz-adv-x="592" d="M254 -10q-63 0 -104.5 31.5t-58.5 79.5l-22 -101h-60l155 730h68l-68 -318q45 53 98 85.5t113 32.5q44 0 77 -18t55 -47.5t33 -68t11 -79.5q0 -65 -25.5 -124.5t-67 -104.5t-95 -71.5t-109.5 -26.5zM252 50q43 0 84 21.5t73 57t51 81.5t19 95q0 32 -9 62t-26 53 t-42.5 36.5t-58.5 13.5q-28 0 -55 -10.5t-51.5 -27.5t-46.5 -40.5t-41 -48.5l-36 -173q1 -26 13 -48t30.5 -38t43.5 -25t52 -9z" />
<glyph unicode="c" horiz-adv-x="526" d="M223 -10q-46 0 -83 17.5t-62.5 47.5t-39 70t-13.5 85q0 63 25 121t67.5 102.5t99 70.5t120.5 26q71 0 116.5 -33.5t59.5 -90.5l-70 -21q-12 40 -44 62.5t-77 22.5q-44 0 -84.5 -20t-72.5 -54t-51 -80t-19 -97q0 -36 10 -66.5t28 -53.5t43.5 -36t56.5 -13q24 0 48.5 7 t46.5 19.5t39.5 28.5t26.5 34l63 -20q-16 -28 -41 -51.5t-56 -41t-66 -27t-71 -9.5z" />
<glyph unicode="d" d="M211 -10q-44 0 -78.5 17.5t-58.5 47.5t-36.5 69.5t-12.5 83.5q0 62 24 120t64 103t92.5 72t109.5 27q62 0 103 -34.5t58 -83.5l68 318h68l-136 -641q-2 -10 -2 -12q0 -17 19 -17l-13 -60q-8 -1 -13.5 -1.5t-10.5 -0.5q-24 0 -36.5 11.5t-12.5 28.5q0 7 2 19.5t9 43.5 q-40 -51 -96.5 -81t-110.5 -30zM239 50q24 0 52.5 10t55.5 27.5t48.5 41t31.5 50.5l33 161q-3 27 -16 50.5t-32 41.5t-43 28t-49 10q-45 0 -86 -22.5t-71.5 -58t-48.5 -80.5t-18 -90q0 -35 10 -65.5t29 -53.5t45 -36.5t59 -13.5z" />
<glyph unicode="e" horiz-adv-x="534" d="M226 -10q-48 0 -85.5 17t-63 47t-39 70t-13.5 86q0 62 24 119.5t66 102t99.5 71.5t124.5 27q34 0 64.5 -9t53 -26.5t35.5 -44t13 -60.5q0 -77 -68 -116t-210 -39q-28 0 -60.5 1t-70.5 4q-1 -8 -1.5 -15t-0.5 -14q0 -34 9 -64.5t27 -54t45 -37t63 -13.5q24 0 49 7 t47.5 19.5t41.5 30.5t32 40l56 -17q-18 -29 -44 -53.5t-57.5 -42t-66 -27t-70.5 -9.5zM332 477q-45 0 -82 -16t-66 -42t-49 -60t-30 -70q36 -2 66.5 -3.5t58.5 -1.5q59 0 100 8t66 22t36 34t11 43q0 45 -33 65.5t-78 20.5z" />
<glyph unicode="f" horiz-adv-x="322" d="M130 467h-68l11 54h69l2 14q7 48 25 86t43.5 64.5t57 40.5t65.5 14q29 0 54.5 -9t43.5 -24l-31 -49q-11 11 -29 17t-37 6q-45 0 -76.5 -37t-46.5 -107l-3 -16h135l-11 -54h-136l-144 -679h-68z" />
<glyph unicode="g" horiz-adv-x="592" d="M165 -223q-43 0 -75 8.5t-56 23.5t-40.5 37t-26.5 49l48 33q19 -50 62 -73.5t99 -23.5q36 0 70 10.5t62.5 31t49 52t29.5 73.5l22 103q-19 -25 -43 -45t-51 -34t-55 -21.5t-55 -7.5q-43 0 -76.5 17.5t-57 47t-35.5 68.5t-12 82q0 61 24 119t64.5 103t93.5 72.5t112 27.5 q64 0 103 -33.5t62 -84.5l23 109h60l-111 -523q-12 -55 -40 -96.5t-67 -69t-86 -41.5t-97 -14zM237 50q28 0 58 11t56 29.5t46 41.5t29 47l34 161q-4 28 -17 52t-31.5 41t-42.5 27t-50 10q-47 0 -88 -23t-71.5 -59.5t-48 -81t-17.5 -87.5q0 -35 10 -65.5t29 -53.5 t45.5 -36.5t58.5 -13.5z" />
<glyph unicode="h" horiz-adv-x="559" d="M164 730h68l-70 -327q42 59 101.5 93t120.5 34q64 0 91.5 -35.5t27.5 -97.5q0 -39 -11 -92l-64 -305h-68l62 291q9 43 9 76q0 101 -85 101q-27 0 -56 -11.5t-56.5 -31.5t-51 -47t-38.5 -59l-67 -319h-68z" />
<glyph unicode="i" horiz-adv-x="213" d="M119 521h68l-110 -521h-68zM164 730h68l-21 -100h-68z" />
<glyph unicode="j" horiz-adv-x="220" d="M-103 -181q-32 0 -58 9t-43 30l43 46q11 -14 28.5 -19t35.5 -5q16 0 33 7t32 19.5t26 29.5t15 37l117 548h68l-116 -544q-8 -35 -26.5 -64t-43 -50t-54 -32.5t-57.5 -11.5zM170 730h68l-22 -100h-68z" />
<glyph unicode="k" horiz-adv-x="536" d="M164 730h68l-76 -358q51 70 113 114.5t133 44.5q56 0 83 -28.5t27 -76.5q0 -65 -47.5 -117.5t-137.5 -82.5l117 -226h-74l-124 255q100 21 151.5 66t51.5 96q0 30 -17.5 44t-46.5 14q-33 0 -67.5 -15.5t-67.5 -43.5t-63.5 -67t-54.5 -87l-55 -262h-68z" />
<glyph unicode="l" horiz-adv-x="264" d="M107 -6q-37 0 -58 19t-21 54q0 6 1 13t3 15l134 635h68l-130 -612q-1 -5 -1.5 -9t-0.5 -9q0 -44 47 -44q11 0 26 3t29 8l-2 -55q-20 -8 -47.5 -13t-47.5 -5z" />
<glyph unicode="m" horiz-adv-x="878" d="M119 521h63l-26 -118q42 59 98.5 93t115.5 34q60 0 89.5 -35.5t29.5 -100.5q44 67 101.5 101.5t117.5 34.5q63 0 89.5 -34t26.5 -94q0 -43 -12 -97l-65 -305h-68l61 291q5 23 7.5 43.5t2.5 37.5q0 96 -79 96q-28 0 -55.5 -11t-52.5 -31t-46.5 -47.5t-37.5 -60.5l-67 -318 h-68l61 291q5 25 8 45.5t3 37.5q0 94 -79 94q-56 0 -108 -41t-85 -108l-67 -319h-68z" />
<glyph unicode="n" horiz-adv-x="559" d="M119 521h63l-26 -118q21 28 48.5 51.5t58 40.5t63.5 26t66 9q61 0 87 -33t26 -91q0 -23 -3.5 -47.5t-9.5 -53.5l-64 -305h-68l62 291q10 49 10 85q0 92 -78 92q-28 0 -58.5 -11t-59 -31t-52.5 -47.5t-40 -59.5l-67 -319h-68z" />
<glyph unicode="o" horiz-adv-x="573" d="M220 -10q-46 0 -82.5 17.5t-61.5 47t-38.5 69t-13.5 84.5q0 63 25.5 121t68.5 102.5t99 71.5t118 27q46 0 82 -17.5t61.5 -47t39 -69.5t13.5 -85q0 -62 -25.5 -120t-68 -102.5t-99 -71.5t-118.5 -27zM233 50q42 0 83 20.5t73 55t52 80t20 96.5q0 35 -10 66t-28.5 53.5 t-44 35.5t-56.5 13q-42 0 -82.5 -20.5t-73 -55.5t-52.5 -81t-20 -97q0 -35 10 -65.5t28.5 -53t44 -35t56.5 -12.5z" />
<glyph unicode="p" horiz-adv-x="593" d="M120 521h60l-21 -101q40 49 95 79.5t112 30.5q43 0 77.5 -18t58.5 -48t36.5 -70t12.5 -83q0 -61 -23 -119t-63 -103t-92.5 -72t-110.5 -27q-63 0 -103.5 33.5t-58.5 84.5l-68 -321h-68zM256 50q45 0 86 22.5t71.5 58t48.5 80t18 89.5q0 35 -10 66t-29 54t-45 36.5 t-59 13.5q-24 0 -52.5 -10.5t-55.5 -28t-48.5 -41t-31.5 -49.5l-34 -160q5 -28 17.5 -52t31 -41.5t42 -27.5t50.5 -10z" />
<glyph unicode="q" horiz-adv-x="592" d="M198 -10q-42 0 -74.5 17.5t-54.5 46.5t-33.5 68t-11.5 82q0 64 25.5 123t67.5 104t96 72t111 27q58 0 100 -31.5t60 -79.5l21 102h61l-136 -643q-1 -4 -1.5 -6.5t-0.5 -4.5q0 -17 19 -18l-12 -59q-5 -1 -10.5 -1.5t-10.5 -0.5q-27 0 -43.5 11.5t-16.5 36.5q0 3 0.5 6 t1.5 7l55 259q-48 -58 -102 -88t-111 -30zM232 50q28 0 55 10t52 26.5t46.5 39t39.5 47.5l35 164q-2 27 -12.5 51t-28.5 42.5t-42 29t-51 10.5q-45 0 -87 -22.5t-74 -58.5t-51 -81.5t-19 -92.5q0 -34 9.5 -64t27 -52.5t43 -35.5t57.5 -13z" />
<glyph unicode="r" horiz-adv-x="343" d="M119 521h64l-27 -125q39 57 88.5 90.5t100.5 35.5q8 0 13.5 -0.5t10.5 -1.5l-13 -59q-65 -2 -121 -38t-90 -99l-68 -324h-68z" />
<glyph unicode="s" horiz-adv-x="468" d="M172 -10q-58 0 -109 20t-83 58l40 46q67 -72 162 -72q66 0 108.5 30.5t42.5 81.5q0 18 -8 30t-24 21.5t-40 17.5t-55 16q-36 10 -62.5 19.5t-44 21.5t-26.5 28.5t-9 39.5q0 43 18.5 77t49 57.5t71 35.5t84.5 12q57 0 99 -19.5t65 -51.5l-42 -40q-21 30 -57.5 45t-78.5 15 q-28 0 -54 -7t-45.5 -21t-31 -35t-11.5 -50q0 -32 25.5 -45.5t79.5 -27.5q81 -20 123.5 -45.5t42.5 -77.5q0 -39 -17 -72t-47.5 -57t-73 -37.5t-92.5 -13.5z" />
<glyph unicode="t" horiz-adv-x="321" d="M135 -6q-38 0 -62.5 18.5t-24.5 56.5q0 11 3 25l79 373h-69l12 54h68l38 176h68l-38 -176h114l-12 -54h-113l-72 -339q-2 -11 -3.5 -17t-1.5 -11q0 -23 14 -33t34 -10q27 0 50 9.5t30 13.5l6 -55q-13 -9 -46.5 -20t-73.5 -11z" />
<glyph unicode="u" horiz-adv-x="569" d="M159 -10q-122 0 -122 134q0 20 2.5 42.5t8.5 48.5l66 306h67l-62 -294q-10 -44 -10 -78q0 -99 86 -99q28 0 57 10t56 29t51 45t42 59l70 328h68l-91 -425q-3 -12 -3 -19q0 -17 19 -17l-13 -60q-8 -1 -13.5 -1.5t-10.5 -0.5q-23 0 -35 10.5t-12 28.5q0 3 0.5 8t2 14t4 23 t7.5 36q-46 -61 -108 -94.5t-127 -33.5z" />
<glyph unicode="v" horiz-adv-x="491" d="M58 521h71l64 -458q87 112 148 229t91 229h66q-75 -263 -284 -521h-73z" />
<glyph unicode="w" horiz-adv-x="755" d="M53 521h70l84 -458q40 48 74 97.5t63 100.5l-60 260h70l38 -173q22 45 38.5 88t28.5 85h65q-19 -65 -47 -129.5t-65 -129.5l43 -199q88 112 149.5 229t92.5 229h66q-77 -263 -287 -521h-73l-40 184q-29 -47 -62.5 -93t-72.5 -91h-73z" />
<glyph unicode="x" horiz-adv-x="481" d="M194 259l-133 262h73l102 -204l4 -15l11 14l190 205h73l-244 -262l133 -259h-73l-102 203l-6 14l-10 -13l-188 -204h-74z" />
<glyph unicode="y" horiz-adv-x="489" d="M-36 -169q31 5 53.5 12t40 20t33 32t34.5 48l33 49l-107 529h71l84 -458l41 67q43 70 73 123t51.5 97.5t36 85t26.5 85.5h67q-14 -48 -29 -89.5t-37.5 -88t-56 -104t-83.5 -136.5l-81 -129q-35 -55 -63.5 -92t-56 -60t-56.5 -33.5t-65 -12.5z" />
<glyph unicode="z" horiz-adv-x="466" d="M-26 46l419 424h-321l11 51h397l-9 -46l-417 -424h327l-12 -51h-404z" />
<glyph unicode="{" horiz-adv-x="251" d="M233 683l-56 -261q-2 -12 -11.5 -30t-27.5 -32q8 -9 11 -21t3 -24v-9t-1 -8l-58 -272h52l-12 -57h-93q-6 0 -11 4t-5 15q0 7 1 11l60 281q1 5 1 16q0 15 -6.5 26t-20.5 13l11 52q10 0 18.5 6t15 14t10.5 17.5t5 15.5l57 270q4 19 13.5 24.5t14.5 5.5h93l-12 -57h-52z" />
<glyph unicode="|" horiz-adv-x="288" d="M119 -130v905h60v-905h-60z" />
<glyph unicode="}" horiz-adv-x="250" d="M129 683l11 57h93q4 0 10.5 -4t6.5 -17q0 -6 -1 -9l-58 -270q-2 -8 -2 -13q0 -14 6 -27t22 -13l-11 -52q-19 -2 -32 -18.5t-17 -36.5l-59 -281q-4 -17 -13 -23.5t-16 -6.5h-93l12 57h53l58 272q2 11 11.5 29.5t26.5 32.5q-8 10 -11 21.5t-3 22.5q0 8 2 18l56 261h-52z " />
<glyph unicode="~" horiz-adv-x="492" d="M51 241q1 5 9.5 21.5t23.5 34.5t37 32.5t51 14.5q22 0 40.5 -9t35.5 -20t34 -20t37 -9q19 0 33 7.5t23.5 16.5t14 17.5t4.5 10.5h42q0 -2 -8 -17.5t-24 -33t-39.5 -32t-54.5 -14.5q-24 0 -43 9t-36 20t-33 20t-34 9q-17 0 -30 -9t-22 -19.5t-13.5 -19.5t-4.5 -10h-43v0z " />
<glyph unicode="&#xa1;" horiz-adv-x="247" d="M197 487l-104 -489h-68l104 489h68zM245 715l-23 -112h-70l25 112h68z" />
<glyph unicode="&#xa2;" horiz-adv-x="540" d="M176 -120l24 111q-41 3 -73 23t-53.5 50.5t-33 68.5t-11.5 78q0 56 21.5 110.5t60 98.5t90.5 73.5t113 35.5l25 116h36l-25 -116q70 -2 111 -34.5t57 -88.5l-70 -21q-13 41 -42 61t-69 22l-88 -417q18 1 40.5 8t44 18t39 27t26.5 35l63 -20q-18 -32 -46 -56.5 t-59.5 -40.5t-63.5 -24t-57 -8l-24 -110h-36zM99 218q0 -30 8 -57.5t22.5 -50t35.5 -37.5t48 -19l87 412q-43 -4 -80 -28t-64 -59.5t-42 -78t-15 -82.5z" />
<glyph unicode="&#xa3;" horiz-adv-x="478" d="M68 372h88q-10 37 -20.5 71.5t-10.5 70.5q0 41 18 77.5t48 64t68.5 43.5t79.5 16q52 0 91.5 -28t59.5 -77l-48 -42q-14 42 -46 66t-71 24q-26 0 -51 -11t-44 -30.5t-30.5 -45.5t-11.5 -55q0 -35 11.5 -70t20.5 -74h170l-12 -54h-150q1 -5 1 -9v-8q0 -30 -5.5 -55.5 t-21 -53.5t-44.5 -61t-76 -77q36 9 71 9q20 0 36.5 -3t31.5 -6t30.5 -6t32.5 -3q19 0 39.5 4.5t48.5 13.5l6 -52q-55 -26 -110 -26q-21 0 -39.5 3.5t-36.5 8t-37 8.5t-41 4q-23 0 -52 -4.5t-55 -12.5l-7 50q51 44 83 77t51 61.5t26 55.5t7 58v12t-1 12h-110z" />
<glyph unicode="&#xa4;" horiz-adv-x="562" d="M175 480q45 39 112 39q33 0 61.5 -10.5t51.5 -28.5l70 71l34 -33l-72 -72q17 -23 26 -51t9 -59q0 -30 -9.5 -58.5t-26.5 -51.5l73 -72l-30 -29l-74 69q-22 -18 -50.5 -28.5t-62.5 -10.5t-62.5 10.5t-51.5 28.5l-72 -69l-29 29l71 71q-36 50 -36 111q0 64 35 111l-70 71 l33 33zM164 335q0 -27 9.5 -51t26.5 -42t39 -28.5t48 -10.5q25 0 47.5 10.5t39.5 28.5t26.5 42.5t9.5 52.5t-9.5 52.5t-26.5 42.5t-39.5 28t-47.5 10q-26 0 -48 -10.5t-39 -28.5t-26.5 -43t-9.5 -53z" />
<glyph unicode="&#xa5;" horiz-adv-x="650" d="M426 366h80l-10 -48h-107l-43 -54l-6 -27h139l-10 -48h-139l-40 -189h-70l40 189h-137l11 48h137l6 29l-19 52h-107l10 48h82l-130 344h76l136 -382l300 382h77z" />
<glyph unicode="&#xa6;" horiz-adv-x="282" d="M176 277v-407h-60v407h60zM176 775v-407h-60v407h60z" />
<glyph unicode="&#xa7;" horiz-adv-x="489" d="M378 195q14 -10 20 -28.5t6 -42.5q0 -54 -23.5 -94t-58.5 -66t-76 -39t-77 -13q-33 0 -60 8.5t-48 21.5t-36.5 29t-26.5 32l54 42q27 -35 57.5 -51.5t70.5 -16.5q26 0 53 9t49 25.5t36 41t14 54.5q0 22 -9 35.5t-23.5 21.5t-32.5 11t-36 4q-71 4 -114 36.5t-43 95.5 q0 38 15.5 68.5t32.5 47.5q-13 11 -20.5 34t-7.5 51q0 45 21 82.5t54 64t73.5 41.5t79.5 15q36 0 62 -8t44 -21.5t30 -30.5t20 -35l-58 -25q-10 33 -42 45.5t-66 12.5q-26 0 -52.5 -9t-47.5 -26t-34.5 -41.5t-13.5 -54.5q0 -44 29.5 -61.5t74.5 -18.5q30 -1 59.5 -8t52 -22 t36.5 -38.5t14 -58.5q0 -37 -16 -69.5t-36 -50.5zM140 311q0 -38 20.5 -54t49.5 -22.5t59 -8.5t50 -11q19 14 32 38.5t13 50.5q0 23 -9.5 38.5t-25 25.5t-34 14t-36.5 4q-23 0 -43.5 3.5t-34.5 10.5q-16 -14 -28.5 -37.5t-12.5 -51.5z" />
<glyph unicode="&#xa8;" horiz-adv-x="319" d="M63 633l21 94h58l-21 -94h-58zM207 633l20 94h57l-19 -94h-58z" />
<glyph unicode="&#xa9;" horiz-adv-x="845" d="M433 -7q-79 0 -146.5 27.5t-116.5 76t-76.5 114.5t-27.5 144q0 77 27.5 143t76.5 114t116.5 75.5t146.5 27.5t146.5 -27.5t117 -75.5t77.5 -114t28 -143q0 -78 -28 -144t-77.5 -114.5t-117 -76t-146.5 -27.5zM433 26q70 0 131 24t106 67t71 103t26 133q0 71 -25 131 t-70 104t-106 69t-133 25t-133 -25t-105.5 -68.5t-69.5 -104t-25 -130.5t25 -130t69.5 -104t105.5 -69t133 -25zM440 123q-45 0 -87.5 16.5t-74.5 46.5t-51.5 73t-19.5 96q0 42 14 84t42 75t70.5 54t100.5 21q66 0 117.5 -28.5t74.5 -82.5l-65 -21q-10 22 -25.5 36t-33.5 22 t-35.5 11t-32.5 3q-40 0 -69.5 -15.5t-49 -40t-29 -56t-9.5 -62.5q0 -41 15 -73.5t38 -54.5t51.5 -33.5t55.5 -11.5q18 0 38 5.5t38 15t32.5 23.5t22.5 32l65 -19q-7 -18 -23.5 -38.5t-41.5 -38t-57.5 -28.5t-70.5 -11z" />
<glyph unicode="&#xaa;" horiz-adv-x="414" d="M167 346q-42 0 -67 26t-25 64q0 28 13 52t35.5 41t53 26.5t65.5 9.5q26 0 50 -4.5t42 -13.5l6 28q3 15 3 25q0 32 -19 50t-54 18q-50 0 -117 -41l-11 37q76 46 141 46q57 0 87.5 -26t30.5 -75q0 -21 -4 -40l-31 -143q-1 -3 -1 -8q0 -13 15 -14l-11 -52q-4 -1 -12 -1 q-20 0 -34 6.5t-14 23.5q0 4 1 12t3 18q-30 -32 -68 -48.5t-78 -16.5zM192 391q19 0 39.5 5.5t38 15t30 22t15.5 26.5l11 52q-17 9 -38.5 12.5t-43.5 3.5q-48 0 -80 -22t-32 -57q0 -25 16.5 -41.5t43.5 -16.5z" />
<glyph unicode="&#xab;" horiz-adv-x="553" d="M36 276l274 178l-12 -59l-210 -136l152 -134l-13 -59l-199 173zM249 276l275 178l-13 -59l-210 -136l153 -134l-13 -59l-199 173z" />
<glyph unicode="&#xac;" horiz-adv-x="562" d="M506 364l-52 -238h-58l37 176h-361l14 62h420z" />
<glyph unicode="&#xad;" horiz-adv-x="548" d="M51 241l13 63h420l-13 -63h-420z" />
<glyph unicode="&#xae;" horiz-adv-x="845" d="M433 -7q-79 0 -146.5 27.5t-116.5 76t-76.5 114.5t-27.5 144q0 77 27.5 143t76.5 114t116.5 75.5t146.5 27.5t146.5 -27.5t117 -75.5t77.5 -114t28 -143q0 -78 -28 -144t-77.5 -114.5t-117 -76t-146.5 -27.5zM433 25q70 0 131 24t106 67t70.5 103.5t25.5 134.5 q0 70 -25 130t-69.5 104t-105.5 69t-133 25t-132.5 -25t-104.5 -69t-69 -103.5t-25 -129.5q0 -71 24.5 -131t69 -104.5t105 -69.5t132.5 -25zM281 580h191q29 0 53.5 -12.5t42.5 -33t28 -46t10 -51.5q0 -49 -28 -87.5t-74 -47.5l111 -175h-58l-107 168h-117v-168h-52v453z M471 341q42 0 63 27.5t21 68.5q0 42 -24.5 68.5t-62.5 26.5h-135v-191h138z" />
<glyph unicode="&#xaf;" horiz-adv-x="378" d="M72 662l10 47h275l-10 -47h-275z" />
<glyph unicode="&#xb0;" horiz-adv-x="259" d="M181 558q-29 0 -46.5 18t-17.5 47q0 19 8 37t21.5 32t31.5 23t39 9q29 0 46.5 -19t17.5 -48q0 -20 -8 -38t-22 -31.5t-32 -21.5t-38 -8zM190 597q18 0 35 15.5t17 36.5q0 17 -9 26t-24 9q-20 0 -36 -15t-16 -36q0 -17 9 -26.5t24 -9.5z" />
<glyph unicode="&#xb1;" horiz-adv-x="484" d="M68 61v57h322v-57h-322zM390 393v-57h-130v-140h-62v140h-130v57h130v140h62v-140h130z" />
<glyph unicode="&#xb2;" horiz-adv-x="374" d="M59 407q8 39 21.5 67.5t33 50t45.5 37.5t59 28q26 10 53.5 19t50 21.5t36.5 30.5t14 45q0 26 -20 43.5t-62 17.5q-24 0 -44 -5.5t-37 -14t-29.5 -18t-21.5 -17.5l-23 31q5 5 19 16.5t36 23t51 20t64 8.5q60 0 88.5 -27t28.5 -69q0 -32 -12 -54.5t-34 -39.5t-51.5 -29.5 t-64.5 -24.5q-34 -11 -56 -25.5t-36 -30.5t-21 -31.5t-10 -29.5h226l-9 -43h-295z" />
<glyph unicode="&#xb3;" horiz-adv-x="374" d="M204 401q-58 0 -91 25t-40 64l34 29q0 -27 26 -50t80 -23q24 0 47 6t40 16.5t27.5 25t10.5 32.5q0 31 -33.5 48t-93.5 17h-22l8 41h22q67 0 105.5 19t38.5 57q0 29 -24.5 45.5t-62.5 16.5t-69.5 -15.5t-51.5 -40.5l-23 34q23 29 66 46t87 17q58 0 92.5 -27t34.5 -69 q0 -38 -28 -64.5t-80 -37.5q37 -6 57.5 -29.5t20.5 -55.5q0 -30 -15.5 -53.5t-41 -40t-57 -25t-64.5 -8.5z" />
<glyph unicode="&#xb4;" horiz-adv-x="212" d="M74 620l-42 17l76 93h71z" />
<glyph unicode="&#xb5;" d="M128 521h68l-63 -294q-10 -43 -10 -78q0 -99 87 -99q28 0 57 10t56 29t51 45t42 59l70 328h68l-92 -433q-2 -8 -2 -11q0 -17 20 -17l-14 -60q-30 0 -50.5 8.5t-20.5 31.5q0 5 3.5 28t10.5 50q-18 -27 -43 -50t-53.5 -40.5t-59 -27.5t-59.5 -10q-45 0 -68.5 23.5 t-28.5 61.5l-57 -287h-68z" />
<glyph unicode="&#xb6;" horiz-adv-x="579" d="M64 418q0 66 23 119.5t65.5 92t102.5 59.5t135 21h231l-12 -54h-66l-157 -736h-59l66 311h-69l-66 -311h-60l67 311q-97 2 -149 51.5t-52 135.5zM124 431q0 -36 11.5 -62.5t32 -44.5t48.5 -27.5t60 -11.5l79 371q-54 0 -97 -17.5t-73 -47.5t-45.5 -71t-15.5 -89zM484 656 h-69l-80 -371h69z" />
<glyph unicode="&#xb7;" horiz-adv-x="186" d="M52 246l23 112h58l-23 -112h-58z" />
<glyph unicode="&#xb8;" horiz-adv-x="270" d="M11 -126q11 -7 32.5 -12.5t46.5 -5.5q64 0 64 43q0 16 -11.5 22t-29.5 6q-20 0 -43 -4.5t-37 -9.5l76 105l30 -13l-45 -56q9 4 19 5t18 1q29 0 45 -12.5t16 -36.5q0 -38 -29.5 -60t-85.5 -22q-27 0 -50 5.5t-40 13.5z" />
<glyph unicode="&#xb9;" horiz-adv-x="260" d="M273 451l-10 -45h-193l10 45h77l65 309q-6 -6 -18.5 -14.5t-27 -16t-29 -13t-26.5 -5.5l10 45q15 0 32.5 8t33 18t26 19t10.5 10h45l-77 -360h72z" />
<glyph unicode="&#xba;" horiz-adv-x="431" d="M223 346q-33 0 -58.5 12t-43 32t-26.5 46.5t-9 56.5q0 43 17.5 82t46.5 69t68 48t82 18q33 0 58.5 -11.5t43 -31.5t27 -47t9.5 -57q0 -42 -17 -81t-46.5 -69.5t-68.5 -48.5t-83 -18zM233 395q28 0 54.5 13t47.5 35t33.5 51t12.5 61q0 45 -25 75.5t-66 30.5 q-27 0 -53.5 -13t-47.5 -34.5t-33.5 -51t-12.5 -62.5q0 -45 24.5 -75t65.5 -30z" />
<glyph unicode="&#xbb;" horiz-adv-x="553" d="M498 239l-273 -173l12 59l209 134l-151 136l12 59l199 -178zM285 239l-274 -173l13 59l210 134l-152 136l12 59l198 -178z" />
<glyph unicode="&#xbc;" horiz-adv-x="786" d="M609 103h-217l9 42l284 254h31l-54 -252h56l-10 -44h-55l-22 -103h-44zM620 147l40 191l-210 -191h170zM67 27l669 687l28 -30l-669 -688zM263 371l-10 -45h-193l10 45h77l65 309q-6 -6 -18.5 -14.5t-27 -16t-29 -13t-26.5 -5.5l10 45q15 0 32.5 8t33 18t26 19t10.5 10 h45l-77 -360h72z" />
<glyph unicode="&#xbd;" horiz-adv-x="820" d="M426 0q7 39 20.5 67.5t32.5 50.5t44.5 38t57.5 28q25 9 51.5 18t48 21.5t35.5 30.5t14 45q0 26 -19.5 44t-59.5 18q-24 0 -43.5 -5.5t-36 -14t-29 -18.5t-21.5 -18l-21 32q4 5 18 16t35 22.5t49.5 20t62.5 8.5q58 0 86 -27t28 -69q0 -32 -11 -54t-31.5 -39t-49.5 -30 t-65 -25q-33 -11 -55 -25.5t-35.5 -30t-20 -31.5t-9.5 -29h225l-9 -44h-292zM36 27l669 687l28 -30l-669 -688zM265 371l-10 -45h-193l10 45h77l65 309q-6 -6 -18.5 -14.5t-27 -16t-29 -13t-26.5 -5.5l10 45q15 0 32.5 8t33 18t26 19t10.5 10h45l-77 -360h72z" />
<glyph unicode="&#xbe;" horiz-adv-x="797" d="M189 321q-54 0 -90.5 23t-38.5 66l34 29q0 -13 6.5 -26t19.5 -23.5t32.5 -17t45.5 -6.5q25 0 48 6t40.5 16.5t28 25t10.5 32.5q0 31 -34 48t-93 17h-22l8 41h22q67 0 105.5 19.5t38.5 57.5q0 28 -25 44.5t-61 16.5q-39 0 -70.5 -15.5t-51.5 -40.5l-23 34q23 29 65.5 46 t88.5 17q57 0 91.5 -26.5t34.5 -68.5q0 -40 -28 -66t-80 -37q37 -6 57.5 -29.5t20.5 -55.5q0 -30 -15.5 -53.5t-40.5 -40t-57.5 -25t-66.5 -8.5zM617 103h-217l9 42l284 254h31l-54 -252h56l-10 -44h-55l-22 -103h-44zM628 147l40 191l-210 -191h170zM98 27l669 687l28 -30 l-669 -688z" />
<glyph unicode="&#xbf;" horiz-adv-x="453" d="M311 304q-14 -66 -41.5 -105t-74.5 -65q-24 -14 -54 -28t-55.5 -34.5t-43 -50t-17.5 -74.5q0 -51 30.5 -77t72.5 -26q25 0 49.5 8t47 21.5t41.5 32.5t34 40l40 -30q-20 -31 -46 -55t-55.5 -40.5t-61 -25t-62.5 -8.5t-58.5 9.5t-48.5 28t-33 47t-12 66.5q0 50 14 84t38 58 t55 41.5t64 34.5q19 10 37 20.5t33.5 27t28 40.5t20.5 60h58zM352 506l-23 -107h-57l22 107h58z" />
<glyph unicode="&#xc0;" horiz-adv-x="651" d="M386 710h60l128 -710h-74l-39 222h-299l-132 -222h-75zM457 277l-58 351l-211 -351h269zM354 917h70l38 -93l-49 -17z" />
<glyph unicode="&#xc1;" horiz-adv-x="651" d="M386 710h60l128 -710h-74l-39 222h-299l-132 -222h-75zM457 277l-58 351l-211 -351h269zM431 807l-42 17l76 93h71z" />
<glyph unicode="&#xc2;" horiz-adv-x="651" d="M386 710h60l128 -710h-74l-39 222h-299l-132 -222h-75zM457 277l-58 351l-211 -351h269zM322 832l113 85h50l75 -85l-42 -21l-68 63l-94 -63z" />
<glyph unicode="&#xc3;" horiz-adv-x="651" d="M386 710h60l128 -710h-74l-39 222h-299l-132 -222h-75zM457 277l-58 351l-211 -351h269zM495 825q-21 0 -35.5 6t-26.5 13.5t-24 14t-27 6.5t-26 -7t-17.5 -15.5t-10 -16t-3.5 -9.5h-42q1 5 8 20.5t20 31.5t33 28.5t47 12.5q20 0 33.5 -6.5t25.5 -14.5t24 -14.5t30 -6.5 t30.5 7t19.5 16t10.5 16.5t3.5 9.5h42q-1 -5 -8 -20t-21 -31t-35 -28.5t-51 -12.5z" />
<glyph unicode="&#xc4;" horiz-adv-x="651" d="M386 710h60l128 -710h-74l-39 222h-299l-132 -222h-75zM457 277l-58 351l-211 -351h269zM328 820l21 94h58l-21 -94h-58zM472 820l20 94h57l-19 -94h-58z" />
<glyph unicode="&#xc5;" horiz-adv-x="651" d="M386 710h60l128 -710h-74l-39 222h-299l-132 -222h-75zM457 277l-58 351l-211 -351h269zM372 839q0 35 26 56.5t61 21.5q27 0 42.5 -14.5t15.5 -38.5q0 -34 -25 -56t-62 -22q-27 0 -42.5 14.5t-15.5 38.5zM453 890q-18 0 -33 -13t-15 -33q0 -13 8.5 -22t22.5 -9 q17 0 33 13t16 33q0 14 -9 22.5t-23 8.5z" />
<glyph unicode="&#xc6;" horiz-adv-x="923" d="M503 710h459l-14 -62h-371l-53 -255h319l-14 -62h-319l-57 -269h379l-13 -62h-448l47 222h-244l-179 -222h-76zM427 284l73 342l-281 -342h208z" />
<glyph unicode="&#xc7;" horiz-adv-x="652" d="M183 -126q11 -7 32.5 -12.5t46.5 -5.5q64 0 64 43q0 16 -11.5 22t-29.5 6q-20 0 -43 -4.5t-37 -9.5l59 83q-53 5 -94 32t-69.5 68t-43 92.5t-14.5 105.5q0 73 30.5 147.5t84.5 135t128 99t162 38.5q91 0 145.5 -43t71.5 -112l-63 -34q-9 35 -26.5 59t-40.5 39t-50 21.5 t-54 6.5q-70 0 -128.5 -32.5t-100.5 -84t-65.5 -114.5t-23.5 -123q0 -49 13.5 -92.5t38.5 -76.5t61 -52t81 -19q28 0 59.5 7.5t62.5 24t60 41t52 59.5l52 -30q-24 -38 -58 -68t-73 -51t-80.5 -32.5t-79.5 -12.5l-36 -46q9 4 19 5t18 1q29 0 45 -12.5t16 -36.5 q0 -38 -29.5 -60t-85.5 -22q-27 0 -50 5.5t-40 13.5z" />
<glyph unicode="&#xc8;" horiz-adv-x="582" d="M175 710h445l-13 -62h-376l-55 -256h328l-12 -59h-328l-58 -271h385l-13 -62h-454zM356 917h70l38 -93l-49 -17z" />
<glyph unicode="&#xc9;" horiz-adv-x="582" d="M422 807l-42 17l76 93h71zM175 710h445l-13 -62h-376l-55 -256h328l-12 -59h-328l-58 -271h385l-13 -62h-454z" />
<glyph unicode="&#xca;" horiz-adv-x="582" d="M313 832l113 85h50l75 -85l-42 -21l-68 63l-94 -63zM175 710h445l-13 -62h-376l-55 -256h328l-12 -59h-328l-58 -271h385l-13 -62h-454z" />
<glyph unicode="&#xcb;" horiz-adv-x="582" d="M320 820l21 94h58l-21 -94h-58zM464 820l20 94h57l-19 -94h-58zM175 710h445l-13 -62h-376l-55 -256h328l-12 -59h-328l-58 -271h385l-13 -62h-454z" />
<glyph unicode="&#xcc;" horiz-adv-x="245" d="M175 709h69l-151 -709h-69zM163 917h70l38 -93l-49 -17z" />
<glyph unicode="&#xcd;" horiz-adv-x="245" d="M175 709h69l-151 -709h-69zM223 807l-42 17l76 93h71z" />
<glyph unicode="&#xce;" horiz-adv-x="245" d="M175 709h69l-151 -709h-69zM115 832l113 85h50l75 -85l-42 -21l-68 63l-94 -63z" />
<glyph unicode="&#xcf;" horiz-adv-x="245" d="M175 709h69l-151 -709h-69zM130 820l21 94h58l-21 -94h-58zM274 820l20 94h57l-19 -94h-58z" />
<glyph unicode="&#xd0;" horiz-adv-x="697" d="M55 384h57l70 326h230q66 0 115 -21t81 -58t47.5 -86.5t15.5 -106.5q0 -94 -31 -174.5t-86 -139t-130 -91.5t-163 -33h-230l70 330h-58zM274 62q75 0 135.5 30t102.5 80.5t64.5 116.5t22.5 138q0 48 -12.5 89t-38 70t-63 45.5t-87.5 16.5h-160l-57 -264h161l-11 -54h-161 l-57 -268h161z" />
<glyph unicode="&#xd1;" horiz-adv-x="740" d="M175 710h54l316 -591l125 590h69l-151 -709h-59l-313 580l-123 -580h-69zM542 825q-21 0 -35.5 6t-26.5 13.5t-24 14t-27 6.5t-26 -7t-17.5 -15.5t-10 -16t-3.5 -9.5h-42q1 5 8 20.5t20 31.5t33 28.5t47 12.5q20 0 33.5 -6.5t25.5 -14.5t24 -14.5t30 -6.5t30.5 7t19.5 16 t10.5 16.5t3.5 9.5h42q-1 -5 -8 -20t-21 -31t-35 -28.5t-51 -12.5z" />
<glyph unicode="&#xd2;" horiz-adv-x="722" d="M296 -5q-60 0 -106.5 24.5t-78.5 65t-48.5 93.5t-16.5 110q0 81 34 158t90.5 137t129 96t150.5 36q60 0 106 -25t77.5 -66t48 -94t16.5 -110q0 -81 -33.5 -157.5t-89.5 -136t-128.5 -95.5t-150.5 -36zM310 58q66 0 123.5 32t101 83.5t68.5 115t25 126.5q0 47 -13 90 t-37.5 75.5t-60.5 51.5t-81 19q-66 0 -124 -32t-101.5 -83t-68.5 -114.5t-25 -127.5q0 -47 12.5 -90t37.5 -75.5t60.5 -51.5t82.5 -19zM422 917h70l38 -93l-49 -17z" />
<glyph unicode="&#xd3;" horiz-adv-x="722" d="M471 807l-42 17l76 93h71zM296 -5q-60 0 -106.5 24.5t-78.5 65t-48.5 93.5t-16.5 110q0 81 34 158t90.5 137t129 96t150.5 36q60 0 106 -25t77.5 -66t48 -94t16.5 -110q0 -81 -33.5 -157.5t-89.5 -136t-128.5 -95.5t-150.5 -36zM310 58q66 0 123.5 32t101 83.5t68.5 115 t25 126.5q0 47 -13 90t-37.5 75.5t-60.5 51.5t-81 19q-66 0 -124 -32t-101.5 -83t-68.5 -114.5t-25 -127.5q0 -47 12.5 -90t37.5 -75.5t60.5 -51.5t82.5 -19z" />
<glyph unicode="&#xd4;" horiz-adv-x="722" d="M362 832l113 85h50l75 -85l-42 -21l-68 63l-94 -63zM296 -5q-60 0 -106.5 24.5t-78.5 65t-48.5 93.5t-16.5 110q0 81 34 158t90.5 137t129 96t150.5 36q60 0 106 -25t77.5 -66t48 -94t16.5 -110q0 -81 -33.5 -157.5t-89.5 -136t-128.5 -95.5t-150.5 -36zM310 58 q66 0 123.5 32t101 83.5t68.5 115t25 126.5q0 47 -13 90t-37.5 75.5t-60.5 51.5t-81 19q-66 0 -124 -32t-101.5 -83t-68.5 -114.5t-25 -127.5q0 -47 12.5 -90t37.5 -75.5t60.5 -51.5t82.5 -19z" />
<glyph unicode="&#xd5;" horiz-adv-x="722" d="M296 -5q-60 0 -106.5 24.5t-78.5 65t-48.5 93.5t-16.5 110q0 81 34 158t90.5 137t129 96t150.5 36q60 0 106 -25t77.5 -66t48 -94t16.5 -110q0 -81 -33.5 -157.5t-89.5 -136t-128.5 -95.5t-150.5 -36zM310 58q66 0 123.5 32t101 83.5t68.5 115t25 126.5q0 47 -13 90 t-37.5 75.5t-60.5 51.5t-81 19q-66 0 -124 -32t-101.5 -83t-68.5 -114.5t-25 -127.5q0 -47 12.5 -90t37.5 -75.5t60.5 -51.5t82.5 -19zM532 825q-21 0 -35.5 6t-26.5 13.5t-24 14t-27 6.5t-26 -7t-17.5 -15.5t-10 -16t-3.5 -9.5h-42q1 5 8 20.5t20 31.5t33 28.5t47 12.5 q20 0 33.5 -6.5t25.5 -14.5t24 -14.5t30 -6.5t30.5 7t19.5 16t10.5 16.5t3.5 9.5h42q-1 -5 -8 -20t-21 -31t-35 -28.5t-51 -12.5z" />
<glyph unicode="&#xd6;" horiz-adv-x="722" d="M372 820l21 94h58l-21 -94h-58zM516 820l20 94h57l-19 -94h-58zM296 -5q-60 0 -106.5 24.5t-78.5 65t-48.5 93.5t-16.5 110q0 81 34 158t90.5 137t129 96t150.5 36q60 0 106 -25t77.5 -66t48 -94t16.5 -110q0 -81 -33.5 -157.5t-89.5 -136t-128.5 -95.5t-150.5 -36z M310 58q66 0 123.5 32t101 83.5t68.5 115t25 126.5q0 47 -13 90t-37.5 75.5t-60.5 51.5t-81 19q-66 0 -124 -32t-101.5 -83t-68.5 -114.5t-25 -127.5q0 -47 12.5 -90t37.5 -75.5t60.5 -51.5t82.5 -19z" />
<glyph unicode="&#xd7;" horiz-adv-x="468" d="M392 151l-44 -43l-122 121l-121 -121l-43 44l120 120l-119 121l44 43l119 -120l121 121l43 -44l-120 -121z" />
<glyph unicode="&#xd8;" horiz-adv-x="722" d="M713 710l-76 -90q30 -42 45.5 -93.5t15.5 -106.5q0 -81 -33.5 -157.5t-89.5 -136t-128.5 -95.5t-150.5 -36q-44 0 -80.5 13t-65.5 36l-37 -44h-77l73 86q-31 41 -47 93t-16 109q0 81 34 158t90.5 137t129 96t150.5 36q45 0 81.5 -14t65.5 -38l40 47h76zM117 294 q0 -43 10 -81.5t30 -69.5l394 465q-23 20 -51.5 31.5t-63.5 11.5q-66 0 -124 -32t-101.5 -83t-68.5 -114.5t-25 -127.5zM310 58q66 0 123.5 32t101 83.5t68.5 115t25 126.5q0 42 -10 79.5t-29 68.5l-393 -465q23 -19 51 -29.5t63 -10.5z" />
<glyph unicode="&#xd9;" horiz-adv-x="724" d="M298 -5q-62 0 -105 18.5t-69 50.5t-37.5 74.5t-11.5 91.5q0 57 14 122l76 358h69l-76 -358q-6 -29 -9.5 -56.5t-3.5 -53.5q0 -39 8.5 -72.5t28 -58t51 -39t77.5 -14.5q63 0 110.5 25.5t81 67t54.5 94.5t32 107l76 358h69l-75 -358q-15 -72 -44 -137t-73.5 -113.5 t-104.5 -77.5t-138 -29zM409 917h70l38 -93l-49 -17z" />
<glyph unicode="&#xda;" horiz-adv-x="724" d="M458 807l-42 17l76 93h71zM298 -5q-62 0 -105 18.5t-69 50.5t-37.5 74.5t-11.5 91.5q0 57 14 122l76 358h69l-76 -358q-6 -29 -9.5 -56.5t-3.5 -53.5q0 -39 8.5 -72.5t28 -58t51 -39t77.5 -14.5q63 0 110.5 25.5t81 67t54.5 94.5t32 107l76 358h69l-75 -358 q-15 -72 -44 -137t-73.5 -113.5t-104.5 -77.5t-138 -29z" />
<glyph unicode="&#xdb;" horiz-adv-x="724" d="M352 832l113 85h50l75 -85l-42 -21l-68 63l-94 -63zM298 -5q-62 0 -105 18.5t-69 50.5t-37.5 74.5t-11.5 91.5q0 57 14 122l76 358h69l-76 -358q-6 -29 -9.5 -56.5t-3.5 -53.5q0 -39 8.5 -72.5t28 -58t51 -39t77.5 -14.5q63 0 110.5 25.5t81 67t54.5 94.5t32 107l76 358 h69l-75 -358q-15 -72 -44 -137t-73.5 -113.5t-104.5 -77.5t-138 -29z" />
<glyph unicode="&#xdc;" horiz-adv-x="724" d="M365 820l21 94h58l-21 -94h-58zM509 820l20 94h57l-19 -94h-58zM298 -5q-62 0 -105 18.5t-69 50.5t-37.5 74.5t-11.5 91.5q0 57 14 122l76 358h69l-76 -358q-6 -29 -9.5 -56.5t-3.5 -53.5q0 -39 8.5 -72.5t28 -58t51 -39t77.5 -14.5q63 0 110.5 25.5t81 67t54.5 94.5 t32 107l76 358h69l-75 -358q-15 -72 -44 -137t-73.5 -113.5t-104.5 -77.5t-138 -29z" />
<glyph unicode="&#xdd;" horiz-adv-x="607" d="M257 266l-166 444h77l137 -382l300 382h76l-356 -446l-56 -264h-69zM395 807l-42 17l76 93h71z" />
<glyph unicode="&#xde;" horiz-adv-x="579" d="M175 710h69l-30 -141h193q37 0 66.5 -15.5t50 -41.5t31 -59t10.5 -69q0 -48 -20 -95t-53.5 -84.5t-78.5 -60.5t-96 -23h-198l-26 -121h-69zM328 184q34 0 64.5 17t53.5 45t36 62t13 69q0 27 -7.5 50.5t-21.5 41t-33 28t-43 10.5h-189l-69 -323h196z" />
<glyph unicode="&#xdf;" horiz-adv-x="529" d="M177 57q51 1 93 13t72 35t46.5 58t16.5 81q0 57 -33.5 90.5t-93.5 33.5h-18l14 62h17q28 0 53.5 10.5t45 28.5t30.5 42.5t11 53.5q0 43 -27 66t-68 23q-31 0 -56.5 -11.5t-45 -32t-33 -47.5t-20.5 -58l-107 -505h-65l109 515q9 44 31 80.5t53 63t69.5 41t80.5 14.5 q33 0 60 -9.5t46.5 -27t30 -42t10.5 -53.5q0 -31 -11.5 -60.5t-31 -53.5t-44 -41.5t-49.5 -23.5q56 -13 84 -55.5t28 -99.5q0 -60 -23.5 -106t-65 -78.5t-98.5 -50t-125 -19.5z" />
<glyph unicode="&#xe0;" d="M210 -10q-44 0 -78 17.5t-58 47.5t-36.5 69.5t-12.5 83.5q0 62 24 120t64 103t92 72t109 27q63 0 104 -34.5t58 -83.5l24 109h68l-92 -432q-2 -8 -2 -13q0 -16 19 -16l-13 -60q-8 -1 -15 -2t-12 -1q-23 2 -34.5 12.5t-11.5 27.5q0 8 2.5 21t8.5 43q-40 -51 -96.5 -81 t-111.5 -30zM238 50q25 0 54 10t55.5 27.5t48 41t31.5 50.5l33 161q-3 27 -16 50.5t-32 41t-43 28t-50 10.5q-45 0 -85.5 -22.5t-71 -58.5t-48.5 -81t-18 -90q0 -35 10 -65.5t29 -53t45 -36t58 -13.5zM281 730h70l38 -93l-49 -17z" />
<glyph unicode="&#xe1;" d="M210 -10q-44 0 -78 17.5t-58 47.5t-36.5 69.5t-12.5 83.5q0 62 24 120t64 103t92 72t109 27q63 0 104 -34.5t58 -83.5l24 109h68l-92 -432q-2 -8 -2 -13q0 -16 19 -16l-13 -60q-8 -1 -15 -2t-12 -1q-23 2 -34.5 12.5t-11.5 27.5q0 8 2.5 21t8.5 43q-40 -51 -96.5 -81 t-111.5 -30zM238 50q25 0 54 10t55.5 27.5t48 41t31.5 50.5l33 161q-3 27 -16 50.5t-32 41t-43 28t-50 10.5q-45 0 -85.5 -22.5t-71 -58.5t-48.5 -81t-18 -90q0 -35 10 -65.5t29 -53t45 -36t58 -13.5zM350 620l-42 17l76 93h71z" />
<glyph unicode="&#xe2;" d="M210 -10q-44 0 -78 17.5t-58 47.5t-36.5 69.5t-12.5 83.5q0 62 24 120t64 103t92 72t109 27q63 0 104 -34.5t58 -83.5l24 109h68l-92 -432q-2 -8 -2 -13q0 -16 19 -16l-13 -60q-8 -1 -15 -2t-12 -1q-23 2 -34.5 12.5t-11.5 27.5q0 8 2.5 21t8.5 43q-40 -51 -96.5 -81 t-111.5 -30zM238 50q25 0 54 10t55.5 27.5t48 41t31.5 50.5l33 161q-3 27 -16 50.5t-32 41t-43 28t-50 10.5q-45 0 -85.5 -22.5t-71 -58.5t-48.5 -81t-18 -90q0 -35 10 -65.5t29 -53t45 -36t58 -13.5zM236 645l113 85h50l75 -85l-42 -21l-68 63l-94 -63z" />
<glyph unicode="&#xe3;" d="M210 -10q-44 0 -78 17.5t-58 47.5t-36.5 69.5t-12.5 83.5q0 62 24 120t64 103t92 72t109 27q63 0 104 -34.5t58 -83.5l24 109h68l-92 -432q-2 -8 -2 -13q0 -16 19 -16l-13 -60q-8 -1 -15 -2t-12 -1q-23 2 -34.5 12.5t-11.5 27.5q0 8 2.5 21t8.5 43q-40 -51 -96.5 -81 t-111.5 -30zM238 50q25 0 54 10t55.5 27.5t48 41t31.5 50.5l33 161q-3 27 -16 50.5t-32 41t-43 28t-50 10.5q-45 0 -85.5 -22.5t-71 -58.5t-48.5 -81t-18 -90q0 -35 10 -65.5t29 -53t45 -36t58 -13.5zM406 638q-21 0 -35.5 6t-26.5 13.5t-24 14t-27 6.5t-26 -7t-17.5 -15.5 t-10 -16t-3.5 -9.5h-42q1 5 8 20.5t20 31.5t33 28.5t47 12.5q20 0 33.5 -6.5t25.5 -14.5t24 -14.5t30 -6.5t30.5 7t19.5 16t10.5 16.5t3.5 9.5h42q-1 -5 -8 -20t-21 -31t-35 -28.5t-51 -12.5z" />
<glyph unicode="&#xe4;" d="M210 -10q-44 0 -78 17.5t-58 47.5t-36.5 69.5t-12.5 83.5q0 62 24 120t64 103t92 72t109 27q63 0 104 -34.5t58 -83.5l24 109h68l-92 -432q-2 -8 -2 -13q0 -16 19 -16l-13 -60q-8 -1 -15 -2t-12 -1q-23 2 -34.5 12.5t-11.5 27.5q0 8 2.5 21t8.5 43q-40 -51 -96.5 -81 t-111.5 -30zM238 50q25 0 54 10t55.5 27.5t48 41t31.5 50.5l33 161q-3 27 -16 50.5t-32 41t-43 28t-50 10.5q-45 0 -85.5 -22.5t-71 -58.5t-48.5 -81t-18 -90q0 -35 10 -65.5t29 -53t45 -36t58 -13.5zM250 633l21 94h58l-21 -94h-58zM394 633l20 94h57l-19 -94h-58z" />
<glyph unicode="&#xe5;" d="M210 -10q-44 0 -78 17.5t-58 47.5t-36.5 69.5t-12.5 83.5q0 62 24 120t64 103t92 72t109 27q63 0 104 -34.5t58 -83.5l24 109h68l-92 -432q-2 -8 -2 -13q0 -16 19 -16l-13 -60q-8 -1 -15 -2t-12 -1q-23 2 -34.5 12.5t-11.5 27.5q0 8 2.5 21t8.5 43q-40 -51 -96.5 -81 t-111.5 -30zM238 50q25 0 54 10t55.5 27.5t48 41t31.5 50.5l33 161q-3 27 -16 50.5t-32 41t-43 28t-50 10.5q-45 0 -85.5 -22.5t-71 -58.5t-48.5 -81t-18 -90q0 -35 10 -65.5t29 -53t45 -36t58 -13.5zM283 652q0 35 26 56.5t61 21.5q27 0 42.5 -14.5t15.5 -38.5 q0 -34 -25 -56t-62 -22q-27 0 -42.5 14.5t-15.5 38.5zM364 703q-18 0 -33 -13t-15 -33q0 -13 8.5 -22t22.5 -9q17 0 33 13t16 33q0 14 -9 22.5t-23 8.5z" />
<glyph unicode="&#xe6;" horiz-adv-x="887" d="M134 -10q-33 0 -58.5 10.5t-43.5 28.5t-27 42t-9 52q0 41 19 75t52 59t77.5 38.5t95.5 13.5q33 0 64.5 -5.5t57.5 -14.5q8 26 18 46.5t14 44.5q0 43 -28.5 71t-82.5 28q-38 0 -81 -16t-91 -46l-13 45q56 34 105.5 51t97.5 17q60 0 98 -27t49 -77q42 47 96.5 75.5 t115.5 28.5q46 0 82.5 -16.5t62 -45.5t39.5 -68t14 -84q0 -32 -5.5 -51.5t-9.5 -28.5h-427q-1 -8 -1.5 -16.5t-0.5 -17.5q0 -35 10.5 -64.5t30 -50.5t46.5 -33t60 -12q24 0 49 7t47.5 19t41.5 29.5t32 38.5l56 -16q-18 -29 -44 -52.5t-57.5 -41t-66.5 -27t-71 -9.5 q-66 0 -112.5 31.5t-68.5 83.5q-23 -31 -53 -53t-62 -35.5t-63 -20t-55 -6.5zM161 42q27 0 57 8.5t57.5 23.5t48 34.5t28.5 41.5q-4 16 -4 41q0 14 1.5 28.5t3.5 26.5q-25 10 -54 15t-57 5q-39 0 -71.5 -9.5t-56.5 -26.5t-37.5 -41t-13.5 -53q0 -38 24 -66t74 -28zM789 282 q2 10 2.5 20.5t0.5 19.5q0 67 -37.5 111t-106.5 44q-38 0 -73 -14.5t-64.5 -40.5t-52 -62t-33.5 -78h364z" />
<glyph unicode="&#xe7;" horiz-adv-x="526" d="M119 -126q11 -7 32.5 -12.5t46.5 -5.5q64 0 64 43q0 16 -11.5 22t-29.5 6q-20 0 -43 -4.5t-37 -9.5l56 79q-41 4 -72.5 23t-54 48t-34 67t-11.5 80q0 63 25 121t67.5 102.5t99 70.5t120.5 26q71 0 116.5 -33.5t59.5 -90.5l-70 -21q-12 40 -44 62.5t-77 22.5 q-44 0 -84.5 -20t-72.5 -54t-51 -80t-19 -97q0 -36 10 -66.5t28 -53.5t43.5 -36t56.5 -13q24 0 48.5 7t46.5 19.5t39.5 28.5t26.5 34l63 -20q-16 -27 -39.5 -50t-52.5 -39.5t-62 -27t-68 -11.5l-33 -42q9 4 19 5t18 1q29 0 45 -12.5t16 -36.5q0 -38 -29.5 -60t-85.5 -22 q-27 0 -50 5.5t-40 13.5z" />
<glyph unicode="&#xe8;" horiz-adv-x="534" d="M226 -10q-48 0 -85.5 17t-63 47t-39 70t-13.5 86q0 62 24 119.5t66 102t99.5 71.5t124.5 27q34 0 64.5 -9t53 -26.5t35.5 -44t13 -60.5q0 -77 -68 -116t-210 -39q-28 0 -60.5 1t-70.5 4q-1 -8 -1.5 -15t-0.5 -14q0 -34 9 -64.5t27 -54t45 -37t63 -13.5q24 0 49 7 t47.5 19.5t41.5 30.5t32 40l56 -17q-18 -29 -44 -53.5t-57.5 -42t-66 -27t-70.5 -9.5zM332 477q-45 0 -82 -16t-66 -42t-49 -60t-30 -70q36 -2 66.5 -3.5t58.5 -1.5q59 0 100 8t66 22t36 34t11 43q0 45 -33 65.5t-78 20.5zM296 730h70l38 -93l-49 -17z" />
<glyph unicode="&#xe9;" horiz-adv-x="534" d="M340 620l-42 17l76 93h71zM226 -10q-48 0 -85.5 17t-63 47t-39 70t-13.5 86q0 62 24 119.5t66 102t99.5 71.5t124.5 27q34 0 64.5 -9t53 -26.5t35.5 -44t13 -60.5q0 -77 -68 -116t-210 -39q-28 0 -60.5 1t-70.5 4q-1 -8 -1.5 -15t-0.5 -14q0 -34 9 -64.5t27 -54t45 -37 t63 -13.5q24 0 49 7t47.5 19.5t41.5 30.5t32 40l56 -17q-18 -29 -44 -53.5t-57.5 -42t-66 -27t-70.5 -9.5zM332 477q-45 0 -82 -16t-66 -42t-49 -60t-30 -70q36 -2 66.5 -3.5t58.5 -1.5q59 0 100 8t66 22t36 34t11 43q0 45 -33 65.5t-78 20.5z" />
<glyph unicode="&#xea;" horiz-adv-x="534" d="M246 645l113 85h50l75 -85l-42 -21l-68 63l-94 -63zM226 -10q-48 0 -85.5 17t-63 47t-39 70t-13.5 86q0 62 24 119.5t66 102t99.5 71.5t124.5 27q34 0 64.5 -9t53 -26.5t35.5 -44t13 -60.5q0 -77 -68 -116t-210 -39q-28 0 -60.5 1t-70.5 4q-1 -8 -1.5 -15t-0.5 -14 q0 -34 9 -64.5t27 -54t45 -37t63 -13.5q24 0 49 7t47.5 19.5t41.5 30.5t32 40l56 -17q-18 -29 -44 -53.5t-57.5 -42t-66 -27t-70.5 -9.5zM332 477q-45 0 -82 -16t-66 -42t-49 -60t-30 -70q36 -2 66.5 -3.5t58.5 -1.5q59 0 100 8t66 22t36 34t11 43q0 45 -33 65.5t-78 20.5z " />
<glyph unicode="&#xeb;" horiz-adv-x="534" d="M253 633l21 94h58l-21 -94h-58zM397 633l20 94h57l-19 -94h-58zM226 -10q-48 0 -85.5 17t-63 47t-39 70t-13.5 86q0 62 24 119.5t66 102t99.5 71.5t124.5 27q34 0 64.5 -9t53 -26.5t35.5 -44t13 -60.5q0 -77 -68 -116t-210 -39q-28 0 -60.5 1t-70.5 4q-1 -8 -1.5 -15 t-0.5 -14q0 -34 9 -64.5t27 -54t45 -37t63 -13.5q24 0 49 7t47.5 19.5t41.5 30.5t32 40l56 -17q-18 -29 -44 -53.5t-57.5 -42t-66 -27t-70.5 -9.5zM332 477q-45 0 -82 -16t-66 -42t-49 -60t-30 -70q36 -2 66.5 -3.5t58.5 -1.5q59 0 100 8t66 22t36 34t11 43q0 45 -33 65.5 t-78 20.5z" />
<glyph unicode="&#xec;" horiz-adv-x="213" d="M119 521h68l-110 -521h-68zM96 730h70l38 -93l-49 -17z" />
<glyph unicode="&#xed;" horiz-adv-x="213" d="M175 620l-42 17l76 93h71zM119 521h68l-110 -521h-68z" />
<glyph unicode="&#xee;" horiz-adv-x="213" d="M62 645l113 85h50l75 -85l-42 -21l-68 63l-94 -63zM119 521h68l-110 -521h-68z" />
<glyph unicode="&#xef;" horiz-adv-x="213" d="M73 633l21 94h58l-21 -94h-58zM217 633l20 94h57l-19 -94h-58zM119 521h68l-110 -521h-68z" />
<glyph unicode="&#xf0;" horiz-adv-x="579" d="M554 683l-91 -52q44 -63 61.5 -131t17.5 -129q0 -88 -28.5 -158.5t-74.5 -120t-104 -76t-118 -26.5q-44 0 -80 15.5t-61.5 43t-40 64t-14.5 78.5q0 56 25 107.5t65.5 90.5t92.5 62t106 23q63 0 107.5 -32.5t58.5 -84.5q0 62 -13 123.5t-57 123.5l-117 -68l-15 31l111 63 q-41 48 -114 100h94q23 -17 42 -35t36 -38l96 56zM91 199q0 -31 10 -58t29 -47.5t44.5 -32t57.5 -11.5q42 0 82.5 18.5t71.5 49.5t50 71t19 83q0 31 -10.5 57.5t-29 46t-45 30.5t-57.5 11q-42 0 -82 -18t-71 -48t-50 -69.5t-19 -82.5z" />
<glyph unicode="&#xf1;" horiz-adv-x="559" d="M119 521h63l-26 -118q21 28 48.5 51.5t58 40.5t63.5 26t66 9q61 0 87 -33t26 -91q0 -23 -3.5 -47.5t-9.5 -53.5l-64 -305h-68l62 291q10 49 10 85q0 92 -78 92q-28 0 -58.5 -11t-59 -31t-52.5 -47.5t-40 -59.5l-67 -319h-68zM393 638q-21 0 -35.5 6t-26.5 13.5t-24 14 t-27 6.5t-26 -7t-17.5 -15.5t-10 -16t-3.5 -9.5h-42q1 5 8 20.5t20 31.5t33 28.5t47 12.5q20 0 33.5 -6.5t25.5 -14.5t24 -14.5t30 -6.5t30.5 7t19.5 16t10.5 16.5t3.5 9.5h42q-1 -5 -8 -20t-21 -31t-35 -28.5t-51 -12.5z" />
<glyph unicode="&#xf2;" horiz-adv-x="573" d="M220 -10q-46 0 -82.5 17.5t-61.5 47t-38.5 69t-13.5 84.5q0 63 25.5 121t68.5 102.5t99 71.5t118 27q46 0 82 -17.5t61.5 -47t39 -69.5t13.5 -85q0 -62 -25.5 -120t-68 -102.5t-99 -71.5t-118.5 -27zM233 50q42 0 83 20.5t73 55t52 80t20 96.5q0 35 -10 66t-28.5 53.5 t-44 35.5t-56.5 13q-42 0 -82.5 -20.5t-73 -55.5t-52.5 -81t-20 -97q0 -35 10 -65.5t28.5 -53t44 -35t56.5 -12.5zM291 730h70l38 -93l-49 -17z" />
<glyph unicode="&#xf3;" horiz-adv-x="573" d="M349 620l-42 17l76 93h71zM220 -10q-46 0 -82.5 17.5t-61.5 47t-38.5 69t-13.5 84.5q0 63 25.5 121t68.5 102.5t99 71.5t118 27q46 0 82 -17.5t61.5 -47t39 -69.5t13.5 -85q0 -62 -25.5 -120t-68 -102.5t-99 -71.5t-118.5 -27zM233 50q42 0 83 20.5t73 55t52 80t20 96.5 q0 35 -10 66t-28.5 53.5t-44 35.5t-56.5 13q-42 0 -82.5 -20.5t-73 -55.5t-52.5 -81t-20 -97q0 -35 10 -65.5t28.5 -53t44 -35t56.5 -12.5z" />
<glyph unicode="&#xf4;" horiz-adv-x="573" d="M239 645l113 85h50l75 -85l-42 -21l-68 63l-94 -63zM220 -10q-46 0 -82.5 17.5t-61.5 47t-38.5 69t-13.5 84.5q0 63 25.5 121t68.5 102.5t99 71.5t118 27q46 0 82 -17.5t61.5 -47t39 -69.5t13.5 -85q0 -62 -25.5 -120t-68 -102.5t-99 -71.5t-118.5 -27zM233 50 q42 0 83 20.5t73 55t52 80t20 96.5q0 35 -10 66t-28.5 53.5t-44 35.5t-56.5 13q-42 0 -82.5 -20.5t-73 -55.5t-52.5 -81t-20 -97q0 -35 10 -65.5t28.5 -53t44 -35t56.5 -12.5z" />
<glyph unicode="&#xf5;" horiz-adv-x="573" d="M220 -10q-46 0 -82.5 17.5t-61.5 47t-38.5 69t-13.5 84.5q0 63 25.5 121t68.5 102.5t99 71.5t118 27q46 0 82 -17.5t61.5 -47t39 -69.5t13.5 -85q0 -62 -25.5 -120t-68 -102.5t-99 -71.5t-118.5 -27zM233 50q42 0 83 20.5t73 55t52 80t20 96.5q0 35 -10 66t-28.5 53.5 t-44 35.5t-56.5 13q-42 0 -82.5 -20.5t-73 -55.5t-52.5 -81t-20 -97q0 -35 10 -65.5t28.5 -53t44 -35t56.5 -12.5zM410 638q-21 0 -35.5 6t-26.5 13.5t-24 14t-27 6.5t-26 -7t-17.5 -15.5t-10 -16t-3.5 -9.5h-42q1 5 8 20.5t20 31.5t33 28.5t47 12.5q20 0 33.5 -6.5 t25.5 -14.5t24 -14.5t30 -6.5t30.5 7t19.5 16t10.5 16.5t3.5 9.5h42q-1 -5 -8 -20t-21 -31t-35 -28.5t-51 -12.5z" />
<glyph unicode="&#xf6;" horiz-adv-x="573" d="M254 633l21 94h58l-21 -94h-58zM398 633l20 94h57l-19 -94h-58zM220 -10q-46 0 -82.5 17.5t-61.5 47t-38.5 69t-13.5 84.5q0 63 25.5 121t68.5 102.5t99 71.5t118 27q46 0 82 -17.5t61.5 -47t39 -69.5t13.5 -85q0 -62 -25.5 -120t-68 -102.5t-99 -71.5t-118.5 -27z M233 50q42 0 83 20.5t73 55t52 80t20 96.5q0 35 -10 66t-28.5 53.5t-44 35.5t-56.5 13q-42 0 -82.5 -20.5t-73 -55.5t-52.5 -81t-20 -97q0 -35 10 -65.5t28.5 -53t44 -35t56.5 -12.5z" />
<glyph unicode="&#xf7;" horiz-adv-x="537" d="M234 399v91h59v-91h-59zM234 74v90h59v-90h-59zM62 254v57h403v-57h-403z" />
<glyph unicode="&#xf8;" horiz-adv-x="573" d="M77 53q-53 62 -53 155q0 63 25.5 121t68.5 102.5t99.5 71.5t117.5 27q35 0 65 -10.5t53 -29.5l31 33h46l-53 -56q54 -62 54 -156q0 -62 -25 -120t-68 -102.5t-99 -71.5t-118 -27q-36 0 -66.5 10.5t-53.5 29.5l-30 -31h-46zM233 50q42 0 83 20.5t73 55t52 80t20 96.5 q0 32 -9 61t-25 51l-280 -332q35 -32 86 -32zM94 216q0 -33 8.5 -61.5t24.5 -50.5l280 334q-17 15 -38.5 23.5t-46.5 8.5q-42 0 -82.5 -20.5t-73 -55.5t-52.5 -81t-20 -97z" />
<glyph unicode="&#xf9;" horiz-adv-x="569" d="M159 -10q-122 0 -122 134q0 20 2.5 42.5t8.5 48.5l66 306h67l-62 -294q-10 -44 -10 -78q0 -99 86 -99q28 0 57 10t56 29t51 45t42 59l70 328h68l-91 -425q-3 -12 -3 -19q0 -17 19 -17l-13 -60q-8 -1 -13.5 -1.5t-10.5 -0.5q-23 0 -35 10.5t-12 28.5q0 3 0.5 8t2 14t4 23 t7.5 36q-46 -61 -108 -94.5t-127 -33.5zM270 730h70l38 -93l-49 -17z" />
<glyph unicode="&#xfa;" horiz-adv-x="569" d="M326 620l-42 17l76 93h71zM159 -10q-122 0 -122 134q0 20 2.5 42.5t8.5 48.5l66 306h67l-62 -294q-10 -44 -10 -78q0 -99 86 -99q28 0 57 10t56 29t51 45t42 59l70 328h68l-91 -425q-3 -12 -3 -19q0 -17 19 -17l-13 -60q-8 -1 -13.5 -1.5t-10.5 -0.5q-23 0 -35 10.5 t-12 28.5q0 3 0.5 8t2 14t4 23t7.5 36q-46 -61 -108 -94.5t-127 -33.5z" />
<glyph unicode="&#xfb;" horiz-adv-x="569" d="M234 645l113 85h50l75 -85l-42 -21l-68 63l-94 -63zM159 -10q-122 0 -122 134q0 20 2.5 42.5t8.5 48.5l66 306h67l-62 -294q-10 -44 -10 -78q0 -99 86 -99q28 0 57 10t56 29t51 45t42 59l70 328h68l-91 -425q-3 -12 -3 -19q0 -17 19 -17l-13 -60q-8 -1 -13.5 -1.5 t-10.5 -0.5q-23 0 -35 10.5t-12 28.5q0 3 0.5 8t2 14t4 23t7.5 36q-46 -61 -108 -94.5t-127 -33.5z" />
<glyph unicode="&#xfc;" horiz-adv-x="569" d="M243 633l21 94h58l-21 -94h-58zM387 633l20 94h57l-19 -94h-58zM159 -10q-122 0 -122 134q0 20 2.5 42.5t8.5 48.5l66 306h67l-62 -294q-10 -44 -10 -78q0 -99 86 -99q28 0 57 10t56 29t51 45t42 59l70 328h68l-91 -425q-3 -12 -3 -19q0 -17 19 -17l-13 -60 q-8 -1 -13.5 -1.5t-10.5 -0.5q-23 0 -35 10.5t-12 28.5q0 3 0.5 8t2 14t4 23t7.5 36q-46 -61 -108 -94.5t-127 -33.5z" />
<glyph unicode="&#xfd;" horiz-adv-x="489" d="M-36 -169q31 5 53.5 12t40 20t33 32t34.5 48l33 49l-107 529h71l84 -458l41 67q43 70 73 123t51.5 97.5t36 85t26.5 85.5h67q-14 -48 -29 -89.5t-37.5 -88t-56 -104t-83.5 -136.5l-81 -129q-35 -55 -63.5 -92t-56 -60t-56.5 -33.5t-65 -12.5zM290 620l-42 17l76 93h71z " />
<glyph unicode="&#xfe;" horiz-adv-x="577" d="M160 710h69l-58 -276q35 42 80 70t104 28q45 0 79.5 -18t57 -47.5t34 -67.5t11.5 -78q0 -57 -22 -117t-62 -108.5t-95 -80t-121 -31.5q-62 0 -95.5 27t-47.5 63l-61 -287h-69zM251 47q43 0 82.5 21.5t69 57.5t47 82.5t17.5 96.5q0 34 -8.5 64t-25 52.5t-41 35.5t-56.5 13 q-27 0 -53 -10t-49 -26.5t-44 -38.5t-38 -47l-37 -176q-2 -5 -2 -8v-7q0 -22 11 -42t30 -35t44 -24t53 -9z" />
<glyph unicode="&#xff;" horiz-adv-x="489" d="M-36 -169q31 5 53.5 12t40 20t33 32t34.5 48l33 49l-107 529h71l84 -458l41 67q43 70 73 123t51.5 97.5t36 85t26.5 85.5h67q-14 -48 -29 -89.5t-37.5 -88t-56 -104t-83.5 -136.5l-81 -129q-35 -55 -63.5 -92t-56 -60t-56.5 -33.5t-65 -12.5zM192 633l21 94h58l-21 -94 h-58zM336 633l20 94h57l-19 -94h-58z" />
<glyph unicode="&#x100;" horiz-adv-x="651" d="M386 710h60l128 -710h-74l-39 222h-299l-132 -222h-75zM457 277l-58 351l-211 -351h269zM304 849l10 47h275l-10 -47h-275z" />
<glyph unicode="&#x101;" d="M210 -10q-44 0 -78 17.5t-58 47.5t-36.5 69.5t-12.5 83.5q0 62 24 120t64 103t92 72t109 27q63 0 104 -34.5t58 -83.5l24 109h68l-92 -432q-2 -8 -2 -13q0 -16 19 -16l-13 -60q-8 -1 -15 -2t-12 -1q-23 2 -34.5 12.5t-11.5 27.5q0 8 2.5 21t8.5 43q-40 -51 -96.5 -81 t-111.5 -30zM238 50q25 0 54 10t55.5 27.5t48 41t31.5 50.5l33 161q-3 27 -16 50.5t-32 41t-43 28t-50 10.5q-45 0 -85.5 -22.5t-71 -58.5t-48.5 -81t-18 -90q0 -35 10 -65.5t29 -53t45 -36t58 -13.5zM229 662l10 47h275l-10 -47h-275z" />
<glyph unicode="&#x102;" horiz-adv-x="651" d="M386 710h60l128 -710h-74l-39 222h-299l-132 -222h-75zM457 277l-58 351l-211 -351h269zM438 851q20 0 40 19t29 47h40q-5 -21 -16 -39.5t-26.5 -32t-34.5 -21.5t-39 -8q-35 0 -56 22t-21 56q0 11 3 23h42q-2 -10 -2 -15q0 -21 11.5 -36t29.5 -15z" />
<glyph unicode="&#x103;" d="M210 -10q-44 0 -78 17.5t-58 47.5t-36.5 69.5t-12.5 83.5q0 62 24 120t64 103t92 72t109 27q63 0 104 -34.5t58 -83.5l24 109h68l-92 -432q-2 -8 -2 -13q0 -16 19 -16l-13 -60q-8 -1 -15 -2t-12 -1q-23 2 -34.5 12.5t-11.5 27.5q0 8 2.5 21t8.5 43q-40 -51 -96.5 -81 t-111.5 -30zM238 50q25 0 54 10t55.5 27.5t48 41t31.5 50.5l33 161q-3 27 -16 50.5t-32 41t-43 28t-50 10.5q-45 0 -85.5 -22.5t-71 -58.5t-48.5 -81t-18 -90q0 -35 10 -65.5t29 -53t45 -36t58 -13.5zM352 664q20 0 40 19t29 47h40q-5 -21 -16 -39.5t-26.5 -32t-34.5 -21.5 t-39 -8q-35 0 -56 22t-21 56q0 11 3 23h42q-2 -10 -2 -15q0 -21 11.5 -36t29.5 -15z" />
<glyph unicode="&#x104;" horiz-adv-x="651" d="M491 -175q-30 7 -45 23t-15 38q0 28 22.5 55t72.5 59h-26l-39 222h-299l-132 -222h-75l431 710h60l128 -710q-55 -32 -77 -55t-22 -46q0 -30 42 -36zM457 277l-58 351l-211 -351h269z" />
<glyph unicode="&#x105;" d="M397 -175q-30 7 -45 23t-15 38q0 29 23 56t74 59q-27 9 -27 36q0 8 2.5 21t8.5 43q-40 -51 -96.5 -81t-111.5 -30q-44 0 -78 17.5t-58 47.5t-36.5 69.5t-12.5 83.5q0 62 24 120t64 103t92 72t109 27q63 0 104 -34.5t58 -83.5l24 109h68l-92 -432q-2 -8 -2 -13 q0 -16 19 -16l-13 -60q-55 -32 -77 -55t-22 -46q0 -30 42 -36zM238 50q25 0 54 10t55.5 27.5t48 41t31.5 50.5l33 161q-3 27 -16 50.5t-32 41t-43 28t-50 10.5q-45 0 -85.5 -22.5t-71 -58.5t-48.5 -81t-18 -90q0 -35 10 -65.5t29 -53t45 -36t58 -13.5z" />
<glyph unicode="&#x106;" horiz-adv-x="656" d="M472 807l-42 17l76 93h71zM294 -6q-59 0 -105 25.5t-77.5 67.5t-48 96t-16.5 111q0 73 30.5 147.5t84.5 135t128 99t162 38.5q91 0 145.5 -43t71.5 -112l-63 -34q-9 35 -26.5 59t-40.5 39t-50 21.5t-54 6.5q-70 0 -128.5 -32.5t-100.5 -84t-65.5 -114.5t-23.5 -123 q0 -49 13.5 -92.5t38.5 -76.5t61 -52t81 -19q28 0 59.5 7.5t62.5 24t60 41t52 59.5l52 -30q-25 -40 -60.5 -70.5t-76.5 -51.5t-84 -32t-82 -11z" />
<glyph unicode="&#x107;" horiz-adv-x="526" d="M338 620l-42 17l76 93h71zM223 -10q-46 0 -83 17.5t-62.5 47.5t-39 70t-13.5 85q0 63 25 121t67.5 102.5t99 70.5t120.5 26q71 0 116.5 -33.5t59.5 -90.5l-70 -21q-12 40 -44 62.5t-77 22.5q-44 0 -84.5 -20t-72.5 -54t-51 -80t-19 -97q0 -36 10 -66.5t28 -53.5t43.5 -36 t56.5 -13q24 0 48.5 7t46.5 19.5t39.5 28.5t26.5 34l63 -20q-16 -28 -41 -51.5t-56 -41t-66 -27t-71 -9.5z" />
<glyph unicode="&#x108;" horiz-adv-x="656" d="M367 832l113 85h50l75 -85l-42 -21l-68 63l-94 -63zM294 -6q-59 0 -105 25.5t-77.5 67.5t-48 96t-16.5 111q0 73 30.5 147.5t84.5 135t128 99t162 38.5q91 0 145.5 -43t71.5 -112l-63 -34q-9 35 -26.5 59t-40.5 39t-50 21.5t-54 6.5q-70 0 -128.5 -32.5t-100.5 -84 t-65.5 -114.5t-23.5 -123q0 -49 13.5 -92.5t38.5 -76.5t61 -52t81 -19q28 0 59.5 7.5t62.5 24t60 41t52 59.5l52 -30q-25 -40 -60.5 -70.5t-76.5 -51.5t-84 -32t-82 -11z" />
<glyph unicode="&#x109;" horiz-adv-x="526" d="M243 645l113 85h50l75 -85l-42 -21l-68 63l-94 -63zM223 -10q-46 0 -83 17.5t-62.5 47.5t-39 70t-13.5 85q0 63 25 121t67.5 102.5t99 70.5t120.5 26q71 0 116.5 -33.5t59.5 -90.5l-70 -21q-12 40 -44 62.5t-77 22.5q-44 0 -84.5 -20t-72.5 -54t-51 -80t-19 -97 q0 -36 10 -66.5t28 -53.5t43.5 -36t56.5 -13q24 0 48.5 7t46.5 19.5t39.5 28.5t26.5 34l63 -20q-16 -28 -41 -51.5t-56 -41t-66 -27t-71 -9.5z" />
<glyph unicode="&#x10a;" horiz-adv-x="656" d="M294 -6q-59 0 -105 25.5t-77.5 67.5t-48 96t-16.5 111q0 73 30.5 147.5t84.5 135t128 99t162 38.5q91 0 145.5 -43t71.5 -112l-63 -34q-9 35 -26.5 59t-40.5 39t-50 21.5t-54 6.5q-70 0 -128.5 -32.5t-100.5 -84t-65.5 -114.5t-23.5 -123q0 -49 13.5 -92.5t38.5 -76.5 t61 -52t81 -19q28 0 59.5 7.5t62.5 24t60 41t52 59.5l52 -30q-25 -40 -60.5 -70.5t-76.5 -51.5t-84 -32t-82 -11zM452 820l21 97h62l-21 -97h-62z" />
<glyph unicode="&#x10b;" horiz-adv-x="526" d="M223 -10q-46 0 -83 17.5t-62.5 47.5t-39 70t-13.5 85q0 63 25 121t67.5 102.5t99 70.5t120.5 26q71 0 116.5 -33.5t59.5 -90.5l-70 -21q-12 40 -44 62.5t-77 22.5q-44 0 -84.5 -20t-72.5 -54t-51 -80t-19 -97q0 -36 10 -66.5t28 -53.5t43.5 -36t56.5 -13q24 0 48.5 7 t46.5 19.5t39.5 28.5t26.5 34l63 -20q-16 -28 -41 -51.5t-56 -41t-66 -27t-71 -9.5zM327 633l21 97h62l-21 -97h-62z" />
<glyph unicode="&#x10c;" horiz-adv-x="656" d="M376 897l43 20l67 -63l94 63l34 -20l-112 -86h-50zM294 -6q-59 0 -105 25.5t-77.5 67.5t-48 96t-16.5 111q0 73 30.5 147.5t84.5 135t128 99t162 38.5q91 0 145.5 -43t71.5 -112l-63 -34q-9 35 -26.5 59t-40.5 39t-50 21.5t-54 6.5q-70 0 -128.5 -32.5t-100.5 -84 t-65.5 -114.5t-23.5 -123q0 -49 13.5 -92.5t38.5 -76.5t61 -52t81 -19q28 0 59.5 7.5t62.5 24t60 41t52 59.5l52 -30q-25 -40 -60.5 -70.5t-76.5 -51.5t-84 -32t-82 -11z" />
<glyph unicode="&#x10d;" horiz-adv-x="526" d="M251 710l43 20l67 -63l94 63l34 -20l-112 -86h-50zM223 -10q-46 0 -83 17.5t-62.5 47.5t-39 70t-13.5 85q0 63 25 121t67.5 102.5t99 70.5t120.5 26q71 0 116.5 -33.5t59.5 -90.5l-70 -21q-12 40 -44 62.5t-77 22.5q-44 0 -84.5 -20t-72.5 -54t-51 -80t-19 -97 q0 -36 10 -66.5t28 -53.5t43.5 -36t56.5 -13q24 0 48.5 7t46.5 19.5t39.5 28.5t26.5 34l63 -20q-16 -28 -41 -51.5t-56 -41t-66 -27t-71 -9.5z" />
<glyph unicode="&#x10e;" horiz-adv-x="690" d="M326 897l43 20l67 -63l94 63l34 -20l-112 -86h-50zM175 710h230q66 0 115 -21t81 -58t47.5 -86.5t15.5 -106.5q0 -94 -31 -174.5t-86 -139t-130 -91.5t-163 -33h-230zM267 62q75 0 135.5 30t102.5 80.5t64.5 116.5t22.5 138q0 48 -12.5 89t-38 70t-63 45.5t-87.5 16.5 h-160l-125 -586h161z" />
<glyph unicode="&#x10f;" d="M636 637l76 93h72l-106 -110zM211 -10q-44 0 -78.5 17.5t-58.5 47.5t-36.5 69.5t-12.5 83.5q0 62 24 120t64 103t92.5 72t109.5 27q62 0 103 -34.5t58 -83.5l68 318h68l-136 -641q-2 -10 -2 -12q0 -17 19 -17l-13 -60q-8 -1 -13.5 -1.5t-10.5 -0.5q-24 0 -36.5 11.5 t-12.5 28.5q0 7 2 19.5t9 43.5q-40 -51 -96.5 -81t-110.5 -30zM239 50q24 0 52.5 10t55.5 27.5t48.5 41t31.5 50.5l33 161q-3 27 -16 50.5t-32 41.5t-43 28t-49 10q-45 0 -86 -22.5t-71.5 -58t-48.5 -80.5t-18 -90q0 -35 10 -65.5t29 -53.5t45 -36.5t59 -13.5z" />
<glyph unicode="&#x110;" horiz-adv-x="697" d="M55 384h57l70 326h230q66 0 115 -21t81 -58t47.5 -86.5t15.5 -106.5q0 -94 -31 -174.5t-86 -139t-130 -91.5t-163 -33h-230l70 330h-58zM274 62q75 0 135.5 30t102.5 80.5t64.5 116.5t22.5 138q0 48 -12.5 89t-38 70t-63 45.5t-87.5 16.5h-160l-57 -264h161l-11 -54h-161 l-57 -268h161z" />
<glyph unicode="&#x111;" d="M429 656h99l16 74h68l-16 -74h75l-9 -46h-76l-110 -521q-2 -10 -2 -12q0 -17 19 -17l-13 -60q-8 -1 -13.5 -1.5t-10.5 -0.5q-24 0 -36.5 11.5t-12.5 28.5q0 7 2 19.5t9 43.5q-40 -51 -96.5 -81t-110.5 -30q-44 0 -78.5 17.5t-58.5 47.5t-36.5 69.5t-12.5 83.5 q0 62 24 120t64 103t92.5 72t109.5 27q62 0 103 -34.5t58 -83.5l42 198h-99zM239 50q24 0 52.5 10t55.5 27.5t48.5 41t31.5 50.5l33 161q-3 27 -16 50.5t-32 41.5t-43 28t-49 10q-45 0 -86 -22.5t-71.5 -58t-48.5 -80.5t-18 -90q0 -35 10 -65.5t29 -53.5t45 -36.5t59 -13.5z " />
<glyph unicode="&#x112;" horiz-adv-x="582" d="M175 710h445l-13 -62h-376l-55 -256h328l-12 -59h-328l-58 -271h385l-13 -62h-454zM289 849l10 47h275l-10 -47h-275z" />
<glyph unicode="&#x113;" horiz-adv-x="534" d="M226 -10q-48 0 -85.5 17t-63 47t-39 70t-13.5 86q0 62 24 119.5t66 102t99.5 71.5t124.5 27q34 0 64.5 -9t53 -26.5t35.5 -44t13 -60.5q0 -77 -68 -116t-210 -39q-28 0 -60.5 1t-70.5 4q-1 -8 -1.5 -15t-0.5 -14q0 -34 9 -64.5t27 -54t45 -37t63 -13.5q24 0 49 7 t47.5 19.5t41.5 30.5t32 40l56 -17q-18 -29 -44 -53.5t-57.5 -42t-66 -27t-70.5 -9.5zM332 477q-45 0 -82 -16t-66 -42t-49 -60t-30 -70q36 -2 66.5 -3.5t58.5 -1.5q59 0 100 8t66 22t36 34t11 43q0 45 -33 65.5t-78 20.5zM222 662l10 47h275l-10 -47h-275z" />
<glyph unicode="&#x114;" horiz-adv-x="582" d="M175 710h445l-13 -62h-376l-55 -256h328l-12 -59h-328l-58 -271h385l-13 -62h-454zM420 851q20 0 40 19t29 47h40q-5 -21 -16 -39.5t-26.5 -32t-34.5 -21.5t-39 -8q-35 0 -56 22t-21 56q0 11 3 23h42q-2 -10 -2 -15q0 -21 11.5 -36t29.5 -15z" />
<glyph unicode="&#x115;" horiz-adv-x="534" d="M226 -10q-48 0 -85.5 17t-63 47t-39 70t-13.5 86q0 62 24 119.5t66 102t99.5 71.5t124.5 27q34 0 64.5 -9t53 -26.5t35.5 -44t13 -60.5q0 -77 -68 -116t-210 -39q-28 0 -60.5 1t-70.5 4q-1 -8 -1.5 -15t-0.5 -14q0 -34 9 -64.5t27 -54t45 -37t63 -13.5q24 0 49 7 t47.5 19.5t41.5 30.5t32 40l56 -17q-18 -29 -44 -53.5t-57.5 -42t-66 -27t-70.5 -9.5zM332 477q-45 0 -82 -16t-66 -42t-49 -60t-30 -70q36 -2 66.5 -3.5t58.5 -1.5q59 0 100 8t66 22t36 34t11 43q0 45 -33 65.5t-78 20.5zM357 664q20 0 40 19t29 47h40q-5 -21 -16 -39.5 t-26.5 -32t-34.5 -21.5t-39 -8q-35 0 -56 22t-21 56q0 11 3 23h42q-2 -10 -2 -15q0 -21 11.5 -36t29.5 -15z" />
<glyph unicode="&#x116;" horiz-adv-x="582" d="M175 710h445l-13 -62h-376l-55 -256h328l-12 -59h-328l-58 -271h385l-13 -62h-454zM392 820l21 97h62l-21 -97h-62z" />
<glyph unicode="&#x117;" horiz-adv-x="534" d="M226 -10q-48 0 -85.5 17t-63 47t-39 70t-13.5 86q0 62 24 119.5t66 102t99.5 71.5t124.5 27q34 0 64.5 -9t53 -26.5t35.5 -44t13 -60.5q0 -77 -68 -116t-210 -39q-28 0 -60.5 1t-70.5 4q-1 -8 -1.5 -15t-0.5 -14q0 -34 9 -64.5t27 -54t45 -37t63 -13.5q24 0 49 7 t47.5 19.5t41.5 30.5t32 40l56 -17q-18 -29 -44 -53.5t-57.5 -42t-66 -27t-70.5 -9.5zM332 477q-45 0 -82 -16t-66 -42t-49 -60t-30 -70q36 -2 66.5 -3.5t58.5 -1.5q59 0 100 8t66 22t36 34t11 43q0 45 -33 65.5t-78 20.5zM327 633l21 97h62l-21 -97h-62z" />
<glyph unicode="&#x118;" horiz-adv-x="582" d="M175 710h445l-13 -62h-376l-55 -256h328l-12 -59h-328l-58 -271h385l-13 -62h-196q-55 -32 -77 -55t-22 -46q0 -30 42 -36l-26 -38q-30 7 -45 23t-15 38q0 28 22.5 55t72.5 59h-210z" />
<glyph unicode="&#x119;" horiz-adv-x="534" d="M182 -181q-30 7 -45 23t-15 38q0 27 21 53.5t69 56.5q-45 3 -80 21t-58.5 47.5t-36 68.5t-12.5 83q0 62 24 119.5t66 102t99.5 71.5t124.5 27q34 0 64.5 -9t53 -26.5t35.5 -44t13 -60.5q0 -77 -68 -116t-210 -39q-28 0 -60.5 1t-70.5 4q-1 -8 -1.5 -15t-0.5 -14 q0 -34 9 -64.5t27 -54t45 -37t63 -13.5q24 0 49 7t47.5 19.5t41.5 30.5t32 40l56 -17q-32 -51 -86 -86t-116 -43q-53 -32 -74.5 -54.5t-21.5 -45.5q0 -30 42 -36zM332 477q-45 0 -82 -16t-66 -42t-49 -60t-30 -70q36 -2 66.5 -3.5t58.5 -1.5q59 0 100 8t66 22t36 34t11 43 q0 45 -33 65.5t-78 20.5z" />
<glyph unicode="&#x11a;" horiz-adv-x="582" d="M313 897l43 20l67 -63l94 63l34 -20l-112 -86h-50zM175 710h445l-13 -62h-376l-55 -256h328l-12 -59h-328l-58 -271h385l-13 -62h-454z" />
<glyph unicode="&#x11b;" horiz-adv-x="534" d="M252 710l43 20l67 -63l94 63l34 -20l-112 -86h-50zM226 -10q-48 0 -85.5 17t-63 47t-39 70t-13.5 86q0 62 24 119.5t66 102t99.5 71.5t124.5 27q34 0 64.5 -9t53 -26.5t35.5 -44t13 -60.5q0 -77 -68 -116t-210 -39q-28 0 -60.5 1t-70.5 4q-1 -8 -1.5 -15t-0.5 -14 q0 -34 9 -64.5t27 -54t45 -37t63 -13.5q24 0 49 7t47.5 19.5t41.5 30.5t32 40l56 -17q-18 -29 -44 -53.5t-57.5 -42t-66 -27t-70.5 -9.5zM332 477q-45 0 -82 -16t-66 -42t-49 -60t-30 -70q36 -2 66.5 -3.5t58.5 -1.5q59 0 100 8t66 22t36 34t11 43q0 45 -33 65.5t-78 20.5z " />
<glyph unicode="&#x11c;" horiz-adv-x="687" d="M351 832l113 85h50l75 -85l-42 -21l-68 63l-94 -63zM532 103q-115 -108 -237 -108q-58 0 -104 24.5t-78 66t-49 95t-17 111.5q0 80 33 156t88.5 135.5t127 95.5t149.5 36q49 0 87 -11.5t66 -32t45.5 -49t26.5 -62.5l-62 -36q-18 66 -64.5 97t-113.5 31q-64 0 -121 -31.5 t-99.5 -82.5t-67.5 -114.5t-25 -127.5q0 -49 14 -92t39.5 -75.5t61.5 -51.5t81 -19q57 0 115 28.5t119 89.5l26 119h-148l11 54h208l-74 -349h-60z" />
<glyph unicode="&#x11d;" horiz-adv-x="592" d="M233 645l113 85h50l75 -85l-42 -21l-68 63l-94 -63zM165 -223q-43 0 -75 8.5t-56 23.5t-40.5 37t-26.5 49l48 33q19 -50 62 -73.5t99 -23.5q36 0 70 10.5t62.5 31t49 52t29.5 73.5l22 103q-19 -25 -43 -45t-51 -34t-55 -21.5t-55 -7.5q-43 0 -76.5 17.5t-57 47 t-35.5 68.5t-12 82q0 61 24 119t64.5 103t93.5 72.5t112 27.5q64 0 103 -33.5t62 -84.5l23 109h60l-111 -523q-12 -55 -40 -96.5t-67 -69t-86 -41.5t-97 -14zM237 50q28 0 58 11t56 29.5t46 41.5t29 47l34 161q-4 28 -17 52t-31.5 41t-42.5 27t-50 10q-47 0 -88 -23 t-71.5 -59.5t-48 -81t-17.5 -87.5q0 -35 10 -65.5t29 -53.5t45.5 -36.5t58.5 -13.5z" />
<glyph unicode="&#x11e;" horiz-adv-x="687" d="M532 103q-115 -108 -237 -108q-58 0 -104 24.5t-78 66t-49 95t-17 111.5q0 80 33 156t88.5 135.5t127 95.5t149.5 36q49 0 87 -11.5t66 -32t45.5 -49t26.5 -62.5l-62 -36q-18 66 -64.5 97t-113.5 31q-64 0 -121 -31.5t-99.5 -82.5t-67.5 -114.5t-25 -127.5q0 -49 14 -92 t39.5 -75.5t61.5 -51.5t81 -19q57 0 115 28.5t119 89.5l26 119h-148l11 54h208l-74 -349h-60zM467 851q20 0 40 19t29 47h40q-5 -21 -16 -39.5t-26.5 -32t-34.5 -21.5t-39 -8q-35 0 -56 22t-21 56q0 11 3 23h42q-2 -10 -2 -15q0 -21 11.5 -36t29.5 -15z" />
<glyph unicode="&#x11f;" horiz-adv-x="592" d="M165 -223q-43 0 -75 8.5t-56 23.5t-40.5 37t-26.5 49l48 33q19 -50 62 -73.5t99 -23.5q36 0 70 10.5t62.5 31t49 52t29.5 73.5l22 103q-19 -25 -43 -45t-51 -34t-55 -21.5t-55 -7.5q-43 0 -76.5 17.5t-57 47t-35.5 68.5t-12 82q0 61 24 119t64.5 103t93.5 72.5t112 27.5 q64 0 103 -33.5t62 -84.5l23 109h60l-111 -523q-12 -55 -40 -96.5t-67 -69t-86 -41.5t-97 -14zM237 50q28 0 58 11t56 29.5t46 41.5t29 47l34 161q-4 28 -17 52t-31.5 41t-42.5 27t-50 10q-47 0 -88 -23t-71.5 -59.5t-48 -81t-17.5 -87.5q0 -35 10 -65.5t29 -53.5 t45.5 -36.5t58.5 -13.5zM344 664q20 0 40 19t29 47h40q-5 -21 -16 -39.5t-26.5 -32t-34.5 -21.5t-39 -8q-35 0 -56 22t-21 56q0 11 3 23h42q-2 -10 -2 -15q0 -21 11.5 -36t29.5 -15z" />
<glyph unicode="&#x120;" horiz-adv-x="687" d="M532 103q-115 -108 -237 -108q-58 0 -104 24.5t-78 66t-49 95t-17 111.5q0 80 33 156t88.5 135.5t127 95.5t149.5 36q49 0 87 -11.5t66 -32t45.5 -49t26.5 -62.5l-62 -36q-18 66 -64.5 97t-113.5 31q-64 0 -121 -31.5t-99.5 -82.5t-67.5 -114.5t-25 -127.5q0 -49 14 -92 t39.5 -75.5t61.5 -51.5t81 -19q57 0 115 28.5t119 89.5l26 119h-148l11 54h208l-74 -349h-60zM440 820l21 97h62l-21 -97h-62z" />
<glyph unicode="&#x121;" horiz-adv-x="592" d="M165 -223q-43 0 -75 8.5t-56 23.5t-40.5 37t-26.5 49l48 33q19 -50 62 -73.5t99 -23.5q36 0 70 10.5t62.5 31t49 52t29.5 73.5l22 103q-19 -25 -43 -45t-51 -34t-55 -21.5t-55 -7.5q-43 0 -76.5 17.5t-57 47t-35.5 68.5t-12 82q0 61 24 119t64.5 103t93.5 72.5t112 27.5 q64 0 103 -33.5t62 -84.5l23 109h60l-111 -523q-12 -55 -40 -96.5t-67 -69t-86 -41.5t-97 -14zM237 50q28 0 58 11t56 29.5t46 41.5t29 47l34 161q-4 28 -17 52t-31.5 41t-42.5 27t-50 10q-47 0 -88 -23t-71.5 -59.5t-48 -81t-17.5 -87.5q0 -35 10 -65.5t29 -53.5 t45.5 -36.5t58.5 -13.5zM311 633l21 97h62l-21 -97h-62z" />
<glyph unicode="&#x122;" horiz-adv-x="687" d="M225 -199l32 74h-20l17 76h61l-16 -76l-40 -74h-34zM532 103q-115 -108 -237 -108q-58 0 -104 24.5t-78 66t-49 95t-17 111.5q0 80 33 156t88.5 135.5t127 95.5t149.5 36q49 0 87 -11.5t66 -32t45.5 -49t26.5 -62.5l-62 -36q-18 66 -64.5 97t-113.5 31q-64 0 -121 -31.5 t-99.5 -82.5t-67.5 -114.5t-25 -127.5q0 -49 14 -92t39.5 -75.5t61.5 -51.5t81 -19q57 0 115 28.5t119 89.5l26 119h-148l11 54h208l-74 -349h-60z" />
<glyph unicode="&#x123;" horiz-adv-x="592" d="M397 740l-32 -74h20l-17 -76h-61l16 76l40 74h34zM165 -223q-43 0 -75 8.5t-56 23.5t-40.5 37t-26.5 49l48 33q19 -50 62 -73.5t99 -23.5q36 0 70 10.5t62.5 31t49 52t29.5 73.5l22 103q-19 -25 -43 -45t-51 -34t-55 -21.5t-55 -7.5q-43 0 -76.5 17.5t-57 47t-35.5 68.5 t-12 82q0 61 24 119t64.5 103t93.5 72.5t112 27.5q64 0 103 -33.5t62 -84.5l23 109h60l-111 -523q-12 -55 -40 -96.5t-67 -69t-86 -41.5t-97 -14zM237 50q28 0 58 11t56 29.5t46 41.5t29 47l34 161q-4 28 -17 52t-31.5 41t-42.5 27t-50 10q-47 0 -88 -23t-71.5 -59.5 t-48 -81t-17.5 -87.5q0 -35 10 -65.5t29 -53.5t45.5 -36.5t58.5 -13.5z" />
<glyph unicode="&#x124;" horiz-adv-x="709" d="M346 832l113 85h50l75 -85l-42 -21l-68 63l-94 -63zM175 710h69l-67 -316h395l67 316h70l-151 -710h-70l71 332h-395l-71 -332h-69z" />
<glyph unicode="&#x125;" horiz-adv-x="559" d="M278 645l107 84h48l71 -84l-40 -21l-65 63l-89 -63zM164 730h68l-70 -327q42 59 101.5 93t120.5 34q64 0 91.5 -35.5t27.5 -97.5q0 -39 -11 -92l-64 -305h-68l62 291q9 43 9 76q0 101 -85 101q-27 0 -56 -11.5t-56.5 -31.5t-51 -47t-38.5 -59l-67 -319h-68z" />
<glyph unicode="&#x126;" horiz-adv-x="719" d="M107 589h47l26 121h70l-26 -121h395l26 121h69l-26 -121h48l-9 -39h-47l-117 -550h-69l70 332h-395l-70 -332h-70l117 550h-47zM578 394l33 156h-395l-33 -156h395z" />
<glyph unicode="&#x127;" horiz-adv-x="559" d="M78 656h70l16 74h68l-16 -74h104l-9 -46h-105l-44 -207q42 59 101.5 93t120.5 34q64 0 91.5 -35.5t27.5 -97.5q0 -20 -3 -43t-8 -49l-64 -305h-68l62 291q9 45 9 76q0 101 -85 101q-27 0 -56 -11.5t-56.5 -31.5t-51 -47t-38.5 -59l-67 -319h-68l129 610h-69z" />
<glyph unicode="&#x128;" horiz-adv-x="245" d="M175 709h69l-151 -709h-69zM291 825q-21 0 -35.5 6t-26.5 13.5t-24 14t-27 6.5t-26 -7t-17.5 -15.5t-10 -16t-3.5 -9.5h-42q1 5 8 20.5t20 31.5t33 28.5t47 12.5q20 0 33.5 -6.5t25.5 -14.5t24 -14.5t30 -6.5t30.5 7t19.5 16t10.5 16.5t3.5 9.5h42q-1 -5 -8 -20t-21 -31 t-35 -28.5t-51 -12.5z" />
<glyph unicode="&#x129;" horiz-adv-x="213" d="M119 521h68l-110 -521h-68zM230 638q-21 0 -35.5 6t-26.5 13.5t-24 14t-27 6.5t-26 -7t-17.5 -15.5t-10 -16t-3.5 -9.5h-42q1 5 8 20.5t20 31.5t33 28.5t47 12.5q20 0 33.5 -6.5t25.5 -14.5t24 -14.5t30 -6.5t30.5 7t19.5 16t10.5 16.5t3.5 9.5h42q-1 -5 -8 -20t-21 -31 t-35 -28.5t-51 -12.5z" />
<glyph unicode="&#x12a;" horiz-adv-x="245" d="M175 709h69l-151 -709h-69zM101 849l10 47h275l-10 -47h-275z" />
<glyph unicode="&#x12b;" horiz-adv-x="213" d="M119 521h68l-110 -521h-68zM38 662l10 47h275l-10 -47h-275z" />
<glyph unicode="&#x12c;" horiz-adv-x="245" d="M175 709h69l-151 -709h-69zM227 851q20 0 40 19t29 47h40q-5 -21 -16 -39.5t-26.5 -32t-34.5 -21.5t-39 -8q-35 0 -56 22t-21 56q0 11 3 23h42q-2 -10 -2 -15q0 -21 11.5 -36t29.5 -15z" />
<glyph unicode="&#x12d;" horiz-adv-x="213" d="M119 521h68l-110 -521h-68zM173 664q20 0 40 19t29 47h40q-5 -21 -16 -39.5t-26.5 -32t-34.5 -21.5t-39 -8q-35 0 -56 22t-21 56q0 11 3 23h42q-2 -10 -2 -15q0 -21 11.5 -36t29.5 -15z" />
<glyph unicode="&#x12e;" horiz-adv-x="245" d="M175 709h69l-151 -709q-55 -32 -77 -55t-22 -46q0 -30 42 -36l-26 -38q-30 7 -45 23t-15 38q0 28 22.5 55t72.5 59h-21z" />
<glyph unicode="&#x12f;" horiz-adv-x="213" d="M119 521h68l-110 -521q-55 -32 -77 -55t-22 -46q0 -30 42 -36l-26 -38q-30 7 -45 23t-15 38q0 28 22.5 55t72.5 59h-20zM164 730h68l-21 -100h-68z" />
<glyph unicode="&#x130;" horiz-adv-x="245" d="M175 709h69l-151 -709h-69zM200 820l21 97h62l-21 -97h-62z" />
<glyph unicode="&#x131;" horiz-adv-x="213" d="M119 521h68l-110 -521h-68z" />
<glyph unicode="&#x132;" horiz-adv-x="713" d="M175 709h69l-151 -709h-69zM345 -11q-85 0 -137 44l31 56q17 -15 47.5 -26t71.5 -11q51 0 85.5 19.5t58.5 57.5t40.5 93.5t31.5 126.5l77 360h70l-77 -360q-17 -81 -38 -147.5t-54.5 -113.5t-83 -73t-123.5 -26z" />
<glyph unicode="&#x133;" horiz-adv-x="433" d="M119 521h68l-110 -521h-68zM164 730h68l-21 -100h-68zM110 -181q-32 0 -58 9t-43 30l43 46q11 -14 28.5 -19t35.5 -5q16 0 33 7t32 19.5t26 29.5t15 37l117 548h68l-116 -544q-8 -35 -26.5 -64t-43 -50t-54 -32.5t-57.5 -11.5zM383 730h68l-22 -100h-68z" />
<glyph unicode="&#x134;" horiz-adv-x="468" d="M345 832l113 85h50l75 -85l-42 -21l-68 63l-94 -63zM100 -11q-85 0 -137 44l31 56q17 -15 47.5 -26t71.5 -11q51 0 85.5 19.5t58.5 57.5t40.5 93.5t31.5 126.5l77 360h70l-77 -360q-17 -81 -38 -147.5t-54.5 -113.5t-83 -73t-123.5 -26z" />
<glyph unicode="&#x135;" horiz-adv-x="213" d="M-110 -181q-32 0 -57.5 9t-42.5 30l42 46q11 -14 28.5 -19t35.5 -5q16 0 33.5 7t32.5 19.5t26 29.5t15 37l116 548h68l-116 -544q-7 -35 -25.5 -64t-43.5 -50t-54.5 -32.5t-57.5 -11.5zM57 645l113 85h50l75 -85l-42 -21l-68 63l-94 -63z" />
<glyph unicode="&#x136;" horiz-adv-x="615" d="M195 -199l32 74h-20l17 76h61l-16 -76l-40 -74h-34zM175 709h69l-88 -412l455 413h78l-342 -312l205 -398h-78l-179 357l-155 -139l-47 -218h-69z" />
<glyph unicode="&#x137;" horiz-adv-x="536" d="M143 -199l32 74h-20l17 76h61l-16 -76l-40 -74h-34zM164 730h68l-76 -358q51 70 113 114.5t133 44.5q56 0 83 -28.5t27 -76.5q0 -65 -47.5 -117.5t-137.5 -82.5l117 -226h-74l-124 255q100 21 151.5 66t51.5 96q0 30 -17.5 44t-46.5 14q-33 0 -67.5 -15.5t-67.5 -43.5 t-63.5 -67t-54.5 -87l-55 -262h-68z" />
<glyph unicode="&#x138;" horiz-adv-x="508" d="M119 521h68l-61 -287l336 286h75l-246 -213l145 -307h-74l-124 267l-127 -104l-34 -163h-68z" />
<glyph unicode="&#x139;" horiz-adv-x="557" d="M235 807l-42 17l76 93h71zM175 710h69l-138 -648h388l-13 -62h-457z" />
<glyph unicode="&#x13a;" horiz-adv-x="264" d="M209 773l-42 17l76 93h71zM107 -6q-37 0 -58 19t-21 54q0 6 1 13t3 15l134 635h68l-130 -612q-1 -5 -1.5 -9t-0.5 -9q0 -44 47 -44q11 0 26 3t29 8l-2 -55q-20 -8 -47.5 -13t-47.5 -5z" />
<glyph unicode="&#x13b;" horiz-adv-x="557" d="M185 -199l32 74h-20l17 76h61l-16 -76l-40 -74h-34zM175 710h69l-138 -648h388l-13 -62h-457z" />
<glyph unicode="&#x13c;" horiz-adv-x="264" d="M33 -199l32 74h-20l17 76h61l-16 -76l-40 -74h-34zM107 -6q-37 0 -58 19t-21 54q0 6 1 13t3 15l134 635h68l-130 -612q-1 -5 -1.5 -9t-0.5 -9q0 -44 47 -44q11 0 26 3t29 8l-2 -55q-20 -8 -47.5 -13t-47.5 -5z" />
<glyph unicode="&#x13d;" horiz-adv-x="557" d="M298 637l76 93h72l-106 -110zM175 710h69l-138 -648h388l-13 -62h-457z" />
<glyph unicode="&#x13e;" horiz-adv-x="255" d="M269 637l76 93h72l-106 -110zM107 -6q-37 0 -58 19t-21 54q0 6 1 13t3 15l134 635h68l-130 -612q-1 -5 -1.5 -9t-0.5 -9q0 -44 47 -44q11 0 26 3t29 8l-2 -55q-20 -8 -47.5 -13t-47.5 -5z" />
<glyph unicode="&#x13f;" horiz-adv-x="557" d="M175 710h69l-138 -648h388l-13 -62h-457zM329 348l23 112h58l-23 -112h-58z" />
<glyph unicode="&#x140;" horiz-adv-x="300" d="M107 -6q-37 0 -58 19t-21 54q0 6 1 13t3 15l134 635h68l-130 -612q-1 -5 -1.5 -9t-0.5 -9q0 -44 47 -44q11 0 26 3t29 8l-2 -55q-20 -8 -47.5 -13t-47.5 -5zM221 263l23 112h58l-23 -112h-58z" />
<glyph unicode="&#x141;" horiz-adv-x="564" d="M12 269l90 66l80 375h70l-67 -314l172 126l13 -39l-197 -145l-59 -276h387l-13 -62h-457l59 277l-65 -48z" />
<glyph unicode="&#x142;" horiz-adv-x="282" d="M17 328l96 67l71 335h68l-60 -279l100 70l15 -39l-127 -89l-55 -261q-2 -11 -3.5 -18.5t-1.5 -13.5q0 -44 47 -44q11 0 26.5 3t29.5 8l-2 -55q-20 -8 -48 -13t-48 -5q-38 0 -58.5 19t-20.5 53q0 14 3 29l51 242l-69 -48z" />
<glyph unicode="&#x143;" horiz-adv-x="740" d="M480 807l-42 17l76 93h71zM175 710h54l316 -591l125 590h69l-151 -709h-59l-313 580l-123 -580h-69z" />
<glyph unicode="&#x144;" horiz-adv-x="559" d="M373 620l-42 17l76 93h71zM119 521h63l-26 -118q21 28 48.5 51.5t58 40.5t63.5 26t66 9q61 0 87 -33t26 -91q0 -23 -3.5 -47.5t-9.5 -53.5l-64 -305h-68l62 291q10 49 10 85q0 92 -78 92q-28 0 -58.5 -11t-59 -31t-52.5 -47.5t-40 -59.5l-67 -319h-68z" />
<glyph unicode="&#x145;" horiz-adv-x="740" d="M239 -199l32 74h-20l17 76h61l-16 -76l-40 -74h-34zM175 710h54l316 -591l125 590h69l-151 -709h-59l-313 580l-123 -580h-69z" />
<glyph unicode="&#x146;" horiz-adv-x="559" d="M146 -199l32 74h-20l17 76h61l-16 -76l-40 -74h-34zM119 521h63l-26 -118q21 28 48.5 51.5t58 40.5t63.5 26t66 9q61 0 87 -33t26 -91q0 -23 -3.5 -47.5t-9.5 -53.5l-64 -305h-68l62 291q10 49 10 85q0 92 -78 92q-28 0 -58.5 -11t-59 -31t-52.5 -47.5t-40 -59.5 l-67 -319h-68z" />
<glyph unicode="&#x147;" horiz-adv-x="740" d="M372 897l43 20l67 -63l94 63l34 -20l-112 -86h-50zM175 710h54l316 -591l125 590h69l-151 -709h-59l-313 580l-123 -580h-69z" />
<glyph unicode="&#x148;" horiz-adv-x="559" d="M244 710l43 20l67 -63l94 63l34 -20l-112 -86h-50zM119 521h63l-26 -118q21 28 48.5 51.5t58 40.5t63.5 26t66 9q61 0 87 -33t26 -91q0 -23 -3.5 -47.5t-9.5 -53.5l-64 -305h-68l62 291q10 49 10 85q0 92 -78 92q-28 0 -58.5 -11t-59 -31t-52.5 -47.5t-40 -59.5l-67 -319 h-68z" />
<glyph unicode="&#x149;" horiz-adv-x="559" d="M-20 637l48 59l6 34h93l-106 -110zM119 521h63l-26 -118q21 28 48.5 51.5t58 40.5t63.5 26t66 9q61 0 87 -33t26 -91q0 -23 -3.5 -47.5t-9.5 -53.5l-64 -305h-68l62 291q10 49 10 85q0 92 -78 92q-28 0 -58.5 -11t-59 -31t-52.5 -47.5t-40 -59.5l-67 -319h-68z" />
<glyph unicode="&#x14a;" horiz-adv-x="736" d="M396 -181q-31 0 -57 9t-43 30l43 46q11 -14 28 -19t35 -5q16 0 33.5 7t32.5 19.5t26 29.5t15 37l8 36l-301 570l-123 -579h-69l151 710h53l311 -588l125 587h70l-156 -734q-8 -35 -26.5 -63.5t-44 -49t-54.5 -32t-57 -11.5z" />
<glyph unicode="&#x14b;" horiz-adv-x="559" d="M242 -181q-32 0 -58 9t-43 30l43 46q11 -14 28 -19t35 -5q16 0 33 7t32 19.5t26.5 29.5t15.5 37l68 318q10 49 10 85q0 92 -78 92q-28 0 -58.5 -11t-59 -31t-52.5 -47.5t-40 -59.5l-67 -319h-68l110 521h63l-26 -118q21 28 48.5 51.5t58 40.5t63.5 26t66 9q61 0 87 -33 t26 -91q0 -23 -3.5 -47.5t-9.5 -53.5l-69 -328q-7 -35 -25.5 -64t-44 -50t-54.5 -32.5t-57 -11.5z" />
<glyph unicode="&#x14c;" horiz-adv-x="722" d="M343 849l10 47h275l-10 -47h-275zM296 -5q-60 0 -106.5 24.5t-78.5 65t-48.5 93.5t-16.5 110q0 81 34 158t90.5 137t129 96t150.5 36q60 0 106 -25t77.5 -66t48 -94t16.5 -110q0 -81 -33.5 -157.5t-89.5 -136t-128.5 -95.5t-150.5 -36zM310 58q66 0 123.5 32t101 83.5 t68.5 115t25 126.5q0 47 -13 90t-37.5 75.5t-60.5 51.5t-81 19q-66 0 -124 -32t-101.5 -83t-68.5 -114.5t-25 -127.5q0 -47 12.5 -90t37.5 -75.5t60.5 -51.5t82.5 -19z" />
<glyph unicode="&#x14d;" horiz-adv-x="573" d="M223 662l10 47h275l-10 -47h-275zM220 -10q-46 0 -82.5 17.5t-61.5 47t-38.5 69t-13.5 84.5q0 63 25.5 121t68.5 102.5t99 71.5t118 27q46 0 82 -17.5t61.5 -47t39 -69.5t13.5 -85q0 -62 -25.5 -120t-68 -102.5t-99 -71.5t-118.5 -27zM233 50q42 0 83 20.5t73 55t52 80 t20 96.5q0 35 -10 66t-28.5 53.5t-44 35.5t-56.5 13q-42 0 -82.5 -20.5t-73 -55.5t-52.5 -81t-20 -97q0 -35 10 -65.5t28.5 -53t44 -35t56.5 -12.5z" />
<glyph unicode="&#x14e;" horiz-adv-x="722" d="M296 -5q-60 0 -106.5 24.5t-78.5 65t-48.5 93.5t-16.5 110q0 81 34 158t90.5 137t129 96t150.5 36q60 0 106 -25t77.5 -66t48 -94t16.5 -110q0 -81 -33.5 -157.5t-89.5 -136t-128.5 -95.5t-150.5 -36zM310 58q66 0 123.5 32t101 83.5t68.5 115t25 126.5q0 47 -13 90 t-37.5 75.5t-60.5 51.5t-81 19q-66 0 -124 -32t-101.5 -83t-68.5 -114.5t-25 -127.5q0 -47 12.5 -90t37.5 -75.5t60.5 -51.5t82.5 -19zM472 851q20 0 40 19t29 47h40q-5 -21 -16 -39.5t-26.5 -32t-34.5 -21.5t-39 -8q-35 0 -56 22t-21 56q0 11 3 23h42q-2 -10 -2 -15 q0 -21 11.5 -36t29.5 -15z" />
<glyph unicode="&#x14f;" horiz-adv-x="573" d="M220 -10q-46 0 -82.5 17.5t-61.5 47t-38.5 69t-13.5 84.5q0 63 25.5 121t68.5 102.5t99 71.5t118 27q46 0 82 -17.5t61.5 -47t39 -69.5t13.5 -85q0 -62 -25.5 -120t-68 -102.5t-99 -71.5t-118.5 -27zM233 50q42 0 83 20.5t73 55t52 80t20 96.5q0 35 -10 66t-28.5 53.5 t-44 35.5t-56.5 13q-42 0 -82.5 -20.5t-73 -55.5t-52.5 -81t-20 -97q0 -35 10 -65.5t28.5 -53t44 -35t56.5 -12.5zM357 664q20 0 40 19t29 47h40q-5 -21 -16 -39.5t-26.5 -32t-34.5 -21.5t-39 -8q-35 0 -56 22t-21 56q0 11 3 23h42q-2 -10 -2 -15q0 -21 11.5 -36t29.5 -15z " />
<glyph unicode="&#x150;" horiz-adv-x="722" d="M405 807l-33 17l73 93h63zM526 807l-32 17l73 93h62zM296 -5q-60 0 -106.5 24.5t-78.5 65t-48.5 93.5t-16.5 110q0 81 34 158t90.5 137t129 96t150.5 36q60 0 106 -25t77.5 -66t48 -94t16.5 -110q0 -81 -33.5 -157.5t-89.5 -136t-128.5 -95.5t-150.5 -36zM310 58 q66 0 123.5 32t101 83.5t68.5 115t25 126.5q0 47 -13 90t-37.5 75.5t-60.5 51.5t-81 19q-66 0 -124 -32t-101.5 -83t-68.5 -114.5t-25 -127.5q0 -47 12.5 -90t37.5 -75.5t60.5 -51.5t82.5 -19z" />
<glyph unicode="&#x151;" horiz-adv-x="573" d="M278 620l-33 17l73 93h63zM399 620l-32 17l73 93h62zM220 -10q-46 0 -82.5 17.5t-61.5 47t-38.5 69t-13.5 84.5q0 63 25.5 121t68.5 102.5t99 71.5t118 27q46 0 82 -17.5t61.5 -47t39 -69.5t13.5 -85q0 -62 -25.5 -120t-68 -102.5t-99 -71.5t-118.5 -27zM233 50 q42 0 83 20.5t73 55t52 80t20 96.5q0 35 -10 66t-28.5 53.5t-44 35.5t-56.5 13q-42 0 -82.5 -20.5t-73 -55.5t-52.5 -81t-20 -97q0 -35 10 -65.5t28.5 -53t44 -35t56.5 -12.5z" />
<glyph unicode="&#x152;" horiz-adv-x="1098" d="M297 -5q-60 0 -107 24.5t-79 65t-48.5 93.5t-16.5 110q0 81 34 158t90.5 137t129 96t150.5 36q43 0 78 -14.5t61.5 -39.5t43.5 -59t25 -72l38 180h441l-14 -62h-371l-53 -255h319l-14 -62h-319l-57 -269h379l-13 -62h-449l39 180q-25 -39 -57 -73t-69.5 -59t-78 -39 t-82.5 -14zM309 58q66 0 123.5 32t101 83.5t68.5 115t25 126.5q0 47 -13 90t-37.5 75.5t-60 52t-80.5 19.5q-66 0 -124 -32t-101.5 -83t-68.5 -115t-25 -128q0 -47 12.5 -90t37 -75.5t60.5 -51.5t82 -19z" />
<glyph unicode="&#x153;" horiz-adv-x="985" d="M219 -10q-44 0 -80 16.5t-61.5 45.5t-39.5 68.5t-14 85.5q0 66 26 125t69.5 103t100 70t116.5 26q72 0 118.5 -44.5t56.5 -120.5q44 78 109 121.5t140 43.5q45 0 81 -15.5t61 -44.5t38 -70t13 -91q0 -35 -4 -51t-7 -22h-420q-2 -8 -2 -16.5v-16.5q0 -35 10.5 -64t30 -51 t46.5 -34t60 -12q25 0 50.5 7t48.5 19t41.5 29.5t30.5 38.5l55 -16q-19 -29 -46 -53t-58.5 -41t-66.5 -26.5t-69 -9.5q-71 0 -120 44.5t-66 118.5q-48 -76 -113 -119.5t-135 -43.5zM233 50q43 0 84 20.5t73 55t51.5 80.5t19.5 97q0 35 -10 65.5t-28 53t-43.5 35.5t-56.5 13 q-43 0 -84 -20.5t-73.5 -56t-52 -82t-19.5 -97.5q0 -35 10 -65t28 -52t43.5 -34.5t57.5 -12.5zM887 282q2 10 2 19v18q0 71 -39 114.5t-103 43.5q-36 0 -70 -14.5t-63 -40.5t-51 -62t-33 -78h357z" />
<glyph unicode="&#x154;" horiz-adv-x="628" d="M404 809l-42 17l76 93h71zM24 0l151 710h285q37 0 67 -15.5t50 -41.5t31 -59.5t11 -68.5q0 -43 -16 -84.5t-43 -75.5t-63.5 -58.5t-77.5 -32.5l107 -274h-79l-102 262h-196l-56 -262h-69zM381 324q34 0 64.5 17t53 44.5t35.5 62t13 69.5q0 27 -7.5 50.5t-21 41.5 t-33 28.5t-42.5 10.5h-212l-69 -324h219z" />
<glyph unicode="&#x155;" horiz-adv-x="343" d="M254 620l-42 17l76 93h71zM119 521h64l-27 -125q39 57 88.5 90.5t100.5 35.5q8 0 13.5 -0.5t10.5 -1.5l-13 -59q-65 -2 -121 -38t-90 -99l-68 -324h-68z" />
<glyph unicode="&#x156;" horiz-adv-x="628" d="M183 -199l32 74h-20l17 76h61l-16 -76l-40 -74h-34zM24 0l151 710h285q37 0 67 -15.5t50 -41.5t31 -59.5t11 -68.5q0 -43 -16 -84.5t-43 -75.5t-63.5 -58.5t-77.5 -32.5l107 -274h-79l-102 262h-196l-56 -262h-69zM381 324q34 0 64.5 17t53 44.5t35.5 62t13 69.5 q0 27 -7.5 50.5t-21 41.5t-33 28.5t-42.5 10.5h-212l-69 -324h219z" />
<glyph unicode="&#x157;" horiz-adv-x="343" d="M-32 -199l32 74h-20l17 76h61l-16 -76l-40 -74h-34zM119 521h64l-27 -125q39 57 88.5 90.5t100.5 35.5q8 0 13.5 -0.5t10.5 -1.5l-13 -59q-65 -2 -121 -38t-90 -99l-68 -324h-68z" />
<glyph unicode="&#x158;" horiz-adv-x="628" d="M318 899l43 20l67 -63l94 63l34 -20l-112 -86h-50zM24 0l151 710h285q37 0 67 -15.5t50 -41.5t31 -59.5t11 -68.5q0 -43 -16 -84.5t-43 -75.5t-63.5 -58.5t-77.5 -32.5l107 -274h-79l-102 262h-196l-56 -262h-69zM381 324q34 0 64.5 17t53 44.5t35.5 62t13 69.5 q0 27 -7.5 50.5t-21 41.5t-33 28.5t-42.5 10.5h-212l-69 -324h219z" />
<glyph unicode="&#x159;" horiz-adv-x="343" d="M150 710l43 20l67 -63l94 63l34 -20l-112 -86h-50zM119 521h64l-27 -125q39 57 88.5 90.5t100.5 35.5q8 0 13.5 -0.5t10.5 -1.5l-13 -59q-65 -2 -121 -38t-90 -99l-68 -324h-68z" />
<glyph unicode="&#x15a;" horiz-adv-x="585" d="M407 823l-42 17l76 93h71zM241 -6q-159 0 -250 103l47 57q27 -41 83.5 -69.5t134.5 -28.5q91 0 144 37.5t53 108.5q0 26 -11.5 44.5t-34 33t-54.5 25t-74 21.5q-43 11 -76.5 23.5t-56.5 29.5t-35 40.5t-12 55.5q0 56 22.5 100.5t61.5 75.5t91.5 47.5t113.5 16.5 q67 0 116.5 -21.5t82.5 -60.5l-45 -56q-20 34 -64 55t-104 21q-52 0 -89.5 -12t-62 -33t-36 -49.5t-11.5 -61.5q0 -24 10 -41t30 -29.5t50 -22t70 -19.5q44 -11 80 -23.5t61.5 -31t39.5 -44.5t14 -63q0 -57 -22.5 -100t-61.5 -71.5t-91.5 -43t-113.5 -14.5z" />
<glyph unicode="&#x15b;" horiz-adv-x="468" d="M292 620l-42 17l76 93h71zM172 -10q-58 0 -109 20t-83 58l40 46q67 -72 162 -72q66 0 108.5 30.5t42.5 81.5q0 18 -8 30t-24 21.5t-40 17.5t-55 16q-36 10 -62.5 19.5t-44 21.5t-26.5 28.5t-9 39.5q0 43 18.5 77t49 57.5t71 35.5t84.5 12q57 0 99 -19.5t65 -51.5l-42 -40 q-21 30 -57.5 45t-78.5 15q-28 0 -54 -7t-45.5 -21t-31 -35t-11.5 -50q0 -32 25.5 -45.5t79.5 -27.5q81 -20 123.5 -45.5t42.5 -77.5q0 -39 -17 -72t-47.5 -57t-73 -37.5t-92.5 -13.5z" />
<glyph unicode="&#x15c;" horiz-adv-x="585" d="M298 848l113 85h50l75 -85l-42 -21l-68 63l-94 -63zM241 -6q-159 0 -250 103l47 57q27 -41 83.5 -69.5t134.5 -28.5q91 0 144 37.5t53 108.5q0 26 -11.5 44.5t-34 33t-54.5 25t-74 21.5q-43 11 -76.5 23.5t-56.5 29.5t-35 40.5t-12 55.5q0 56 22.5 100.5t61.5 75.5 t91.5 47.5t113.5 16.5q67 0 116.5 -21.5t82.5 -60.5l-45 -56q-20 34 -64 55t-104 21q-52 0 -89.5 -12t-62 -33t-36 -49.5t-11.5 -61.5q0 -24 10 -41t30 -29.5t50 -22t70 -19.5q44 -11 80 -23.5t61.5 -31t39.5 -44.5t14 -63q0 -57 -22.5 -100t-61.5 -71.5t-91.5 -43 t-113.5 -14.5z" />
<glyph unicode="&#x15d;" horiz-adv-x="468" d="M197 645l113 85h50l75 -85l-42 -21l-68 63l-94 -63zM172 -10q-58 0 -109 20t-83 58l40 46q67 -72 162 -72q66 0 108.5 30.5t42.5 81.5q0 18 -8 30t-24 21.5t-40 17.5t-55 16q-36 10 -62.5 19.5t-44 21.5t-26.5 28.5t-9 39.5q0 43 18.5 77t49 57.5t71 35.5t84.5 12 q57 0 99 -19.5t65 -51.5l-42 -40q-21 30 -57.5 45t-78.5 15q-28 0 -54 -7t-45.5 -21t-31 -35t-11.5 -50q0 -32 25.5 -45.5t79.5 -27.5q81 -20 123.5 -45.5t42.5 -77.5q0 -39 -17 -72t-47.5 -57t-73 -37.5t-92.5 -13.5z" />
<glyph unicode="&#x15e;" horiz-adv-x="586" d="M148 -126q11 -7 32.5 -12.5t46.5 -5.5q64 0 64 43q0 16 -11.5 22t-29.5 6q-20 0 -43 -4.5t-37 -9.5l59 81q-151 5 -237 103l47 57q27 -41 83.5 -69.5t134.5 -28.5q91 0 144 37.5t53 108.5q0 26 -11.5 44.5t-34 33t-54.5 25t-74 21.5q-43 11 -76.5 23.5t-56.5 29.5 t-35 40.5t-12 55.5q0 56 22.5 100.5t61.5 75.5t91.5 47.5t113.5 16.5q67 0 116.5 -21.5t82.5 -60.5l-45 -56q-20 34 -64 55t-104 21q-52 0 -89.5 -12t-62 -33t-36 -49.5t-11.5 -61.5q0 -24 10 -41t30 -29.5t50 -22t70 -19.5q44 -11 80 -23.5t61.5 -31t39.5 -44.5t14 -63 q0 -54 -20 -95.5t-55.5 -70t-84 -44t-104.5 -18.5l-36 -46q9 4 19 5t18 1q29 0 45 -12.5t16 -36.5q0 -38 -29.5 -60t-85.5 -22q-27 0 -50 5.5t-40 13.5z" />
<glyph unicode="&#x15f;" horiz-adv-x="468" d="M74 -126q11 -7 32.5 -12.5t46.5 -5.5q64 0 64 43q0 16 -11.5 22t-29.5 6q-20 0 -43 -4.5t-37 -9.5l56 78q-52 3 -97.5 22.5t-74.5 54.5l40 46q67 -72 162 -72q66 0 108.5 30.5t42.5 81.5q0 18 -8 30t-24 21.5t-40 17.5t-55 16q-36 10 -62.5 19.5t-44 21.5t-26.5 28.5 t-9 39.5q0 43 18.5 77t49 57.5t71 35.5t84.5 12q57 0 99 -19.5t65 -51.5l-42 -40q-21 30 -57.5 45t-78.5 15q-28 0 -54 -7t-45.5 -21t-31 -35t-11.5 -50q0 -32 25.5 -45.5t79.5 -27.5q81 -20 123.5 -45.5t42.5 -77.5q0 -38 -15.5 -69.5t-43.5 -55t-67 -38t-86 -16.5l-33 -42 q9 4 19 5t18 1q29 0 45 -12.5t16 -36.5q0 -38 -29.5 -60t-85.5 -22q-27 0 -50 5.5t-40 13.5z" />
<glyph unicode="&#x160;" horiz-adv-x="585" d="M305 913l43 20l67 -63l94 63l34 -20l-112 -86h-50zM241 -6q-159 0 -250 103l47 57q27 -41 83.5 -69.5t134.5 -28.5q91 0 144 37.5t53 108.5q0 26 -11.5 44.5t-34 33t-54.5 25t-74 21.5q-43 11 -76.5 23.5t-56.5 29.5t-35 40.5t-12 55.5q0 56 22.5 100.5t61.5 75.5 t91.5 47.5t113.5 16.5q67 0 116.5 -21.5t82.5 -60.5l-45 -56q-20 34 -64 55t-104 21q-52 0 -89.5 -12t-62 -33t-36 -49.5t-11.5 -61.5q0 -24 10 -41t30 -29.5t50 -22t70 -19.5q44 -11 80 -23.5t61.5 -31t39.5 -44.5t14 -63q0 -57 -22.5 -100t-61.5 -71.5t-91.5 -43 t-113.5 -14.5z" />
<glyph unicode="&#x161;" horiz-adv-x="468" d="M198 710l43 20l67 -63l94 63l34 -20l-112 -86h-50zM172 -10q-58 0 -109 20t-83 58l40 46q67 -72 162 -72q66 0 108.5 30.5t42.5 81.5q0 18 -8 30t-24 21.5t-40 17.5t-55 16q-36 10 -62.5 19.5t-44 21.5t-26.5 28.5t-9 39.5q0 43 18.5 77t49 57.5t71 35.5t84.5 12 q57 0 99 -19.5t65 -51.5l-42 -40q-21 30 -57.5 45t-78.5 15q-28 0 -54 -7t-45.5 -21t-31 -35t-11.5 -50q0 -32 25.5 -45.5t79.5 -27.5q81 -20 123.5 -45.5t42.5 -77.5q0 -39 -17 -72t-47.5 -57t-73 -37.5t-92.5 -13.5z" />
<glyph unicode="&#x162;" horiz-adv-x="581" d="M327 648h-238l13 62h547l-13 -62h-239l-138 -648h-10l-41 -51q9 4 19 5t18 1q29 0 45 -12.5t16 -36.5q0 -38 -29.5 -60t-85.5 -22q-27 0 -50 5.5t-40 13.5l24 31q11 -7 32.5 -12.5t46.5 -5.5q64 0 64 43q0 16 -11.5 22t-29.5 6q-20 0 -43 -4.5t-37 -9.5l63 87h-20z" />
<glyph unicode="&#x163;" horiz-adv-x="321" d="M36 -126q11 -7 32.5 -12.5t46.5 -5.5q64 0 64 43q0 16 -11.5 22t-29.5 6q-20 0 -43 -4.5t-37 -9.5l59 82q-31 4 -50 22.5t-19 51.5q0 11 3 25l79 373h-69l12 54h68l38 176h68l-38 -176h114l-12 -54h-113l-72 -339q-2 -11 -3.5 -17t-1.5 -11q0 -23 14 -33t34 -10 q27 0 50 9.5t30 13.5l6 -55q-11 -8 -38 -17.5t-61 -12.5l-37 -46q9 4 19 5t18 1q29 0 45 -12.5t16 -36.5q0 -38 -29.5 -60t-85.5 -22q-27 0 -50 5.5t-40 13.5z" />
<glyph unicode="&#x164;" horiz-adv-x="582" d="M291 897l43 20l67 -63l94 63l34 -20l-112 -86h-50zM328 648h-238l13 62h547l-13 -62h-239l-138 -648h-69z" />
<glyph unicode="&#x165;" horiz-adv-x="321" d="M291 637l76 93h72l-106 -110zM135 -6q-38 0 -62.5 18.5t-24.5 56.5q0 11 3 25l79 373h-69l12 54h68l38 176h68l-38 -176h114l-12 -54h-113l-72 -339q-2 -11 -3.5 -17t-1.5 -11q0 -23 14 -33t34 -10q27 0 50 9.5t30 13.5l6 -55q-13 -9 -46.5 -20t-73.5 -11z" />
<glyph unicode="&#x166;" horiz-adv-x="617" d="M86 405h208l52 243h-239l13 62h547l-13 -62h-239l-52 -243h208l-8 -39h-209l-77 -366h-69l78 366h-208z" />
<glyph unicode="&#x167;" horiz-adv-x="322" d="M38 353h68l24 114h-68l11 54h69l38 176h68l-38 -176h113l-11 -54h-114l-24 -114h113l-9 -46h-114l-36 -171q-6 -24 -6 -34q0 -23 14 -34t34 -11q13 0 26 3t24 6.5t19 7.5t11 6l6 -55q-14 -9 -47.5 -20t-72.5 -11q-38 0 -63 18.5t-25 56.5q0 11 3 25l45 213h-68z" />
<glyph unicode="&#x168;" horiz-adv-x="724" d="M298 -5q-62 0 -105 18.5t-69 50.5t-37.5 74.5t-11.5 91.5q0 57 14 122l76 358h69l-76 -358q-6 -29 -9.5 -56.5t-3.5 -53.5q0 -39 8.5 -72.5t28 -58t51 -39t77.5 -14.5q63 0 110.5 25.5t81 67t54.5 94.5t32 107l76 358h69l-75 -358q-15 -72 -44 -137t-73.5 -113.5 t-104.5 -77.5t-138 -29zM525 825q-21 0 -35.5 6t-26.5 13.5t-24 14t-27 6.5t-26 -7t-17.5 -15.5t-10 -16t-3.5 -9.5h-42q1 5 8 20.5t20 31.5t33 28.5t47 12.5q20 0 33.5 -6.5t25.5 -14.5t24 -14.5t30 -6.5t30.5 7t19.5 16t10.5 16.5t3.5 9.5h42q-1 -5 -8 -20t-21 -31 t-35 -28.5t-51 -12.5z" />
<glyph unicode="&#x169;" horiz-adv-x="569" d="M159 -10q-122 0 -122 134q0 20 2.5 42.5t8.5 48.5l66 306h67l-62 -294q-10 -44 -10 -78q0 -99 86 -99q28 0 57 10t56 29t51 45t42 59l70 328h68l-91 -425q-3 -12 -3 -19q0 -17 19 -17l-13 -60q-8 -1 -13.5 -1.5t-10.5 -0.5q-23 0 -35 10.5t-12 28.5q0 3 0.5 8t2 14t4 23 t7.5 36q-46 -61 -108 -94.5t-127 -33.5zM398 638q-21 0 -35.5 6t-26.5 13.5t-24 14t-27 6.5t-26 -7t-17.5 -15.5t-10 -16t-3.5 -9.5h-42q1 5 8 20.5t20 31.5t33 28.5t47 12.5q20 0 33.5 -6.5t25.5 -14.5t24 -14.5t30 -6.5t30.5 7t19.5 16t10.5 16.5t3.5 9.5h42q-1 -5 -8 -20 t-21 -31t-35 -28.5t-51 -12.5z" />
<glyph unicode="&#x16a;" horiz-adv-x="724" d="M298 -5q-62 0 -105 18.5t-69 50.5t-37.5 74.5t-11.5 91.5q0 57 14 122l76 358h69l-76 -358q-6 -29 -9.5 -56.5t-3.5 -53.5q0 -39 8.5 -72.5t28 -58t51 -39t77.5 -14.5q63 0 110.5 25.5t81 67t54.5 94.5t32 107l76 358h69l-75 -358q-15 -72 -44 -137t-73.5 -113.5 t-104.5 -77.5t-138 -29zM336 849l10 47h275l-10 -47h-275z" />
<glyph unicode="&#x16b;" horiz-adv-x="569" d="M159 -10q-122 0 -122 134q0 20 2.5 42.5t8.5 48.5l66 306h67l-62 -294q-10 -44 -10 -78q0 -99 86 -99q28 0 57 10t56 29t51 45t42 59l70 328h68l-91 -425q-3 -12 -3 -19q0 -17 19 -17l-13 -60q-8 -1 -13.5 -1.5t-10.5 -0.5q-23 0 -35 10.5t-12 28.5q0 3 0.5 8t2 14t4 23 t7.5 36q-46 -61 -108 -94.5t-127 -33.5zM207 662l10 47h275l-10 -47h-275z" />
<glyph unicode="&#x16c;" horiz-adv-x="724" d="M298 -5q-62 0 -105 18.5t-69 50.5t-37.5 74.5t-11.5 91.5q0 57 14 122l76 358h69l-76 -358q-6 -29 -9.5 -56.5t-3.5 -53.5q0 -39 8.5 -72.5t28 -58t51 -39t77.5 -14.5q63 0 110.5 25.5t81 67t54.5 94.5t32 107l76 358h69l-75 -358q-15 -72 -44 -137t-73.5 -113.5 t-104.5 -77.5t-138 -29zM467 851q20 0 40 19t29 47h40q-5 -21 -16 -39.5t-26.5 -32t-34.5 -21.5t-39 -8q-35 0 -56 22t-21 56q0 11 3 23h42q-2 -10 -2 -15q0 -21 11.5 -36t29.5 -15z" />
<glyph unicode="&#x16d;" horiz-adv-x="569" d="M159 -10q-122 0 -122 134q0 20 2.5 42.5t8.5 48.5l66 306h67l-62 -294q-10 -44 -10 -78q0 -99 86 -99q28 0 57 10t56 29t51 45t42 59l70 328h68l-91 -425q-3 -12 -3 -19q0 -17 19 -17l-13 -60q-8 -1 -13.5 -1.5t-10.5 -0.5q-23 0 -35 10.5t-12 28.5q0 3 0.5 8t2 14t4 23 t7.5 36q-46 -61 -108 -94.5t-127 -33.5zM341 664q20 0 40 19t29 47h40q-5 -21 -16 -39.5t-26.5 -32t-34.5 -21.5t-39 -8q-35 0 -56 22t-21 56q0 11 3 23h42q-2 -10 -2 -15q0 -21 11.5 -36t29.5 -15z" />
<glyph unicode="&#x16e;" horiz-adv-x="724" d="M403 839q0 35 26 56.5t61 21.5q27 0 42.5 -14.5t15.5 -38.5q0 -34 -25 -56t-62 -22q-27 0 -42.5 14.5t-15.5 38.5zM484 890q-18 0 -33 -13t-15 -33q0 -13 8.5 -22t22.5 -9q17 0 33 13t16 33q0 14 -9 22.5t-23 8.5zM298 -5q-62 0 -105 18.5t-69 50.5t-37.5 74.5 t-11.5 91.5q0 57 14 122l76 358h69l-76 -358q-6 -29 -9.5 -56.5t-3.5 -53.5q0 -39 8.5 -72.5t28 -58t51 -39t77.5 -14.5q63 0 110.5 25.5t81 67t54.5 94.5t32 107l76 358h69l-75 -358q-15 -72 -44 -137t-73.5 -113.5t-104.5 -77.5t-138 -29z" />
<glyph unicode="&#x16f;" horiz-adv-x="569" d="M273 652q0 35 26 56.5t61 21.5q27 0 42.5 -14.5t15.5 -38.5q0 -34 -25 -56t-62 -22q-27 0 -42.5 14.5t-15.5 38.5zM354 703q-18 0 -33 -13t-15 -33q0 -13 8.5 -22t22.5 -9q17 0 33 13t16 33q0 14 -9 22.5t-23 8.5zM159 -10q-122 0 -122 134q0 20 2.5 42.5t8.5 48.5 l66 306h67l-62 -294q-10 -44 -10 -78q0 -99 86 -99q28 0 57 10t56 29t51 45t42 59l70 328h68l-91 -425q-3 -12 -3 -19q0 -17 19 -17l-13 -60q-8 -1 -13.5 -1.5t-10.5 -0.5q-23 0 -35 10.5t-12 28.5q0 3 0.5 8t2 14t4 23t7.5 36q-46 -61 -108 -94.5t-127 -33.5z" />
<glyph unicode="&#x170;" horiz-adv-x="724" d="M298 -5q-62 0 -105 18.5t-69 50.5t-37.5 74.5t-11.5 91.5q0 57 14 122l76 358h69l-76 -358q-6 -29 -9.5 -56.5t-3.5 -53.5q0 -39 8.5 -72.5t28 -58t51 -39t77.5 -14.5q63 0 110.5 25.5t81 67t54.5 94.5t32 107l76 358h69l-75 -358q-15 -72 -44 -137t-73.5 -113.5 t-104.5 -77.5t-138 -29zM390 807l-33 17l73 93h63zM511 807l-32 17l73 93h62z" />
<glyph unicode="&#x171;" horiz-adv-x="569" d="M159 -10q-122 0 -122 134q0 20 2.5 42.5t8.5 48.5l66 306h67l-62 -294q-10 -44 -10 -78q0 -99 86 -99q28 0 57 10t56 29t51 45t42 59l70 328h68l-91 -425q-3 -12 -3 -19q0 -17 19 -17l-13 -60q-8 -1 -13.5 -1.5t-10.5 -0.5q-23 0 -35 10.5t-12 28.5q0 3 0.5 8t2 14t4 23 t7.5 36q-46 -61 -108 -94.5t-127 -33.5zM259 620l-33 17l73 93h63zM380 620l-32 17l73 93h62z" />
<glyph unicode="&#x172;" horiz-adv-x="724" d="M238 -176q-30 7 -45 23t-15 38q0 28 21.5 54t69.5 57q-54 4 -91 24t-60 51.5t-33 72t-10 86.5q0 57 14 122l76 358h69l-76 -358q-6 -29 -9.5 -56.5t-3.5 -53.5q0 -39 8.5 -72.5t28 -58t51 -39t77.5 -14.5q63 0 110.5 25.5t81 67t54.5 94.5t32 107l76 358h69l-75 -358 q-15 -70 -42.5 -133.5t-70 -112t-100 -78t-130.5 -32.5q-52 -31 -72.5 -53t-20.5 -45q0 -30 42 -36l-26 -38v0z" />
<glyph unicode="&#x173;" horiz-adv-x="569" d="M159 -10q-122 0 -122 134q0 20 2.5 42.5t8.5 48.5l66 306h67l-62 -294q-10 -44 -10 -78q0 -99 86 -99q28 0 57 10t56 29t51 45t42 59l70 328h68l-91 -425q-3 -12 -3 -19q0 -17 19 -17l-13 -60q-55 -32 -77 -55t-22 -46q0 -30 42 -36l-26 -38q-30 7 -45 23t-15 38 q0 29 23 56t74 59q-25 7 -25 36q0 3 0.5 8t2 14t4 23t7.5 36q-46 -61 -108 -94.5t-127 -33.5z" />
<glyph unicode="&#x174;" horiz-adv-x="997" d="M486 832l113 85h50l75 -85l-42 -21l-68 63l-94 -63zM95 710h75l108 -629l195 321l-53 303h66l40 -252l149 252h66l-182 -303l59 -321l374 629h77l-437 -710h-60l-66 351l-216 -351h-61z" />
<glyph unicode="&#x175;" horiz-adv-x="755" d="M317 645l113 85h50l75 -85l-42 -21l-68 63l-94 -63zM53 521h70l84 -458q40 48 74 97.5t63 100.5l-60 260h70l38 -173q22 45 38.5 88t28.5 85h65q-19 -65 -47 -129.5t-65 -129.5l43 -199q88 112 149.5 229t92.5 229h66q-77 -263 -287 -521h-73l-40 184q-29 -47 -62.5 -93 t-72.5 -91h-73z" />
<glyph unicode="&#x176;" horiz-adv-x="607" d="M257 266l-166 444h77l137 -382l300 382h76l-356 -446l-56 -264h-69zM285 832l113 85h50l75 -85l-42 -21l-68 63l-94 -63z" />
<glyph unicode="&#x177;" horiz-adv-x="489" d="M-36 -169q31 5 53.5 12t40 20t33 32t34.5 48l33 49l-107 529h71l84 -458l41 67q43 70 73 123t51.5 97.5t36 85t26.5 85.5h67q-14 -48 -29 -89.5t-37.5 -88t-56 -104t-83.5 -136.5l-81 -129q-35 -55 -63.5 -92t-56 -60t-56.5 -33.5t-65 -12.5zM182 645l113 85h50l75 -85 l-42 -21l-68 63l-94 -63z" />
<glyph unicode="&#x178;" horiz-adv-x="607" d="M257 266l-166 444h77l137 -382l300 382h76l-356 -446l-56 -264h-69zM305 820l21 94h58l-21 -94h-58zM449 820l20 94h57l-19 -94h-58z" />
<glyph unicode="&#x179;" horiz-adv-x="596" d="M390 807l-42 17l76 93h71zM-24 55l580 593h-446l13 62h528l-12 -55l-574 -593h447l-13 -62h-535z" />
<glyph unicode="&#x17a;" horiz-adv-x="466" d="M277 620l-42 17l76 93h71zM-26 46l419 424h-321l11 51h397l-9 -46l-417 -424h327l-12 -51h-404z" />
<glyph unicode="&#x17b;" horiz-adv-x="596" d="M-24 55l580 593h-446l13 62h528l-12 -55l-574 -593h447l-13 -62h-535zM370 820l21 97h62l-21 -97h-62z" />
<glyph unicode="&#x17c;" horiz-adv-x="466" d="M-26 46l419 424h-321l11 51h397l-9 -46l-417 -424h327l-12 -51h-404zM260 633l21 97h62l-21 -97h-62z" />
<glyph unicode="&#x17d;" horiz-adv-x="596" d="M296 897l43 20l67 -63l94 63l34 -20l-112 -86h-50zM-24 55l580 593h-446l13 62h528l-12 -55l-574 -593h447l-13 -62h-535z" />
<glyph unicode="&#x17e;" horiz-adv-x="466" d="M186 710l43 20l67 -63l94 63l34 -20l-112 -86h-50zM-26 46l419 424h-321l11 51h397l-9 -46l-417 -424h327l-12 -51h-404z" />
<glyph unicode="&#x18f;" horiz-adv-x="706" d="M282 -6q-57 0 -104 21.5t-80 59.5t-51.5 89.5t-18.5 111.5q0 38 7 65t12 42h556l2 22t1 23q0 48 -14 89t-39 70.5t-60 46t-77 16.5q-34 0 -68 -10t-65 -28.5t-57 -44t-42 -56.5l-60 30q25 38 60.5 70t76.5 55t85.5 36t88.5 13q56 0 101.5 -22.5t78 -62t50 -92.5 t17.5 -114q0 -87 -34 -165.5t-90 -137t-128 -93t-148 -34.5zM295 57q49 0 96.5 20t87 55.5t69 84t43.5 105.5h-488q-6 -29 -6 -58q0 -42 12.5 -79.5t37.5 -66t62 -45t86 -16.5z" />
<glyph unicode="&#x192;" horiz-adv-x="505" d="M37 -181q-31 0 -57 9t-43 30l42 46q11 -14 28.5 -19t35.5 -5q16 0 33.5 7t32.5 19.5t26 29.5t15 37l92 433h-69l11 54h70l15 75q20 96 71 150.5t119 54.5q29 0 55 -9t43 -24l-30 -49q-11 11 -29 17t-38 6q-45 0 -76 -37t-46 -107l-16 -77h135l-12 -54h-135l-92 -431 q-8 -35 -26.5 -63.5t-43 -49t-54 -32t-57.5 -11.5z" />
<glyph unicode="&#x1c4;" horiz-adv-x="1286" d="M985 897l43 20l67 -63l94 63l34 -20l-112 -86h-50zM666 55l580 593h-446l13 62h528l-12 -55l-574 -593h447l-13 -62h-535zM175 710h230q66 0 115 -21t81 -58t47.5 -86.5t15.5 -106.5q0 -94 -31 -174.5t-86 -139t-130 -91.5t-163 -33h-230zM267 62q75 0 135.5 30 t102.5 80.5t64.5 116.5t22.5 138q0 48 -12.5 89t-38 70t-63 45.5t-87.5 16.5h-160l-125 -586h161z" />
<glyph unicode="&#x1c5;" horiz-adv-x="1156" d="M875 710l43 20l67 -63l94 63l34 -20l-112 -86h-50zM664 46l419 424h-321l11 51h397l-9 -46l-417 -424h327l-12 -51h-404zM175 710h230q66 0 115 -21t81 -58t47.5 -86.5t15.5 -106.5q0 -94 -31 -174.5t-86 -139t-130 -91.5t-163 -33h-230zM267 62q75 0 135.5 30 t102.5 80.5t64.5 116.5t22.5 138q0 48 -12.5 89t-38 70t-63 45.5t-87.5 16.5h-160l-125 -586h161z" />
<glyph unicode="&#x1c6;" horiz-adv-x="1064" d="M784 710l43 20l67 -63l94 63l34 -20l-112 -86h-50zM572 46l419 424h-321l11 51h397l-9 -46l-417 -424h327l-12 -51h-404zM211 -10q-44 0 -78.5 17.5t-58.5 47.5t-36.5 69.5t-12.5 83.5q0 62 24 120t64 103t92.5 72t109.5 27q62 0 103 -34.5t58 -83.5l68 318h68l-136 -641 q-2 -10 -2 -12q0 -17 19 -17l-13 -60q-8 -1 -13.5 -1.5t-10.5 -0.5q-24 0 -36.5 11.5t-12.5 28.5q0 7 2 19.5t9 43.5q-40 -51 -96.5 -81t-110.5 -30zM239 50q24 0 52.5 10t55.5 27.5t48.5 41t31.5 50.5l33 161q-3 27 -16 50.5t-32 41.5t-43 28t-49 10q-45 0 -86 -22.5 t-71.5 -58t-48.5 -80.5t-18 -90q0 -35 10 -65.5t29 -53.5t45 -36.5t59 -13.5z" />
<glyph unicode="&#x1c7;" horiz-adv-x="1025" d="M657 -11q-85 0 -137 44l31 56q17 -15 47.5 -26t71.5 -11q51 0 85.5 19.5t58.5 57.5t40.5 93.5t31.5 126.5l77 360h70l-77 -360q-17 -81 -38 -147.5t-54.5 -113.5t-83 -73t-123.5 -26zM175 710h69l-138 -648h388l-13 -62h-457z" />
<glyph unicode="&#x1c8;" horiz-adv-x="777" d="M454 -181q-32 0 -58 9t-43 30l43 46q11 -14 28.5 -19t35.5 -5q16 0 33 7t32 19.5t26 29.5t15 37l117 548h68l-116 -544q-8 -35 -26.5 -64t-43 -50t-54 -32.5t-57.5 -11.5zM727 730h68l-22 -100h-68zM175 710h69l-138 -648h388l-13 -62h-457z" />
<glyph unicode="&#x1c9;" horiz-adv-x="483" d="M161 -181q-32 0 -58 9t-43 30l43 46q11 -14 28.5 -19t35.5 -5q16 0 33 7t32 19.5t26 29.5t15 37l117 548h68l-116 -544q-8 -35 -26.5 -64t-43 -50t-54 -32.5t-57.5 -11.5zM434 730h68l-22 -100h-68zM107 -6q-37 0 -58 19t-21 54q0 6 1 13t3 15l134 635h68l-130 -612 q-1 -5 -1.5 -9t-0.5 -9q0 -44 47 -44q11 0 26 3t29 8l-2 -55q-20 -8 -47.5 -13t-47.5 -5z" />
<glyph unicode="&#x1ca;" horiz-adv-x="1208" d="M840 -11q-85 0 -137 44l31 56q17 -15 47.5 -26t71.5 -11q51 0 85.5 19.5t58.5 57.5t40.5 93.5t31.5 126.5l77 360h70l-77 -360q-17 -81 -38 -147.5t-54.5 -113.5t-83 -73t-123.5 -26zM175 710h54l316 -591l125 590h69l-151 -709h-59l-313 580l-123 -580h-69z" />
<glyph unicode="&#x1cb;" horiz-adv-x="960" d="M637 -181q-32 0 -58 9t-43 30l43 46q11 -14 28.5 -19t35.5 -5q16 0 33 7t32 19.5t26 29.5t15 37l117 548h68l-116 -544q-8 -35 -26.5 -64t-43 -50t-54 -32.5t-57.5 -11.5zM910 730h68l-22 -100h-68zM175 710h54l316 -591l125 590h69l-151 -709h-59l-313 580l-123 -580 h-69z" />
<glyph unicode="&#x1cc;" horiz-adv-x="779" d="M456 -181q-32 0 -58 9t-43 30l43 46q11 -14 28.5 -19t35.5 -5q16 0 33 7t32 19.5t26 29.5t15 37l117 548h68l-116 -544q-8 -35 -26.5 -64t-43 -50t-54 -32.5t-57.5 -11.5zM729 730h68l-22 -100h-68zM119 521h63l-26 -118q21 28 48.5 51.5t58 40.5t63.5 26t66 9 q61 0 87 -33t26 -91q0 -23 -3.5 -47.5t-9.5 -53.5l-64 -305h-68l62 291q10 49 10 85q0 92 -78 92q-28 0 -58.5 -11t-59 -31t-52.5 -47.5t-40 -59.5l-67 -319h-68z" />
<glyph unicode="&#x1ea;" horiz-adv-x="722" d="M236 -176q-30 7 -45 23t-15 38q0 28 22 54.5t70 57.5q-54 6 -95 31.5t-69.5 65.5t-43 90t-14.5 104q0 81 34 158t90.5 137t129 96t150.5 36q60 0 106 -25t77.5 -66t48 -94t16.5 -110q0 -78 -32 -153t-85.5 -134t-123 -96t-144.5 -41q-52 -31 -72.5 -53t-20.5 -45 q0 -30 42 -36zM310 58q66 0 123.5 32t101 83.5t68.5 115t25 126.5q0 47 -13 90t-37.5 75.5t-60.5 51.5t-81 19q-66 0 -124 -32t-101.5 -83t-68.5 -114.5t-25 -127.5q0 -47 12.5 -90t37.5 -75.5t60.5 -51.5t82.5 -19z" />
<glyph unicode="&#x1eb;" horiz-adv-x="573" d="M178 -181q-30 7 -45 23t-15 38q0 27 21 53.5t69 56.5q-44 3 -78 21t-57.5 47.5t-36 68t-12.5 81.5q0 63 25.5 121t68.5 102.5t99 71.5t118 27q46 0 82 -17.5t61.5 -47t39 -69.5t13.5 -85q0 -57 -21.5 -111t-58.5 -97t-86.5 -72.5t-105.5 -37.5q-54 -32 -75.5 -54.5 t-21.5 -45.5q0 -30 42 -36zM233 50q42 0 83 20.5t73 55t52 80t20 96.5q0 35 -10 66t-28.5 53.5t-44 35.5t-56.5 13q-42 0 -82.5 -20.5t-73 -55.5t-52.5 -81t-20 -97q0 -35 10 -65.5t28.5 -53t44 -35t56.5 -12.5z" />
<glyph unicode="&#x1f1;" horiz-adv-x="1275" d="M654 55l580 593h-446l13 62h528l-12 -55l-574 -593h447l-13 -62h-535zM175 710h230q66 0 115 -21t81 -58t47.5 -86.5t15.5 -106.5q0 -94 -31 -174.5t-86 -139t-130 -91.5t-163 -33h-230zM267 62q75 0 135.5 30t102.5 80.5t64.5 116.5t22.5 138q0 48 -12.5 89t-38 70 t-63 45.5t-87.5 16.5h-160l-125 -586h161z" />
<glyph unicode="&#x1f2;" horiz-adv-x="1156" d="M664 46l419 424h-321l11 51h397l-9 -46l-417 -424h327l-12 -51h-404zM175 710h230q66 0 115 -21t81 -58t47.5 -86.5t15.5 -106.5q0 -94 -31 -174.5t-86 -139t-130 -91.5t-163 -33h-230zM267 62q75 0 135.5 30t102.5 80.5t64.5 116.5t22.5 138q0 48 -12.5 89t-38 70 t-63 45.5t-87.5 16.5h-160l-125 -586h161z" />
<glyph unicode="&#x1f3;" horiz-adv-x="1064" d="M572 46l419 424h-321l11 51h397l-9 -46l-417 -424h327l-12 -51h-404zM211 -10q-44 0 -78.5 17.5t-58.5 47.5t-36.5 69.5t-12.5 83.5q0 62 24 120t64 103t92.5 72t109.5 27q62 0 103 -34.5t58 -83.5l68 318h68l-136 -641q-2 -10 -2 -12q0 -17 19 -17l-13 -60 q-8 -1 -13.5 -1.5t-10.5 -0.5q-24 0 -36.5 11.5t-12.5 28.5q0 7 2 19.5t9 43.5q-40 -51 -96.5 -81t-110.5 -30zM239 50q24 0 52.5 10t55.5 27.5t48.5 41t31.5 50.5l33 161q-3 27 -16 50.5t-32 41.5t-43 28t-49 10q-45 0 -86 -22.5t-71.5 -58t-48.5 -80.5t-18 -90 q0 -35 10 -65.5t29 -53.5t45 -36.5t59 -13.5z" />
<glyph unicode="&#x1f4;" horiz-adv-x="687" d="M455 807l-42 17l76 93h71zM532 103q-115 -108 -237 -108q-58 0 -104 24.5t-78 66t-49 95t-17 111.5q0 80 33 156t88.5 135.5t127 95.5t149.5 36q49 0 87 -11.5t66 -32t45.5 -49t26.5 -62.5l-62 -36q-18 66 -64.5 97t-113.5 31q-64 0 -121 -31.5t-99.5 -82.5t-67.5 -114.5 t-25 -127.5q0 -49 14 -92t39.5 -75.5t61.5 -51.5t81 -19q57 0 115 28.5t119 89.5l26 119h-148l11 54h208l-74 -349h-60z" />
<glyph unicode="&#x1f5;" horiz-adv-x="592" d="M324 620l-42 17l76 93h71zM165 -223q-43 0 -75 8.5t-56 23.5t-40.5 37t-26.5 49l48 33q19 -50 62 -73.5t99 -23.5q36 0 70 10.5t62.5 31t49 52t29.5 73.5l22 103q-19 -25 -43 -45t-51 -34t-55 -21.5t-55 -7.5q-43 0 -76.5 17.5t-57 47t-35.5 68.5t-12 82q0 61 24 119 t64.5 103t93.5 72.5t112 27.5q64 0 103 -33.5t62 -84.5l23 109h60l-111 -523q-12 -55 -40 -96.5t-67 -69t-86 -41.5t-97 -14zM237 50q28 0 58 11t56 29.5t46 41.5t29 47l34 161q-4 28 -17 52t-31.5 41t-42.5 27t-50 10q-47 0 -88 -23t-71.5 -59.5t-48 -81t-17.5 -87.5 q0 -35 10 -65.5t29 -53.5t45.5 -36.5t58.5 -13.5z" />
<glyph unicode="&#x1fa;" horiz-adv-x="651" d="M455 812q20 -4 31 -17.5t11 -33.5q0 -24 -13 -42.5t-35 -27.5l125 -691h-74l-39 222h-299l-132 -222h-75l420 692q-23 14 -23 44q0 35 26 56.5t61 21.5q4 0 7 -0.5t7 -0.5l-40 15l76 90h71zM457 277l-58 351l-211 -351h269zM433 787q-18 0 -33 -13t-15 -33q0 -13 8.5 -22 t22.5 -9q17 0 33 13t16 33q0 14 -9 22.5t-23 8.5z" />
<glyph unicode="&#x1fb;" d="M210 -10q-44 0 -78 17.5t-58 47.5t-36.5 69.5t-12.5 83.5q0 62 24 120t64 103t92 72t109 27q63 0 104 -34.5t58 -83.5l24 109h68l-92 -432q-2 -8 -2 -13q0 -16 19 -16l-13 -60q-8 -1 -15 -2t-12 -1q-23 2 -34.5 12.5t-11.5 27.5q0 8 2.5 21t8.5 43q-40 -51 -96.5 -81 t-111.5 -30zM238 50q25 0 54 10t55.5 27.5t48 41t31.5 50.5l33 161q-3 27 -16 50.5t-32 41t-43 28t-50 10.5q-45 0 -85.5 -22.5t-71 -58.5t-48.5 -81t-18 -90q0 -35 10 -65.5t29 -53t45 -36t58 -13.5zM377 770l-42 17l76 93h71zM283 652q0 35 26 56.5t61 21.5 q27 0 42.5 -14.5t15.5 -38.5q0 -34 -25 -56t-62 -22q-27 0 -42.5 14.5t-15.5 38.5zM364 703q-18 0 -33 -13t-15 -33q0 -13 8.5 -22t22.5 -9q17 0 33 13t16 33q0 14 -9 22.5t-23 8.5z" />
<glyph unicode="&#x1fc;" horiz-adv-x="923" d="M573 807l-42 17l76 93h71zM503 710h459l-14 -62h-371l-53 -255h319l-14 -62h-319l-57 -269h379l-13 -62h-448l47 222h-244l-179 -222h-76zM427 284l73 342l-281 -342h208z" />
<glyph unicode="&#x1fd;" horiz-adv-x="885" d="M501 620l-42 17l76 93h71zM133 -10q-33 0 -58.5 10.5t-43.5 28.5t-27 42t-9 52q0 41 19 75t52 59t77.5 38.5t95.5 13.5q33 0 64.5 -5.5t57.5 -14.5q8 26 18 46.5t14 44.5q0 43 -28.5 71t-82.5 28q-38 0 -81 -16t-91 -46l-13 45q56 34 105.5 51t97.5 17q60 0 98 -27 t49 -77q42 47 96.5 75.5t115.5 28.5q46 0 82.5 -16.5t62 -45.5t39.5 -68t14 -84q0 -32 -5.5 -51.5t-9.5 -28.5h-427q-1 -8 -1.5 -16.5t-0.5 -17.5q0 -35 10.5 -64.5t30 -50.5t46.5 -33t60 -12q24 0 49 7t47.5 19t41.5 29.5t32 38.5l56 -16q-18 -29 -44 -52.5t-57.5 -41 t-66.5 -27t-71 -9.5q-66 0 -112.5 31.5t-68.5 83.5q-23 -31 -53 -53t-62 -35.5t-63 -20t-55 -6.5zM160 42q27 0 57 8.5t57.5 23.5t48 34.5t28.5 41.5q-4 16 -4 41q0 14 1.5 28.5t3.5 26.5q-25 10 -54 15t-57 5q-39 0 -71.5 -9.5t-56.5 -26.5t-37.5 -41t-13.5 -53 q0 -38 24 -66t74 -28zM788 282q2 10 2.5 20.5t0.5 19.5q0 67 -37.5 111t-106.5 44q-38 0 -73 -14.5t-64.5 -40.5t-52 -62t-33.5 -78h364z" />
<glyph unicode="&#x1fe;" horiz-adv-x="722" d="M713 710l-76 -90q30 -42 45.5 -93.5t15.5 -106.5q0 -81 -33.5 -157.5t-89.5 -136t-128.5 -95.5t-150.5 -36q-44 0 -80.5 13t-65.5 36l-37 -44h-77l73 86q-31 41 -47 93t-16 109q0 81 34 158t90.5 137t129 96t150.5 36q45 0 81.5 -14t65.5 -38l40 47h76zM117 294 q0 -43 10 -81.5t30 -69.5l394 465q-23 20 -51.5 31.5t-63.5 11.5q-66 0 -124 -32t-101.5 -83t-68.5 -114.5t-25 -127.5zM310 58q66 0 123.5 32t101 83.5t68.5 115t25 126.5q0 42 -10 79.5t-29 68.5l-393 -465q23 -19 51 -29.5t63 -10.5zM472 807l-42 17l76 93h71z" />
<glyph unicode="&#x1ff;" horiz-adv-x="573" d="M77 53q-53 62 -53 155q0 63 25.5 121t68.5 102.5t99.5 71.5t117.5 27q35 0 65 -10.5t53 -29.5l31 33h46l-53 -56q54 -62 54 -156q0 -62 -25 -120t-68 -102.5t-99 -71.5t-118 -27q-36 0 -66.5 10.5t-53.5 29.5l-30 -31h-46zM233 50q42 0 83 20.5t73 55t52 80t20 96.5 q0 32 -9 61t-25 51l-280 -332q35 -32 86 -32zM94 216q0 -33 8.5 -61.5t24.5 -50.5l280 334q-17 15 -38.5 23.5t-46.5 8.5q-42 0 -82.5 -20.5t-73 -55.5t-52.5 -81t-20 -97zM349 620l-42 17l76 93h71z" />
<glyph unicode="&#x200;" horiz-adv-x="651" d="M386 710h60l128 -710h-74l-39 222h-299l-132 -222h-75zM457 277l-58 351l-211 -351h269zM437 918h61l35 -93l-41 -17zM315 918h63l34 -93l-41 -17z" />
<glyph unicode="&#x201;" d="M210 -10q-44 0 -78 17.5t-58 47.5t-36.5 69.5t-12.5 83.5q0 62 24 120t64 103t92 72t109 27q63 0 104 -34.5t58 -83.5l24 109h68l-92 -432q-2 -8 -2 -13q0 -16 19 -16l-13 -60q-8 -1 -15 -2t-12 -1q-23 2 -34.5 12.5t-11.5 27.5q0 8 2.5 21t8.5 43q-40 -51 -96.5 -81 t-111.5 -30zM238 50q25 0 54 10t55.5 27.5t48 41t31.5 50.5l33 161q-3 27 -16 50.5t-32 41t-43 28t-50 10.5q-45 0 -85.5 -22.5t-71 -58.5t-48.5 -81t-18 -90q0 -35 10 -65.5t29 -53t45 -36t58 -13.5zM344 730h61l35 -93l-41 -17zM222 730h63l34 -93l-41 -17z" />
<glyph unicode="&#x202;" horiz-adv-x="651" d="M386 710h60l128 -710h-74l-39 222h-299l-132 -222h-75zM457 277l-58 351l-211 -351h269zM343 816q4 21 15 39.5t26.5 32t34.5 21.5t39 8q35 0 55.5 -23.5t20.5 -56.5v-10.5t-2 -10.5h-40q1 6 1.5 11t0.5 10q0 45 -41 45q-30 0 -46.5 -19.5t-23.5 -46.5h-40z" />
<glyph unicode="&#x203;" d="M210 -10q-44 0 -78 17.5t-58 47.5t-36.5 69.5t-12.5 83.5q0 62 24 120t64 103t92 72t109 27q63 0 104 -34.5t58 -83.5l24 109h68l-92 -432q-2 -8 -2 -13q0 -16 19 -16l-13 -60q-8 -1 -15 -2t-12 -1q-23 2 -34.5 12.5t-11.5 27.5q0 8 2.5 21t8.5 43q-40 -51 -96.5 -81 t-111.5 -30zM238 50q25 0 54 10t55.5 27.5t48 41t31.5 50.5l33 161q-3 27 -16 50.5t-32 41t-43 28t-50 10.5q-45 0 -85.5 -22.5t-71 -58.5t-48.5 -81t-18 -90q0 -35 10 -65.5t29 -53t45 -36t58 -13.5zM256 629q4 21 15 39.5t26.5 32t34.5 21.5t39 8q35 0 55.5 -23.5 t20.5 -56.5v-10.5t-2 -10.5h-40q1 6 1.5 11t0.5 10q0 45 -41 45q-30 0 -46.5 -19.5t-23.5 -46.5h-40z" />
<glyph unicode="&#x204;" horiz-adv-x="582" d="M426 918h61l35 -93l-41 -17zM304 918h63l34 -93l-41 -17zM175 710h445l-13 -62h-376l-55 -256h328l-12 -59h-328l-58 -271h385l-13 -62h-454z" />
<glyph unicode="&#x205;" horiz-adv-x="534" d="M352 730h61l35 -93l-41 -17zM230 730h63l34 -93l-41 -17zM226 -10q-48 0 -85.5 17t-63 47t-39 70t-13.5 86q0 62 24 119.5t66 102t99.5 71.5t124.5 27q34 0 64.5 -9t53 -26.5t35.5 -44t13 -60.5q0 -77 -68 -116t-210 -39q-28 0 -60.5 1t-70.5 4q-1 -8 -1.5 -15t-0.5 -14 q0 -34 9 -64.5t27 -54t45 -37t63 -13.5q24 0 49 7t47.5 19.5t41.5 30.5t32 40l56 -17q-18 -29 -44 -53.5t-57.5 -42t-66 -27t-70.5 -9.5zM332 477q-45 0 -82 -16t-66 -42t-49 -60t-30 -70q36 -2 66.5 -3.5t58.5 -1.5q59 0 100 8t66 22t36 34t11 43q0 45 -33 65.5t-78 20.5z " />
<glyph unicode="&#x206;" horiz-adv-x="582" d="M330 816q4 21 15 39.5t26.5 32t34.5 21.5t39 8q35 0 55.5 -23.5t20.5 -56.5v-10.5t-2 -10.5h-40q1 6 1.5 11t0.5 10q0 45 -41 45q-30 0 -46.5 -19.5t-23.5 -46.5h-40zM175 710h445l-13 -62h-376l-55 -256h328l-12 -59h-328l-58 -271h385l-13 -62h-454z" />
<glyph unicode="&#x207;" horiz-adv-x="534" d="M267 629q4 21 15 39.5t26.5 32t34.5 21.5t39 8q35 0 55.5 -23.5t20.5 -56.5v-10.5t-2 -10.5h-40q1 6 1.5 11t0.5 10q0 45 -41 45q-30 0 -46.5 -19.5t-23.5 -46.5h-40zM226 -10q-48 0 -85.5 17t-63 47t-39 70t-13.5 86q0 62 24 119.5t66 102t99.5 71.5t124.5 27 q34 0 64.5 -9t53 -26.5t35.5 -44t13 -60.5q0 -77 -68 -116t-210 -39q-28 0 -60.5 1t-70.5 4q-1 -8 -1.5 -15t-0.5 -14q0 -34 9 -64.5t27 -54t45 -37t63 -13.5q24 0 49 7t47.5 19.5t41.5 30.5t32 40l56 -17q-18 -29 -44 -53.5t-57.5 -42t-66 -27t-70.5 -9.5zM332 477 q-45 0 -82 -16t-66 -42t-49 -60t-30 -70q36 -2 66.5 -3.5t58.5 -1.5q59 0 100 8t66 22t36 34t11 43q0 45 -33 65.5t-78 20.5z" />
<glyph unicode="&#x208;" horiz-adv-x="245" d="M175 709h69l-151 -709h-69zM234 918h61l35 -93l-41 -17zM112 918h63l34 -93l-41 -17z" />
<glyph unicode="&#x209;" horiz-adv-x="213" d="M172 730h61l35 -93l-41 -17zM50 730h63l34 -93l-41 -17zM119 521h68l-110 -521h-68z" />
<glyph unicode="&#x20a;" horiz-adv-x="245" d="M175 709h69l-151 -709h-69zM139 816q4 21 15 39.5t26.5 32t34.5 21.5t39 8q35 0 55.5 -23.5t20.5 -56.5v-10.5t-2 -10.5h-40q1 6 1.5 11t0.5 10q0 45 -41 45q-30 0 -46.5 -19.5t-23.5 -46.5h-40z" />
<glyph unicode="&#x20b;" horiz-adv-x="213" d="M82 629q4 21 15 39.5t26.5 32t34.5 21.5t39 8q35 0 55.5 -23.5t20.5 -56.5v-10.5t-2 -10.5h-40q1 6 1.5 11t0.5 10q0 45 -41 45q-30 0 -46.5 -19.5t-23.5 -46.5h-40zM119 521h68l-110 -521h-68z" />
<glyph unicode="&#x20c;" horiz-adv-x="722" d="M491 918h61l35 -93l-41 -17zM369 918h63l34 -93l-41 -17zM296 -5q-60 0 -106.5 24.5t-78.5 65t-48.5 93.5t-16.5 110q0 81 34 158t90.5 137t129 96t150.5 36q60 0 106 -25t77.5 -66t48 -94t16.5 -110q0 -81 -33.5 -157.5t-89.5 -136t-128.5 -95.5t-150.5 -36zM310 58 q66 0 123.5 32t101 83.5t68.5 115t25 126.5q0 47 -13 90t-37.5 75.5t-60.5 51.5t-81 19q-66 0 -124 -32t-101.5 -83t-68.5 -114.5t-25 -127.5q0 -47 12.5 -90t37.5 -75.5t60.5 -51.5t82.5 -19z" />
<glyph unicode="&#x20d;" horiz-adv-x="573" d="M357 730h61l35 -93l-41 -17zM235 730h63l34 -93l-41 -17zM220 -10q-46 0 -82.5 17.5t-61.5 47t-38.5 69t-13.5 84.5q0 63 25.5 121t68.5 102.5t99 71.5t118 27q46 0 82 -17.5t61.5 -47t39 -69.5t13.5 -85q0 -62 -25.5 -120t-68 -102.5t-99 -71.5t-118.5 -27zM233 50 q42 0 83 20.5t73 55t52 80t20 96.5q0 35 -10 66t-28.5 53.5t-44 35.5t-56.5 13q-42 0 -82.5 -20.5t-73 -55.5t-52.5 -81t-20 -97q0 -35 10 -65.5t28.5 -53t44 -35t56.5 -12.5z" />
<glyph unicode="&#x20e;" horiz-adv-x="722" d="M387 816q4 21 15 39.5t26.5 32t34.5 21.5t39 8q35 0 55.5 -23.5t20.5 -56.5v-10.5t-2 -10.5h-40q1 6 1.5 11t0.5 10q0 45 -41 45q-30 0 -46.5 -19.5t-23.5 -46.5h-40zM296 -5q-60 0 -106.5 24.5t-78.5 65t-48.5 93.5t-16.5 110q0 81 34 158t90.5 137t129 96t150.5 36 q60 0 106 -25t77.5 -66t48 -94t16.5 -110q0 -81 -33.5 -157.5t-89.5 -136t-128.5 -95.5t-150.5 -36zM310 58q66 0 123.5 32t101 83.5t68.5 115t25 126.5q0 47 -13 90t-37.5 75.5t-60.5 51.5t-81 19q-66 0 -124 -32t-101.5 -83t-68.5 -114.5t-25 -127.5q0 -47 12.5 -90 t37.5 -75.5t60.5 -51.5t82.5 -19z" />
<glyph unicode="&#x20f;" horiz-adv-x="573" d="M266 629q4 21 15 39.5t26.5 32t34.5 21.5t39 8q35 0 55.5 -23.5t20.5 -56.5v-10.5t-2 -10.5h-40q1 6 1.5 11t0.5 10q0 45 -41 45q-30 0 -46.5 -19.5t-23.5 -46.5h-40zM220 -10q-46 0 -82.5 17.5t-61.5 47t-38.5 69t-13.5 84.5q0 63 25.5 121t68.5 102.5t99 71.5t118 27 q46 0 82 -17.5t61.5 -47t39 -69.5t13.5 -85q0 -62 -25.5 -120t-68 -102.5t-99 -71.5t-118.5 -27zM233 50q42 0 83 20.5t73 55t52 80t20 96.5q0 35 -10 66t-28.5 53.5t-44 35.5t-56.5 13q-42 0 -82.5 -20.5t-73 -55.5t-52.5 -81t-20 -97q0 -35 10 -65.5t28.5 -53t44 -35 t56.5 -12.5z" />
<glyph unicode="&#x210;" horiz-adv-x="628" d="M419 918h61l35 -93l-41 -17zM297 918h63l34 -93l-41 -17zM24 0l151 710h285q37 0 67 -15.5t50 -41.5t31 -59.5t11 -68.5q0 -43 -16 -84.5t-43 -75.5t-63.5 -58.5t-77.5 -32.5l107 -274h-79l-102 262h-196l-56 -262h-69zM381 324q34 0 64.5 17t53 44.5t35.5 62t13 69.5 q0 27 -7.5 50.5t-21 41.5t-33 28.5t-42.5 10.5h-212l-69 -324h219z" />
<glyph unicode="&#x211;" horiz-adv-x="343" d="M262 730h61l35 -93l-41 -17zM140 730h63l34 -93l-41 -17zM119 521h64l-27 -125q39 57 88.5 90.5t100.5 35.5q8 0 13.5 -0.5t10.5 -1.5l-13 -59q-65 -2 -121 -38t-90 -99l-68 -324h-68z" />
<glyph unicode="&#x212;" horiz-adv-x="628" d="M325 816q4 21 15 39.5t26.5 32t34.5 21.5t39 8q35 0 55.5 -23.5t20.5 -56.5v-10.5t-2 -10.5h-40q1 6 1.5 11t0.5 10q0 45 -41 45q-30 0 -46.5 -19.5t-23.5 -46.5h-40zM24 0l151 710h285q37 0 67 -15.5t50 -41.5t31 -59.5t11 -68.5q0 -43 -16 -84.5t-43 -75.5t-63.5 -58.5 t-77.5 -32.5l107 -274h-79l-102 262h-196l-56 -262h-69zM381 324q34 0 64.5 17t53 44.5t35.5 62t13 69.5q0 27 -7.5 50.5t-21 41.5t-33 28.5t-42.5 10.5h-212l-69 -324h219z" />
<glyph unicode="&#x213;" horiz-adv-x="343" d="M161 630q4 21 15 39.5t26.5 32t34.5 21.5t39 8q35 0 55.5 -23.5t20.5 -56.5v-10.5t-2 -10.5h-40q1 6 1.5 11t0.5 10q0 45 -41 45q-30 0 -46.5 -19.5t-23.5 -46.5h-40zM119 521h64l-27 -125q39 57 88.5 90.5t100.5 35.5q8 0 13.5 -0.5t10.5 -1.5l-13 -59q-65 -2 -121 -38 t-90 -99l-68 -324h-68z" />
<glyph unicode="&#x214;" horiz-adv-x="724" d="M474 918h61l35 -93l-41 -17zM352 918h63l34 -93l-41 -17zM298 -5q-62 0 -105 18.5t-69 50.5t-37.5 74.5t-11.5 91.5q0 57 14 122l76 358h69l-76 -358q-6 -29 -9.5 -56.5t-3.5 -53.5q0 -39 8.5 -72.5t28 -58t51 -39t77.5 -14.5q63 0 110.5 25.5t81 67t54.5 94.5t32 107 l76 358h69l-75 -358q-15 -72 -44 -137t-73.5 -113.5t-104.5 -77.5t-138 -29z" />
<glyph unicode="&#x215;" horiz-adv-x="569" d="M344 730h61l35 -93l-41 -17zM222 730h63l34 -93l-41 -17zM159 -10q-122 0 -122 134q0 20 2.5 42.5t8.5 48.5l66 306h67l-62 -294q-10 -44 -10 -78q0 -99 86 -99q28 0 57 10t56 29t51 45t42 59l70 328h68l-91 -425q-3 -12 -3 -19q0 -17 19 -17l-13 -60q-8 -1 -13.5 -1.5 t-10.5 -0.5q-23 0 -35 10.5t-12 28.5q0 3 0.5 8t2 14t4 23t7.5 36q-46 -61 -108 -94.5t-127 -33.5z" />
<glyph unicode="&#x216;" horiz-adv-x="724" d="M378 816q4 21 15 39.5t26.5 32t34.5 21.5t39 8q35 0 55.5 -23.5t20.5 -56.5v-10.5t-2 -10.5h-40q1 6 1.5 11t0.5 10q0 45 -41 45q-30 0 -46.5 -19.5t-23.5 -46.5h-40zM298 -5q-62 0 -105 18.5t-69 50.5t-37.5 74.5t-11.5 91.5q0 57 14 122l76 358h69l-76 -358 q-6 -29 -9.5 -56.5t-3.5 -53.5q0 -39 8.5 -72.5t28 -58t51 -39t77.5 -14.5q63 0 110.5 25.5t81 67t54.5 94.5t32 107l76 358h69l-75 -358q-15 -72 -44 -137t-73.5 -113.5t-104.5 -77.5t-138 -29z" />
<glyph unicode="&#x217;" horiz-adv-x="569" d="M248 629q4 21 15 39.5t26.5 32t34.5 21.5t39 8q35 0 55.5 -23.5t20.5 -56.5v-10.5t-2 -10.5h-40q1 6 1.5 11t0.5 10q0 45 -41 45q-30 0 -46.5 -19.5t-23.5 -46.5h-40zM159 -10q-122 0 -122 134q0 20 2.5 42.5t8.5 48.5l66 306h67l-62 -294q-10 -44 -10 -78q0 -99 86 -99 q28 0 57 10t56 29t51 45t42 59l70 328h68l-91 -425q-3 -12 -3 -19q0 -17 19 -17l-13 -60q-8 -1 -13.5 -1.5t-10.5 -0.5q-23 0 -35 10.5t-12 28.5q0 3 0.5 8t2 14t4 23t7.5 36q-46 -61 -108 -94.5t-127 -33.5z" />
<glyph unicode="&#x218;" horiz-adv-x="585" d="M171 -199l32 74h-20l17 76h61l-16 -76l-40 -74h-34zM241 -6q-159 0 -250 103l47 57q27 -41 83.5 -69.5t134.5 -28.5q91 0 144 37.5t53 108.5q0 26 -11.5 44.5t-34 33t-54.5 25t-74 21.5q-43 11 -76.5 23.5t-56.5 29.5t-35 40.5t-12 55.5q0 56 22.5 100.5t61.5 75.5 t91.5 47.5t113.5 16.5q67 0 116.5 -21.5t82.5 -60.5l-45 -56q-20 34 -64 55t-104 21q-52 0 -89.5 -12t-62 -33t-36 -49.5t-11.5 -61.5q0 -24 10 -41t30 -29.5t50 -22t70 -19.5q44 -11 80 -23.5t61.5 -31t39.5 -44.5t14 -63q0 -57 -22.5 -100t-61.5 -71.5t-91.5 -43 t-113.5 -14.5z" />
<glyph unicode="&#x219;" horiz-adv-x="468" d="M105 -199l32 74h-20l17 76h61l-16 -76l-40 -74h-34zM172 -10q-58 0 -109 20t-83 58l40 46q67 -72 162 -72q66 0 108.5 30.5t42.5 81.5q0 18 -8 30t-24 21.5t-40 17.5t-55 16q-36 10 -62.5 19.5t-44 21.5t-26.5 28.5t-9 39.5q0 43 18.5 77t49 57.5t71 35.5t84.5 12 q57 0 99 -19.5t65 -51.5l-42 -40q-21 30 -57.5 45t-78.5 15q-28 0 -54 -7t-45.5 -21t-31 -35t-11.5 -50q0 -32 25.5 -45.5t79.5 -27.5q81 -20 123.5 -45.5t42.5 -77.5q0 -39 -17 -72t-47.5 -57t-73 -37.5t-92.5 -13.5z" />
<glyph unicode="&#x21a;" horiz-adv-x="582" d="M156 -199l32 74h-20l17 76h61l-16 -76l-40 -74h-34zM328 648h-238l13 62h547l-13 -62h-239l-138 -648h-69z" />
<glyph unicode="&#x21b;" horiz-adv-x="321" d="M64 -199l32 74h-20l17 76h61l-16 -76l-40 -74h-34zM135 -6q-38 0 -62.5 18.5t-24.5 56.5q0 11 3 25l79 373h-69l12 54h68l38 176h68l-38 -176h114l-12 -54h-113l-72 -339q-2 -11 -3.5 -17t-1.5 -11q0 -23 14 -33t34 -10q27 0 50 9.5t30 13.5l6 -55q-13 -9 -46.5 -20 t-73.5 -11z" />
<glyph unicode="&#x237;" horiz-adv-x="213" d="M-110 -181q-32 0 -57.5 9t-42.5 30l42 46q11 -14 28.5 -19t35.5 -5q16 0 33.5 7t32.5 19.5t26 29.5t15 37l116 548h68l-116 -544q-7 -35 -25.5 -64t-43.5 -50t-54.5 -32.5t-57.5 -11.5z" />
<glyph unicode="&#x259;" horiz-adv-x="561" d="M210 -10q-47 0 -83.5 15.5t-62 43.5t-39 65.5t-13.5 81.5q0 20 3 44t11 44h420q3 18 3 35q0 35 -10.5 64t-29 50t-44.5 32.5t-57 11.5q-24 0 -49 -7t-47.5 -19t-41.5 -29t-32 -38l-55 16q17 28 43 52t57.5 41t67 27t71.5 10q46 0 82.5 -17t62 -47t39 -70t13.5 -86 q0 -63 -25 -121t-67.5 -102.5t-98.5 -70.5t-118 -26zM222 42q36 0 70 14.5t62.5 41t50.5 62t33 77.5h-357q-3 -20 -3 -37q0 -71 39.5 -114.5t104.5 -43.5z" />
<glyph unicode="&#x2bc;" horiz-adv-x="536" d="M282 637l48 59l6 34h93l-106 -110z" />
<glyph unicode="&#x2c6;" horiz-adv-x="316" d="M57 645l113 85h50l75 -85l-42 -21l-68 63l-94 -63z" />
<glyph unicode="&#x2c7;" horiz-adv-x="316" d="M67 710l43 20l67 -63l94 63l34 -20l-112 -86h-50z" />
<glyph unicode="&#x2c9;" horiz-adv-x="378" d="M82 709h275l-10 -47h-275z" />
<glyph unicode="&#x2d8;" horiz-adv-x="270" d="M143 664q20 0 40 19t29 47h40q-5 -21 -16 -39.5t-26.5 -32t-34.5 -21.5t-39 -8q-35 0 -56 22t-21 56q0 11 3 23h42q-2 -10 -2 -15q0 -21 11.5 -36t29.5 -15z" />
<glyph unicode="&#x2d9;" horiz-adv-x="156" d="M51 633l21 97h62l-21 -97h-62z" />
<glyph unicode="&#x2da;" horiz-adv-x="236" d="M66 652q0 35 26 56.5t61 21.5q27 0 42.5 -14.5t15.5 -38.5q0 -34 -25 -56t-62 -22q-27 0 -42.5 14.5t-15.5 38.5zM147 703q-18 0 -33 -13t-15 -33q0 -13 8.5 -22t22.5 -9q17 0 33 13t16 33q0 14 -9 22.5t-23 8.5z" />
<glyph unicode="&#x2db;" horiz-adv-x="230" d="M89 -175q-30 7 -45 23t-15 38q0 32 29 62.5t95 68.5l19 -17q-55 -32 -77 -55t-22 -46q0 -30 42 -36l-26 -38v0z" />
<glyph unicode="&#x2dc;" horiz-adv-x="387" d="M256 638q-21 0 -35.5 6t-26.5 13.5t-24 14t-27 6.5t-26 -7t-17.5 -15.5t-10 -16t-3.5 -9.5h-42q1 5 8 20.5t20 31.5t33 28.5t47 12.5q20 0 33.5 -6.5t25.5 -14.5t24 -14.5t30 -6.5t30.5 7t19.5 16t10.5 16.5t3.5 9.5h42q-1 -5 -8 -20t-21 -31t-35 -28.5t-51 -12.5z" />
<glyph unicode="&#x2dd;" horiz-adv-x="312" d="M75 620l-33 17l73 93h63zM196 620l-32 17l73 93h62z" />
<glyph unicode="&#x30f;" horiz-adv-x="312" d="M183 730h61l35 -93l-41 -17zM61 730h63l34 -93l-41 -17z" />
<glyph unicode="&#x311;" horiz-adv-x="270" d="M57 629q4 21 15 39.5t26.5 32t34.5 21.5t39 8q35 0 55.5 -23.5t20.5 -56.5v-10.5t-2 -10.5h-40q1 6 1.5 11t0.5 10q0 45 -41 45q-30 0 -46.5 -19.5t-23.5 -46.5h-40v0z" />
<glyph unicode="&#x394;" horiz-adv-x="622" d="M-20 53l273 657h57l271 -657v-53h-601v53zM505 62l-223 566l-225 -566h448z" />
<glyph unicode="&#x3a9;" horiz-adv-x="807" d="M55 62h190q-85 45 -133.5 125t-48.5 178q0 69 25 132.5t68.5 111.5t103.5 77t131 29q70 0 130 -29t103.5 -77t68.5 -111.5t25 -132.5q0 -98 -48.5 -178t-133.5 -125h191v-62h-289v62q49 14 88 45t66 72.5t41.5 89.5t14.5 96q0 53 -18 104.5t-51.5 92t-81 65t-106.5 24.5 q-60 0 -107.5 -24.5t-81 -65t-51.5 -92t-18 -104.5q0 -48 14.5 -96t41.5 -89.5t66 -72.5t89 -45v-62h-289v62z" />
<glyph unicode="&#x3bc;" horiz-adv-x="576" d="M120 521h68l-63 -294q-5 -23 -7.5 -42t-2.5 -36q0 -99 87 -99q28 0 57 10t56 29t51 45t42 59l70 328h68l-92 -433q-2 -8 -2 -11q0 -17 20 -17l-14 -60q-30 0 -50.5 8.5t-20.5 31.5q0 5 3.5 28t10.5 50q-18 -27 -43 -50t-53.5 -40.5t-59 -27.5t-59.5 -10q-45 0 -68.5 23.5 t-28.5 61.5l-57 -287h-68z" />
<glyph unicode="&#x3c0;" horiz-adv-x="671" d="M501 -6q-45 0 -72 26.5t-27 74.5v364h-200v-459h-66v459h-80v62h522v-62h-110v-341q0 -29 16 -45.5t45 -16.5q11 0 26 3t28 8l12 -55q-19 -8 -46.5 -13t-47.5 -5z" />
<glyph unicode="&#x1e0c;" horiz-adv-x="690" d="M196 -166l20 98h62l-20 -98h-62zM175 710h230q66 0 115 -21t81 -58t47.5 -86.5t15.5 -106.5q0 -94 -31 -174.5t-86 -139t-130 -91.5t-163 -33h-230zM267 62q75 0 135.5 30t102.5 80.5t64.5 116.5t22.5 138q0 48 -12.5 89t-38 70t-63 45.5t-87.5 16.5h-160l-125 -586h161z " />
<glyph unicode="&#x1e0d;" d="M166 -166l20 98h62l-20 -98h-62zM211 -10q-44 0 -78.5 17.5t-58.5 47.5t-36.5 69.5t-12.5 83.5q0 62 24 120t64 103t92.5 72t109.5 27q62 0 103 -34.5t58 -83.5l68 318h68l-136 -641q-2 -10 -2 -12q0 -17 19 -17l-13 -60q-8 -1 -13.5 -1.5t-10.5 -0.5q-24 0 -36.5 11.5 t-12.5 28.5q0 7 2 19.5t9 43.5q-40 -51 -96.5 -81t-110.5 -30zM239 50q24 0 52.5 10t55.5 27.5t48.5 41t31.5 50.5l33 161q-3 27 -16 50.5t-32 41.5t-43 28t-49 10q-45 0 -86 -22.5t-71.5 -58t-48.5 -80.5t-18 -90q0 -35 10 -65.5t29 -53.5t45 -36.5t59 -13.5z" />
<glyph unicode="&#x1e24;" horiz-adv-x="709" d="M175 710h69l-67 -316h395l67 316h70l-151 -710h-70l71 332h-395l-71 -332h-69zM226 -166l20 98h62l-20 -98h-62z" />
<glyph unicode="&#x1e25;" horiz-adv-x="559" d="M164 730h68l-70 -327q42 59 101.5 93t120.5 34q64 0 91.5 -35.5t27.5 -97.5q0 -39 -11 -92l-64 -305h-68l62 291q9 43 9 76q0 101 -85 101q-27 0 -56 -11.5t-56.5 -31.5t-51 -47t-38.5 -59l-67 -319h-68zM151 -166l20 98h62l-20 -98h-62z" />
<glyph unicode="&#x1e44;" horiz-adv-x="740" d="M450 820l21 97h62l-21 -97h-62zM175 710h54l316 -591l125 590h69l-151 -709h-59l-313 580l-123 -580h-69z" />
<glyph unicode="&#x1e45;" horiz-adv-x="559" d="M311 633l21 97h62l-21 -97h-62zM119 521h63l-26 -118q21 28 48.5 51.5t58 40.5t63.5 26t66 9q61 0 87 -33t26 -91q0 -23 -3.5 -47.5t-9.5 -53.5l-64 -305h-68l62 291q10 49 10 85q0 92 -78 92q-28 0 -58.5 -11t-59 -31t-52.5 -47.5t-40 -59.5l-67 -319h-68z" />
<glyph unicode="&#x1e5a;" horiz-adv-x="628" d="M24 0l151 710h285q37 0 67 -15.5t50 -41.5t31 -59.5t11 -68.5q0 -43 -16 -84.5t-43 -75.5t-63.5 -58.5t-77.5 -32.5l107 -274h-79l-102 262h-196l-56 -262h-69zM381 324q34 0 64.5 17t53 44.5t35.5 62t13 69.5q0 27 -7.5 50.5t-21 41.5t-33 28.5t-42.5 10.5h-212 l-69 -324h219zM187 -166l20 98h62l-20 -98h-62z" />
<glyph unicode="&#x1e5b;" horiz-adv-x="343" d="M119 521h64l-27 -125q39 57 88.5 90.5t100.5 35.5q8 0 13.5 -0.5t10.5 -1.5l-13 -59q-65 -2 -121 -38t-90 -99l-68 -324h-68zM-22 -166l20 98h62l-20 -98h-62z" />
<glyph unicode="&#x1e62;" horiz-adv-x="585" d="M241 -6q-159 0 -250 103l47 57q27 -41 83.5 -69.5t134.5 -28.5q91 0 144 37.5t53 108.5q0 26 -11.5 44.5t-34 33t-54.5 25t-74 21.5q-43 11 -76.5 23.5t-56.5 29.5t-35 40.5t-12 55.5q0 56 22.5 100.5t61.5 75.5t91.5 47.5t113.5 16.5q67 0 116.5 -21.5t82.5 -60.5 l-45 -56q-20 34 -64 55t-104 21q-52 0 -89.5 -12t-62 -33t-36 -49.5t-11.5 -61.5q0 -24 10 -41t30 -29.5t50 -22t70 -19.5q44 -11 80 -23.5t61.5 -31t39.5 -44.5t14 -63q0 -57 -22.5 -100t-61.5 -71.5t-91.5 -43t-113.5 -14.5zM173 -166l20 98h62l-20 -98h-62z" />
<glyph unicode="&#x1e63;" horiz-adv-x="468" d="M172 -10q-58 0 -109 20t-83 58l40 46q67 -72 162 -72q66 0 108.5 30.5t42.5 81.5q0 18 -8 30t-24 21.5t-40 17.5t-55 16q-36 10 -62.5 19.5t-44 21.5t-26.5 28.5t-9 39.5q0 43 18.5 77t49 57.5t71 35.5t84.5 12q57 0 99 -19.5t65 -51.5l-42 -40q-21 30 -57.5 45t-78.5 15 q-28 0 -54 -7t-45.5 -21t-31 -35t-11.5 -50q0 -32 25.5 -45.5t79.5 -27.5q81 -20 123.5 -45.5t42.5 -77.5q0 -39 -17 -72t-47.5 -57t-73 -37.5t-92.5 -13.5zM106 -166l20 98h62l-20 -98h-62z" />
<glyph unicode="&#x1e6c;" horiz-adv-x="582" d="M159 -166l20 98h62l-20 -98h-62zM328 648h-238l13 62h547l-13 -62h-239l-138 -648h-69z" />
<glyph unicode="&#x1e6d;" horiz-adv-x="321" d="M65 -166l20 98h62l-20 -98h-62zM135 -6q-38 0 -62.5 18.5t-24.5 56.5q0 11 3 25l79 373h-69l12 54h68l38 176h68l-38 -176h114l-12 -54h-113l-72 -339q-2 -11 -3.5 -17t-1.5 -11q0 -23 14 -33t34 -10q27 0 50 9.5t30 13.5l6 -55q-13 -9 -46.5 -20t-73.5 -11z" />
<glyph unicode="&#x1e80;" horiz-adv-x="997" d="M95 710h75l108 -629l195 321l-53 303h66l40 -252l149 252h66l-182 -303l59 -321l374 629h77l-437 -710h-60l-66 351l-216 -351h-61zM528 917h70l38 -93l-49 -17z" />
<glyph unicode="&#x1e81;" horiz-adv-x="755" d="M53 521h70l84 -458q40 48 74 97.5t63 100.5l-60 260h70l38 -173q22 45 38.5 88t28.5 85h65q-19 -65 -47 -129.5t-65 -129.5l43 -199q88 112 149.5 229t92.5 229h66q-77 -263 -287 -521h-73l-40 184q-29 -47 -62.5 -93t-72.5 -91h-73zM373 730h70l38 -93l-49 -17z" />
<glyph unicode="&#x1e82;" horiz-adv-x="997" d="M589 807l-42 17l76 93h71zM95 710h75l108 -629l195 321l-53 303h66l40 -252l149 252h66l-182 -303l59 -321l374 629h77l-437 -710h-60l-66 351l-216 -351h-61z" />
<glyph unicode="&#x1e83;" horiz-adv-x="755" d="M423 620l-42 17l76 93h71zM53 521h70l84 -458q40 48 74 97.5t63 100.5l-60 260h70l38 -173q22 45 38.5 88t28.5 85h65q-19 -65 -47 -129.5t-65 -129.5l43 -199q88 112 149.5 229t92.5 229h66q-77 -263 -287 -521h-73l-40 184q-29 -47 -62.5 -93t-72.5 -91h-73z" />
<glyph unicode="&#x1e84;" horiz-adv-x="997" d="M493 820l21 94h58l-21 -94h-58zM637 820l20 94h57l-19 -94h-58zM95 710h75l108 -629l195 321l-53 303h66l40 -252l149 252h66l-182 -303l59 -321l374 629h77l-437 -710h-60l-66 351l-216 -351h-61z" />
<glyph unicode="&#x1e85;" horiz-adv-x="755" d="M324 633l21 94h58l-21 -94h-58zM468 633l20 94h57l-19 -94h-58zM53 521h70l84 -458q40 48 74 97.5t63 100.5l-60 260h70l38 -173q22 45 38.5 88t28.5 85h65q-19 -65 -47 -129.5t-65 -129.5l43 -199q88 112 149.5 229t92.5 229h66q-77 -263 -287 -521h-73l-40 184 q-29 -47 -62.5 -93t-72.5 -91h-73z" />
<glyph unicode="&#x1e92;" horiz-adv-x="596" d="M-24 55l580 593h-446l13 62h528l-12 -55l-574 -593h447l-13 -62h-535zM173 -166l20 98h62l-20 -98h-62z" />
<glyph unicode="&#x1e93;" horiz-adv-x="466" d="M-26 46l419 424h-321l11 51h397l-9 -46l-417 -424h327l-12 -51h-404zM103 -166l20 98h62l-20 -98h-62z" />
<glyph unicode="&#x1eb8;" horiz-adv-x="582" d="M175 710h445l-13 -62h-376l-55 -256h328l-12 -59h-328l-58 -271h385l-13 -62h-454zM183 -166l20 98h62l-20 -98h-62z" />
<glyph unicode="&#x1eb9;" horiz-adv-x="534" d="M226 -10q-48 0 -85.5 17t-63 47t-39 70t-13.5 86q0 62 24 119.5t66 102t99.5 71.5t124.5 27q34 0 64.5 -9t53 -26.5t35.5 -44t13 -60.5q0 -77 -68 -116t-210 -39q-28 0 -60.5 1t-70.5 4q-1 -8 -1.5 -15t-0.5 -14q0 -34 9 -64.5t27 -54t45 -37t63 -13.5q24 0 49 7 t47.5 19.5t41.5 30.5t32 40l56 -17q-18 -29 -44 -53.5t-57.5 -42t-66 -27t-70.5 -9.5zM332 477q-45 0 -82 -16t-66 -42t-49 -60t-30 -70q36 -2 66.5 -3.5t58.5 -1.5q59 0 100 8t66 22t36 34t11 43q0 45 -33 65.5t-78 20.5zM162 -166l20 98h62l-20 -98h-62z" />
<glyph unicode="&#x1ebc;" horiz-adv-x="582" d="M175 710h445l-13 -62h-376l-55 -256h328l-12 -59h-328l-58 -271h385l-13 -62h-454zM474 825q-21 0 -35.5 6t-26.5 13.5t-24 14t-27 6.5t-26 -7t-17.5 -15.5t-10 -16t-3.5 -9.5h-42q1 5 8 20.5t20 31.5t33 28.5t47 12.5q20 0 33.5 -6.5t25.5 -14.5t24 -14.5t30 -6.5 t30.5 7t19.5 16t10.5 16.5t3.5 9.5h42q-1 -5 -8 -20t-21 -31t-35 -28.5t-51 -12.5z" />
<glyph unicode="&#x1ebd;" horiz-adv-x="534" d="M226 -10q-48 0 -85.5 17t-63 47t-39 70t-13.5 86q0 62 24 119.5t66 102t99.5 71.5t124.5 27q34 0 64.5 -9t53 -26.5t35.5 -44t13 -60.5q0 -77 -68 -116t-210 -39q-28 0 -60.5 1t-70.5 4q-1 -8 -1.5 -15t-0.5 -14q0 -34 9 -64.5t27 -54t45 -37t63 -13.5q24 0 49 7 t47.5 19.5t41.5 30.5t32 40l56 -17q-18 -29 -44 -53.5t-57.5 -42t-66 -27t-70.5 -9.5zM332 477q-45 0 -82 -16t-66 -42t-49 -60t-30 -70q36 -2 66.5 -3.5t58.5 -1.5q59 0 100 8t66 22t36 34t11 43q0 45 -33 65.5t-78 20.5zM411 638q-21 0 -35.5 6t-26.5 13.5t-24 14t-27 6.5 t-26 -7t-17.5 -15.5t-10 -16t-3.5 -9.5h-42q1 5 8 20.5t20 31.5t33 28.5t47 12.5q20 0 33.5 -6.5t25.5 -14.5t24 -14.5t30 -6.5t30.5 7t19.5 16t10.5 16.5t3.5 9.5h42q-1 -5 -8 -20t-21 -31t-35 -28.5t-51 -12.5z" />
<glyph unicode="&#x1eca;" horiz-adv-x="245" d="M175 709h69l-151 -709h-69zM-9 -166l20 98h62l-20 -98h-62z" />
<glyph unicode="&#x1ecb;" horiz-adv-x="213" d="M119 521h68l-110 -521h-68zM164 730h68l-21 -100h-68zM-24 -166l20 98h62l-20 -98h-62z" />
<glyph unicode="&#x1ecc;" horiz-adv-x="722" d="M236 -166l20 98h62l-20 -98h-62zM296 -5q-60 0 -106.5 24.5t-78.5 65t-48.5 93.5t-16.5 110q0 81 34 158t90.5 137t129 96t150.5 36q60 0 106 -25t77.5 -66t48 -94t16.5 -110q0 -81 -33.5 -157.5t-89.5 -136t-128.5 -95.5t-150.5 -36zM310 58q66 0 123.5 32t101 83.5 t68.5 115t25 126.5q0 47 -13 90t-37.5 75.5t-60.5 51.5t-81 19q-66 0 -124 -32t-101.5 -83t-68.5 -114.5t-25 -127.5q0 -47 12.5 -90t37.5 -75.5t60.5 -51.5t82.5 -19z" />
<glyph unicode="&#x1ecd;" horiz-adv-x="573" d="M158 -166l20 98h62l-20 -98h-62zM220 -10q-46 0 -82.5 17.5t-61.5 47t-38.5 69t-13.5 84.5q0 63 25.5 121t68.5 102.5t99 71.5t118 27q46 0 82 -17.5t61.5 -47t39 -69.5t13.5 -85q0 -62 -25.5 -120t-68 -102.5t-99 -71.5t-118.5 -27zM233 50q42 0 83 20.5t73 55t52 80 t20 96.5q0 35 -10 66t-28.5 53.5t-44 35.5t-56.5 13q-42 0 -82.5 -20.5t-73 -55.5t-52.5 -81t-20 -97q0 -35 10 -65.5t28.5 -53t44 -35t56.5 -12.5z" />
<glyph unicode="&#x1ee4;" horiz-adv-x="724" d="M298 -5q-62 0 -105 18.5t-69 50.5t-37.5 74.5t-11.5 91.5q0 57 14 122l76 358h69l-76 -358q-6 -29 -9.5 -56.5t-3.5 -53.5q0 -39 8.5 -72.5t28 -58t51 -39t77.5 -14.5q63 0 110.5 25.5t81 67t54.5 94.5t32 107l76 358h69l-75 -358q-15 -72 -44 -137t-73.5 -113.5 t-104.5 -77.5t-138 -29zM229 -166l20 98h62l-20 -98h-62z" />
<glyph unicode="&#x1ee5;" horiz-adv-x="569" d="M159 -10q-122 0 -122 134q0 20 2.5 42.5t8.5 48.5l66 306h67l-62 -294q-10 -44 -10 -78q0 -99 86 -99q28 0 57 10t56 29t51 45t42 59l70 328h68l-91 -425q-3 -12 -3 -19q0 -17 19 -17l-13 -60q-8 -1 -13.5 -1.5t-10.5 -0.5q-23 0 -35 10.5t-12 28.5q0 3 0.5 8t2 14t4 23 t7.5 36q-46 -61 -108 -94.5t-127 -33.5zM143 -166l20 98h62l-20 -98h-62z" />
<glyph unicode="&#x1ef2;" horiz-adv-x="607" d="M257 266l-166 444h77l137 -382l300 382h76l-356 -446l-56 -264h-69zM339 917h70l38 -93l-49 -17z" />
<glyph unicode="&#x1ef3;" horiz-adv-x="489" d="M-36 -169q31 5 53.5 12t40 20t33 32t34.5 48l33 49l-107 529h71l84 -458l41 67q43 70 73 123t51.5 97.5t36 85t26.5 85.5h67q-14 -48 -29 -89.5t-37.5 -88t-56 -104t-83.5 -136.5l-81 -129q-35 -55 -63.5 -92t-56 -60t-56.5 -33.5t-65 -12.5zM230 730h70l38 -93l-49 -17z " />
<glyph unicode="&#x1ef8;" horiz-adv-x="607" d="M257 266l-166 444h77l137 -382l300 382h76l-356 -446l-56 -264h-69zM454 825q-21 0 -35.5 6t-26.5 13.5t-24 14t-27 6.5t-26 -7t-17.5 -15.5t-10 -16t-3.5 -9.5h-42q1 5 8 20.5t20 31.5t33 28.5t47 12.5q20 0 33.5 -6.5t25.5 -14.5t24 -14.5t30 -6.5t30.5 7t19.5 16 t10.5 16.5t3.5 9.5h42q-1 -5 -8 -20t-21 -31t-35 -28.5t-51 -12.5z" />
<glyph unicode="&#x1ef9;" horiz-adv-x="489" d="M-36 -169q31 5 53.5 12t40 20t33 32t34.5 48l33 49l-107 529h71l84 -458l41 67q43 70 73 123t51.5 97.5t36 85t26.5 85.5h67q-14 -48 -29 -89.5t-37.5 -88t-56 -104t-83.5 -136.5l-81 -129q-35 -55 -63.5 -92t-56 -60t-56.5 -33.5t-65 -12.5zM352 638q-21 0 -35.5 6 t-26.5 13.5t-24 14t-27 6.5t-26 -7t-17.5 -15.5t-10 -16t-3.5 -9.5h-42q1 5 8 20.5t20 31.5t33 28.5t47 12.5q20 0 33.5 -6.5t25.5 -14.5t24 -14.5t30 -6.5t30.5 7t19.5 16t10.5 16.5t3.5 9.5h42q-1 -5 -8 -20t-21 -31t-35 -28.5t-51 -12.5z" />
<glyph unicode="&#x2000;" horiz-adv-x="466" />
<glyph unicode="&#x2001;" horiz-adv-x="933" />
<glyph unicode="&#x2002;" horiz-adv-x="551" />
<glyph unicode="&#x2003;" horiz-adv-x="871" />
<glyph unicode="&#x2004;" horiz-adv-x="311" />
<glyph unicode="&#x2005;" horiz-adv-x="233" />
<glyph unicode="&#x2006;" horiz-adv-x="155" />
<glyph unicode="&#x2007;" horiz-adv-x="155" />
<glyph unicode="&#x2008;" horiz-adv-x="116" />
<glyph unicode="&#x2009;" horiz-adv-x="186" />
<glyph unicode="&#x200a;" horiz-adv-x="51" />
<glyph unicode="&#x2010;" horiz-adv-x="405" d="M51 241l13 63h278l-13 -63h-278z" />
<glyph unicode="&#x2011;" horiz-adv-x="405" d="M51 241l13 63h278l-13 -63h-278z" />
<glyph unicode="&#x2012;" horiz-adv-x="405" d="M51 241l13 63h278l-13 -63h-278z" />
<glyph unicode="&#x2013;" horiz-adv-x="548" d="M51 241l13 63h420l-13 -63h-420z" />
<glyph unicode="&#x2014;" horiz-adv-x="862" d="M51 241l13 63h734l-13 -63h-734z" />
<glyph unicode="&#x2018;" horiz-adv-x="193" d="M213 730l-39 -106h23l-21 -103h-67l22 103l47 106h35z" />
<glyph unicode="&#x2019;" horiz-adv-x="188" d="M114 521l39 106h-23l21 103h67l-22 -103l-47 -106h-35z" />
<glyph unicode="&#x201a;" horiz-adv-x="225" d="M1 -104l38 104h-24l22 102h67l-22 -102l-46 -104h-35z" />
<glyph unicode="&#x201c;" horiz-adv-x="308" d="M213 730l-39 -106h23l-21 -103h-67l22 103l47 106h35zM327 730l-38 -106h23l-21 -103h-67l21 103l48 106h34z" />
<glyph unicode="&#x201d;" horiz-adv-x="303" d="M115 521l38 107h-23l22 102h67l-22 -102l-47 -107h-35zM230 521l38 107h-23l21 102h67l-21 -102l-47 -107h-35z" />
<glyph unicode="&#x201e;" horiz-adv-x="341" d="M1 -104l38 104h-24l22 102h67l-22 -102l-46 -104h-35zM116 -104l38 104h-23l22 102h67l-23 -102l-46 -104h-35z" />
<glyph unicode="&#x2020;" horiz-adv-x="395" d="M74 -130l78 370h-125l13 62h125l101 473h65l-101 -473h125l-13 -62h-125l-78 -370h-65z" />
<glyph unicode="&#x2021;" horiz-adv-x="396" d="M75 -130l61 289h-125l13 63h125l24 110h-125l13 63h125l81 380h65l-81 -380h125l-14 -63h-124l-24 -110h125l-13 -63h-125l-61 -289h-65z" />
<glyph unicode="&#x2022;" horiz-adv-x="341" d="M266 361q0 -21 -9 -40t-24 -33.5t-34.5 -23t-39.5 -8.5q-30 0 -49 21t-19 53q0 21 9 40t24 33.5t34 23t39 8.5q32 0 50.5 -21.5t18.5 -52.5z" />
<glyph unicode="&#x2026;" horiz-adv-x="449" d="M2 0l21 98h58l-21 -98h-58zM133 0l21 98h57l-21 -98h-57zM263 0l21 98h58l-21 -98h-58z" />
<glyph unicode="&#x202f;" horiz-adv-x="186" />
<glyph unicode="&#x2030;" horiz-adv-x="1023" d="M219 433q-54 0 -85.5 34t-31.5 83q0 34 15 65t40 54.5t56 37t64 13.5q54 0 85.5 -34t31.5 -84q0 -34 -15 -64.5t-40 -54t-56 -37t-64 -13.5zM228 472q21 0 41.5 10.5t36.5 28t26 40t10 46.5q0 35 -20.5 59t-53.5 24q-21 0 -41.5 -10.5t-36.5 -27.5t-26 -40t-10 -47 q0 -34 20.5 -58.5t53.5 -24.5zM447 -10q-54 0 -86 34t-32 84q0 34 15 64.5t40 54t56 37t64 13.5q54 0 85.5 -34t31.5 -84q0 -34 -15 -64.5t-39.5 -54t-55.5 -37t-64 -13.5zM454 30q21 0 42 10.5t37.5 27.5t26.5 39.5t10 46.5q0 35 -20.5 59.5t-53.5 24.5q-21 0 -42 -10.5 t-37.5 -28t-26.5 -40t-10 -46.5q0 -35 20.5 -59t53.5 -24zM783 -10q-54 0 -85.5 34t-31.5 84q0 34 15 64.5t40 54t56 37t64 13.5q54 0 85 -34t31 -84q0 -34 -15 -64.5t-39.5 -54t-55.5 -37t-64 -13.5zM791 30q21 0 42 10.5t37 27.5t26 39.5t10 46.5q0 35 -20.5 59.5 t-53.5 24.5q-21 0 -42 -10.5t-37 -28t-26 -40t-10 -46.5q0 -35 20 -59t54 -24zM13 27l669 687l28 -30l-669 -688z" />
<glyph unicode="&#x2039;" horiz-adv-x="339" d="M36 276l274 178l-12 -59l-210 -136l152 -134l-13 -59l-199 173z" />
<glyph unicode="&#x203a;" horiz-adv-x="339" d="M285 239l-274 -173l13 59l210 134l-152 136l12 59l198 -178z" />
<glyph unicode="&#x2044;" horiz-adv-x="154" d="M-260 27l669 687l28 -30l-669 -688z" />
<glyph unicode="&#x205f;" horiz-adv-x="233" />
<glyph unicode="&#x2070;" horiz-adv-x="441" d="M244 406q-38 0 -65.5 15t-45.5 38.5t-26.5 53t-8.5 59.5q0 41 18 83t49.5 76.5t73.5 56.5t90 22q38 0 65 -15t44.5 -39t26 -53.5t8.5 -58.5q0 -41 -17.5 -83.5t-48.5 -77t-73 -56t-90 -21.5zM145 577q0 -23 6.5 -46t20 -41t33.5 -29t48 -11q40 0 72 18.5t55 46.5t35.5 61 t12.5 62q0 24 -7 47t-20.5 41t-33.5 29t-47 11q-40 0 -72 -18.5t-55 -47t-35.5 -61.5t-12.5 -62z" />
<glyph unicode="&#x2074;" horiz-adv-x="371" d="M265 411l22 103h-216l9 42l283 254h31l-54 -253h56l-10 -43h-55l-21 -103h-45zM128 557h170l40 192z" />
<glyph unicode="&#x2075;" horiz-adv-x="363" d="M260 665q54 0 88 -29t34 -76q0 -34 -15.5 -62t-41.5 -48.5t-59.5 -32t-70.5 -11.5q-47 0 -80.5 20t-44.5 55l35 25q11 -26 37.5 -42t64.5 -16q25 0 48.5 8t41 22t28 33.5t10.5 43.5q0 36 -26.5 55t-59.5 19q-29 0 -58.5 -13t-48.5 -34h-41q7 18 22 51.5t30 69t28 65.5 t18 42h214l-10 -44h-180l-58 -131q41 30 95 30z" />
<glyph unicode="&#x2076;" horiz-adv-x="393" d="M414 561q0 -32 -16 -61t-42 -51t-61 -34.5t-72 -12.5q-59 0 -93 35t-34 97q0 58 16 108t45 87.5t69.5 59t89.5 21.5q43 0 74 -18.5t42 -52.5l-34 -29q-7 26 -32 42t-60 16q-54 0 -96 -41.5t-59 -117.5q20 30 58 47.5t76 17.5q58 0 93.5 -32.5t35.5 -80.5zM234 443 q26 0 50.5 9t43.5 24t30.5 35t11.5 42q0 35 -27 58.5t-69 23.5q-26 0 -50.5 -9t-43.5 -24t-30.5 -34.5t-11.5 -40.5q0 -35 27 -59.5t69 -24.5z" />
<glyph unicode="&#x2077;" horiz-adv-x="342" d="M360 766h-237l9 44h307l-309 -399h-50z" />
<glyph unicode="&#x2078;" horiz-adv-x="383" d="M394 538q0 -29 -15.5 -53t-41 -41.5t-58.5 -27.5t-67 -10q-60 0 -94.5 30t-34.5 72q0 23 9.5 41.5t25.5 33t36 25t40 17.5q-23 9 -39.5 27t-16.5 44t15 47t38 36t52 23t56 8q23 0 44.5 -6t38 -17.5t26.5 -27.5t10 -36q0 -37 -27.5 -61.5t-65.5 -36.5q30 -11 49.5 -33 t19.5 -54zM349 537q0 16 -8 28.5t-21 21.5t-30 13.5t-34 4.5q-23 0 -45.5 -6.5t-40.5 -18t-29.5 -28t-11.5 -35.5q0 -16 8 -28.5t21.5 -21t30.5 -13t35 -4.5q22 0 44 6.5t40 17.5t29.5 27t11.5 36zM182 697q0 -13 7 -23.5t18.5 -17.5t26 -10.5t29.5 -3.5q18 0 37 5t35 14 t26.5 22t10.5 30q0 26 -25 40t-57 14q-20 0 -39.5 -5t-34.5 -14t-24.5 -22t-9.5 -29z" />
<glyph unicode="&#x2079;" horiz-adv-x="393" d="M109 651q0 32 15.5 61t42 50.5t60.5 34.5t71 13q60 0 94 -35t34 -97q0 -58 -16 -108t-45 -87.5t-69.5 -59t-89.5 -21.5q-42 0 -73 19t-42 53l33 28q8 -26 33 -42t60 -16q54 0 95.5 41.5t58.5 117.5q-20 -29 -58 -47.5t-76 -18.5q-29 0 -52.5 9t-40 24t-26 36t-9.5 45z M289 769q-26 0 -50.5 -9t-43.5 -24t-30.5 -35t-11.5 -42q0 -34 27 -58t69 -24q25 0 49.5 9t43.5 24t30.5 34.5t11.5 40.5q0 35 -26.5 59.5t-68.5 24.5z" />
<glyph unicode="&#x2080;" horiz-adv-x="441" d="M140 -85q-39 0 -66.5 15t-45 38.5t-26 53t-8.5 59.5q0 41 18 83t49.5 76.5t73.5 56.5t90 22q38 0 65 -15t44.5 -39t26 -53.5t8.5 -58.5q0 -41 -18 -83.5t-48.5 -77t-72.5 -56t-90 -21.5zM40 86q0 -23 6.5 -46t20 -41t34 -29t48.5 -11q39 0 71.5 18.5t55 47t35 61 t12.5 61.5q0 24 -6.5 47t-20 41t-34 29t-47.5 11q-39 0 -71.5 -18.5t-55.5 -47t-35.5 -61.5t-12.5 -62z" />
<glyph unicode="&#x2081;" horiz-adv-x="276" d="M185 -36l-9 -44h-209l9 44h85l66 309q-7 -7 -20 -15t-29 -15.5t-32 -12.5t-29 -5l10 44q16 0 35.5 8.5t36 18.5t27.5 19t11 10h46l-77 -361h79z" />
<glyph unicode="&#x2082;" horiz-adv-x="377" d="M-44 -80q8 39 21.5 67.5t33 50.5t45.5 38t59 28q26 9 53 18t49.5 21.5t36.5 30.5t14 45q0 26 -19.5 44t-61.5 18q-24 0 -44.5 -5.5t-37 -14t-29.5 -18.5t-22 -18l-22 32q5 5 19 16t35.5 22.5t51 20t64.5 8.5q60 0 88.5 -27t28.5 -69q0 -31 -12 -53.5t-33 -39.5t-51 -30 t-66 -25q-34 -11 -56 -25.5t-36 -30t-21 -31.5t-10 -29h231l-9 -44h-300z" />
<glyph unicode="&#x2083;" horiz-adv-x="375" d="M99 -85q-26 0 -49.5 5.5t-41 16.5t-27.5 27.5t-10 39.5l32 28q0 -13 7 -26t20 -23.5t32.5 -17t45.5 -6.5q25 0 48 6t40.5 16.5t27.5 25t10 32.5q0 32 -33.5 49t-92.5 17h-22l9 40h21q66 0 105.5 19.5t39.5 57.5q0 28 -25.5 44.5t-61.5 16.5q-39 0 -70.5 -15.5 t-51.5 -40.5l-23 34q24 29 66 46t87 17q58 0 92.5 -26.5t34.5 -67.5q0 -40 -27.5 -66.5t-80.5 -37.5q38 -6 58.5 -29.5t20.5 -55.5q0 -30 -15.5 -53t-41 -39.5t-58 -25t-66.5 -8.5z" />
<glyph unicode="&#x2084;" horiz-adv-x="370" d="M160 -80l22 103h-217l9 42l284 254h31l-54 -252h56l-10 -44h-55l-22 -103h-44zM23 67h170l40 191z" />
<glyph unicode="&#x2085;" horiz-adv-x="363" d="M157 174q54 0 87.5 -29t33.5 -76q0 -34 -15.5 -62t-41 -48.5t-59.5 -32t-70 -11.5q-47 0 -80.5 20.5t-45.5 53.5l35 26q12 -26 38.5 -42t64.5 -16q25 0 48 8t41 22t28.5 33.5t10.5 43.5q0 36 -27 55t-60 19q-29 0 -58 -13t-49 -34h-41q7 18 22 51.5t30.5 69t28.5 65.5 t18 42h213l-10 -44h-179l-59 -130q40 29 96 29z" />
<glyph unicode="&#x2086;" horiz-adv-x="392" d="M309 73q0 -32 -15.5 -60.5t-42 -50.5t-60.5 -34.5t-71 -12.5q-59 0 -93 35t-34 97q0 58 16 108t45 87t69.5 58.5t89.5 21.5q42 0 73 -18.5t42 -52.5l-33 -29q-8 26 -33 42t-59 16q-55 0 -96.5 -41t-58.5 -118q20 30 58 48t76 18q58 0 92.5 -33t34.5 -81zM131 -44 q25 0 49.5 9t43.5 24t30.5 34.5t11.5 41.5q0 35 -26.5 59t-68.5 24q-26 0 -51 -9t-44 -24t-30.5 -34.5t-11.5 -41.5q0 -35 27.5 -59t69.5 -24z" />
<glyph unicode="&#x2087;" horiz-adv-x="341" d="M256 275h-237l9 44h307l-309 -399h-50z" />
<glyph unicode="&#x2088;" horiz-adv-x="384" d="M290 47q0 -29 -15.5 -53t-41 -41.5t-58.5 -27.5t-67 -10q-60 0 -94.5 30t-34.5 72q0 23 9.5 41.5t25.5 33.5t36 25.5t40 16.5q-23 9 -39.5 27t-16.5 44t15 47t38 36t52 23t56 8q23 0 44.5 -6t38.5 -17.5t27 -27.5t10 -36q0 -37 -28 -61.5t-66 -36.5q31 -11 50 -33t19 -54 zM245 46q0 16 -8 28.5t-21.5 21.5t-30 13.5t-34.5 4.5q-22 0 -44.5 -6.5t-40.5 -18t-29.5 -28t-11.5 -36.5q0 -15 8 -27.5t21.5 -21t30.5 -13t35 -4.5q22 0 44 6.5t40 17.5t29.5 27t11.5 36zM79 205q0 -26 25.5 -40t55.5 -14q18 0 37 5t34.5 14t26 22t10.5 30 q0 26 -24.5 40.5t-57.5 14.5q-20 0 -39.5 -5t-34.5 -14.5t-24 -23t-9 -29.5z" />
<glyph unicode="&#x2089;" horiz-adv-x="394" d="M6 163q0 33 15.5 61.5t42 50.5t60.5 34.5t71 12.5q60 0 94 -35t34 -97q0 -57 -16 -107.5t-45 -87.5t-69.5 -58.5t-89.5 -21.5q-43 0 -74 18.5t-42 52.5l34 29q8 -26 32.5 -42t59.5 -16q54 0 96 41.5t59 116.5q-21 -29 -58.5 -47t-76.5 -18q-58 0 -92.5 32.5t-34.5 80.5z M185 281q-26 0 -50.5 -9t-43 -24t-30 -35t-11.5 -41q0 -35 26.5 -58.5t68.5 -23.5q26 0 50.5 9t43 24t30 34.5t11.5 40.5q0 34 -26.5 58.5t-68.5 24.5z" />
<glyph unicode="&#x20a1;" horiz-adv-x="530" d="M156 1q-62 23 -96 79.5t-34 129.5q0 54 18.5 104.5t50.5 92t76 71.5t95 43l27 124h36l-25 -117q8 1 16.5 1.5t17.5 0.5q7 0 13.5 -0.5t12.5 -1.5l25 117h37l-26 -123q45 -13 74.5 -42.5t40.5 -73.5l-71 -21q-12 40 -44 62.5t-77 22.5q-43 0 -84 -20t-72.5 -54t-51 -80 t-19.5 -97q0 -36 10 -66.5t28.5 -53.5t44 -36t56.5 -13q23 0 47.5 7t46.5 19.5t40 28.5t27 34l62 -20q-26 -45 -71 -76.5t-100 -44.5l-24 -118h-37l24 112q-7 -1 -13.5 -1.5t-12.5 -0.5q-18 0 -34 3l-24 -113h-36z" />
<glyph unicode="&#x20a3;" horiz-adv-x="591" d="M53 0l28 134h-86l11 54h87l111 522h443l-13 -62h-374l-55 -261h315l-12 -58h-316l-30 -141h126l-11 -54h-127l-28 -134h-69z" />
<glyph unicode="&#x20a4;" horiz-adv-x="468" d="M69 393h78q-8 31 -16 60.5t-8 60.5q0 41 18 77.5t48 64t68.5 43.5t78.5 16q53 0 92.5 -28t58.5 -77l-48 -42q-14 42 -46 66t-70 24q-26 0 -51 -11t-44 -30.5t-30.5 -45.5t-11.5 -55q0 -30 9 -60.5t17 -62.5h178l-9 -43h-159q2 -12 3 -24t1 -25v-12h147l-9 -42h-143 q-4 -20 -13.5 -40.5t-26 -43.5t-41 -49.5t-60.5 -59.5q36 9 71 9q20 0 36.5 -3t31.5 -6t30.5 -6t32.5 -3q18 0 39 4.5t49 13.5l6 -52q-55 -26 -110 -26q-21 0 -39.5 3.5t-36.5 8t-37 8.5t-41 4q-23 0 -52 -4.5t-55 -12.5l-8 50q40 35 69 62.5t48 51.5t29.5 46t15.5 45h-110 l9 42h106v5q0 14 -2 28l-4 28h-98z" />
<glyph unicode="&#x20a6;" horiz-adv-x="806" d="M783 376h-81l-14 -62h83l-9 -43h-83l-57 -271h-60l-146 271h-232l-57 -271h-70l57 271h-83l9 43h83l13 62h-82l9 43h82l63 291h54l155 -291h224l62 290h70l-62 -290h81zM193 314h200l-34 62h-153zM473 314h146l13 62h-192zM215 419h121l-86 161zM578 119l32 152h-114z " />
<glyph unicode="&#x20a9;" horiz-adv-x="1063" d="M51 361h146l-13 69h-118l9 42h101l-44 238h75l40 -238h249l-41 233h67l41 -252l148 252h66l-140 -233h250l142 238h75l-146 -238h102l-9 -42h-119l-42 -69h146l-9 -43h-164l-194 -318h-62l-65 351l-216 -351h-61l-60 318h-163zM654 81l141 237h-185zM314 81l144 237h-184 zM602 361h219l41 69h-250l-17 -28zM504 430h-250l12 -69h218l25 41z" />
<glyph unicode="&#x20ac;" horiz-adv-x="763" d="M155 416q19 58 55.5 112t86 95t111 66t131.5 25q91 0 145.5 -43t71.5 -112l-63 -34q-9 35 -26.5 59t-40.5 39t-50 21.5t-54 6.5q-53 0 -99.5 -19.5t-84.5 -51.5t-66.5 -75t-45.5 -89h321l-27 -43h-307q-7 -31 -9 -62h286l-27 -43h-258q4 -44 19 -82.5t39.5 -67t58.5 -45 t76 -16.5q28 0 59.5 7.5t62.5 24t60 41t53 59.5l51 -30q-25 -40 -60.5 -70.5t-76.5 -51.5t-84 -32t-82 -11q-56 0 -100 22.5t-75.5 60.5t-49.5 87.5t-21 103.5h-109l28 43h80q2 31 9 62h-68l27 43h53z" />
<glyph unicode="&#x20b9;" horiz-adv-x="453" d="M468 556h-95q1 -8 1.5 -15.5t0.5 -15.5q0 -43 -16 -84.5t-43 -75.5t-63.5 -58.5t-78.5 -32.5l108 -274h-79l-128 324h61q34 0 64.5 17t53.5 44.5t36 62t13 69.5q0 17 -5 39h-205l9 42h180q-14 23 -35 36.5t-47 13.5h-88l14 62h375l-9 -43h-172q28 -28 42 -69h115z" />
<glyph unicode="&#x2113;" horiz-adv-x="333" d="M174 -6q-48 0 -74.5 26.5t-26.5 77.5v512q0 28 9 51.5t25 41t37.5 27.5t46.5 10q50 0 80.5 -36t30.5 -94q0 -39 -14 -87t-37.5 -96t-53.5 -92.5t-63 -75.5v-141q0 -29 18 -46t49 -17q12 0 27 4t29 9l12 -55q-20 -8 -46.5 -13.5t-48.5 -5.5zM246 604q0 39 -14 60t-40 21 t-42 -20.5t-16 -54.5v-278q22 27 42 62.5t35.5 73t25 73t9.5 63.5z" />
<glyph unicode="&#x2116;" horiz-adv-x="1090" d="M216 580l-123 -580h-70l151 710h54l316 -591l125 590h70l-151 -709h-60zM907 348q-33 0 -58.5 12t-43.5 32t-27 46.5t-9 56.5q0 42 17 81.5t46.5 69.5t68.5 48t83 18q32 0 57.5 -11.5t43.5 -31.5t27.5 -47t9.5 -58q0 -42 -17 -81t-46.5 -69t-68.5 -48t-83 -18zM827 502 q0 -45 24.5 -75.5t65.5 -30.5q27 0 53.5 13t47.5 35t33.5 51.5t12.5 61.5q0 45 -25 75.5t-65 30.5q-28 0 -54.5 -13t-47 -35t-33 -51t-12.5 -62z" />
<glyph unicode="&#x2120;" horiz-adv-x="688" d="M638 710h67l-61 -286h-47l46 217l-116 -175h-39l-42 175l-46 -217h-48l61 286h66l40 -187zM315 641q-8 14 -26.5 22.5t-43.5 8.5q-34 0 -50 -12t-16 -32q0 -23 61 -38q37 -10 60 -25.5t23 -48.5q0 -49 -37 -72.5t-91 -23.5q-68 0 -109 43l30 36q12 -15 35 -25.5t54 -10.5 t48.5 10t17.5 31q0 16 -15 24.5t-46 17.5q-36 10 -58.5 24.5t-22.5 44.5q0 24 10 42.5t27 31t40 19.5t49 7q56 0 89 -33z" />
<glyph unicode="&#x2122;" horiz-adv-x="699" d="M363 664h-90l-51 -240h-48l50 240h-90l11 48h228zM416 710h67l39 -187l120 187h67l-61 -286h-48l46 217l-116 -175h-39l-42 175l-46 -217h-48z" />
<glyph unicode="&#x2126;" horiz-adv-x="807" d="M55 62h190q-85 45 -133.5 125t-48.5 178q0 69 25 132.5t68.5 111.5t103.5 77t131 29q70 0 130 -29t103.5 -77t68.5 -111.5t25 -132.5q0 -98 -48.5 -178t-133.5 -125h191v-62h-289v62q49 14 88 45t66 72.5t41.5 89.5t14.5 96q0 53 -18 104.5t-51.5 92t-81 65t-106.5 24.5 q-60 0 -107.5 -24.5t-81 -65t-51.5 -92t-18 -104.5q0 -48 14.5 -96t41.5 -89.5t66 -72.5t89 -45v-62h-289v62z" />
<glyph unicode="&#x212e;" horiz-adv-x="610" d="M302 22q69 0 116.5 22t76.5 53l22 -24q-35 -35 -87.5 -59t-127.5 -24q-59 0 -107.5 22t-83 59t-53.5 86t-19 103q0 55 19.5 104t54 86t83 59t106.5 22t107 -22t83.5 -59.5t54 -87.5t19.5 -107h-431v-150q30 -38 73 -60.5t94 -22.5zM302 499q-51 0 -94 -23t-73 -62v-125 h335v124q-31 40 -74.5 63t-93.5 23z" />
<glyph unicode="&#x2153;" horiz-adv-x="820" d="M39 27l669 687l28 -30l-669 -688zM266 371l-10 -45h-193l10 45h77l65 309q-6 -6 -18.5 -14.5t-27 -16t-29 -13t-26.5 -5.5l10 45q15 0 32.5 8t33 18t26 19t10.5 10h45l-77 -360h72zM563 -5q-26 0 -49.5 5.5t-41 17t-27.5 28t-10 38.5l32 28q0 -12 7 -25t20 -23.5 t32.5 -17.5t45.5 -7q25 0 48 6t40.5 16.5t27.5 25t10 32.5q0 32 -33 49t-93 17h-22l9 40h21q66 0 105.5 19.5t39.5 57.5q0 28 -25.5 44.5t-61.5 16.5q-39 0 -70.5 -15.5t-51.5 -40.5l-23 34q24 29 66 46t87 17q58 0 92.5 -26.5t34.5 -67.5q0 -40 -27.5 -66.5t-80.5 -37.5 q38 -6 58.5 -29.5t20.5 -55.5q0 -30 -15.5 -53t-41 -39.5t-58 -25t-66.5 -8.5z" />
<glyph unicode="&#x2154;" horiz-adv-x="835" d="M47 327q8 39 21 67.5t32 50t44.5 37.5t57.5 28q25 10 52 19t48.5 21.5t35.5 30.5t14 45q0 26 -19.5 43.5t-60.5 17.5q-23 0 -42.5 -5.5t-36 -14t-29 -18t-20.5 -17.5l-23 31q5 5 18.5 16.5t35 23t50 20t62.5 8.5q59 0 86.5 -27t27.5 -69q0 -31 -11.5 -53.5t-32.5 -40 t-50 -30t-64 -24.5q-33 -11 -55 -25.5t-35.5 -30t-20 -31.5t-9.5 -30h220l-8 -43h-288zM91 27l669 687l28 -30l-669 -688zM577 -5q-26 0 -49.5 5.5t-41 17t-27.5 28t-10 38.5l32 28q0 -12 7 -25t20 -23.5t32.5 -17.5t45.5 -7q25 0 48 6t40.5 16.5t27.5 25t10 32.5 q0 32 -33 49t-93 17h-22l9 40h21q66 0 105.5 19.5t39.5 57.5q0 28 -25.5 44.5t-61.5 16.5q-39 0 -70.5 -15.5t-51.5 -40.5l-23 34q24 29 66 46t87 17q58 0 92.5 -26.5t34.5 -67.5q0 -40 -27.5 -66.5t-80.5 -37.5q38 -6 58.5 -29.5t20.5 -55.5q0 -30 -15.5 -53t-41 -39.5 t-58 -25t-66.5 -8.5z" />
<glyph unicode="&#x215b;" horiz-adv-x="820" d="M49 27l669 687l28 -30l-669 -688zM265 371l-10 -45h-193l10 45h77l65 309q-6 -6 -18.5 -14.5t-27 -16t-29 -13t-26.5 -5.5l10 45q15 0 32.5 8t33 18t26 19t10.5 10h45l-77 -360h72zM562 -5q-60 0 -94.5 30t-34.5 72q0 23 9.5 41.5t25.5 33.5t36 25.5t40 16.5 q-23 9 -39.5 27t-16.5 44t15 47t38 36t52 23t56 8q23 0 44.5 -6t38.5 -17.5t27 -27.5t10 -36q0 -37 -28 -61.5t-66 -36.5q31 -11 50 -33t19 -54q0 -29 -15.5 -53t-41 -41.5t-58.5 -27.5t-67 -10zM574 39q22 0 44 6.5t40 17.5t29.5 27t11.5 36q0 16 -8 28.5t-21.5 21.5 t-30 13.5t-34.5 4.5q-22 0 -44.5 -6.5t-40.5 -18t-29.5 -28t-11.5 -36.5q0 -15 8 -27.5t21.5 -21t30.5 -13t35 -4.5zM614 231q18 0 37 5t34.5 14t26 22t10.5 30q0 26 -25 40.5t-57 14.5q-20 0 -39.5 -5t-34.5 -14.5t-24 -23t-9 -29.5q0 -26 25.5 -40t55.5 -14z" />
<glyph unicode="&#x215c;" horiz-adv-x="825" d="M191 321q-54 0 -90.5 23t-38.5 66l34 29q0 -13 6.5 -26t19.5 -23.5t32.5 -17t45.5 -6.5q25 0 48 6t40.5 16.5t28 25t10.5 32.5q0 31 -34 48t-93 17h-22l8 41h22q67 0 105.5 19.5t38.5 57.5q0 28 -25 44.5t-61 16.5q-39 0 -70.5 -15.5t-51.5 -40.5l-23 34q23 29 65.5 46 t88.5 17q57 0 91.5 -26.5t34.5 -68.5q0 -40 -28 -66t-80 -37q37 -6 57.5 -29.5t20.5 -55.5q0 -30 -15.5 -53.5t-40.5 -40t-57.5 -25t-66.5 -8.5zM73 27l669 687l28 -30l-669 -688zM567 -5q-60 0 -94.5 30t-34.5 72q0 23 9.5 41.5t25.5 33.5t36 25.5t40 16.5q-23 9 -39.5 27 t-16.5 44t15 47t38 36t52 23t56 8q23 0 44.5 -6t38.5 -17.5t27 -27.5t10 -36q0 -37 -28 -61.5t-66 -36.5q31 -11 50 -33t19 -54q0 -29 -15.5 -53t-41 -41.5t-58.5 -27.5t-67 -10zM579 39q22 0 44 6.5t40 17.5t29.5 27t11.5 36q0 16 -8 28.5t-21.5 21.5t-30 13.5t-34.5 4.5 q-22 0 -44.5 -6.5t-40.5 -18t-29.5 -28t-11.5 -36.5q0 -15 8 -27.5t21.5 -21t30.5 -13t35 -4.5zM619 231q18 0 37 5t34.5 14t26 22t10.5 30q0 26 -25 40.5t-57 14.5q-20 0 -39.5 -5t-34.5 -14.5t-24 -23t-9 -29.5q0 -26 25.5 -40t55.5 -14z" />
<glyph unicode="&#x215d;" horiz-adv-x="832" d="M248 585q54 0 88 -29t34 -76q0 -34 -15.5 -62t-41.5 -48.5t-59.5 -32t-70.5 -11.5q-47 0 -80.5 20t-44.5 55l35 25q11 -26 37.5 -42t64.5 -16q25 0 48.5 8t41 22t28 33.5t10.5 43.5q0 36 -26.5 55t-59.5 19q-29 0 -58.5 -13t-48.5 -34h-41q7 18 22 51.5t30 69t28 65.5 t18 42h214l-10 -44h-180l-58 -131q41 30 95 30zM71 27l669 687l28 -30l-669 -688zM573 -5q-60 0 -94.5 30t-34.5 72q0 23 9.5 41.5t25.5 33.5t36 25.5t40 16.5q-23 9 -39.5 27t-16.5 44t15 47t38 36t52 23t56 8q23 0 44.5 -6t38.5 -17.5t27 -27.5t10 -36q0 -37 -28 -61.5 t-66 -36.5q31 -11 50 -33t19 -54q0 -29 -15.5 -53t-41 -41.5t-58.5 -27.5t-67 -10zM585 39q22 0 44 6.5t40 17.5t29.5 27t11.5 36q0 16 -8 28.5t-21.5 21.5t-30 13.5t-34.5 4.5q-22 0 -44.5 -6.5t-40.5 -18t-29.5 -28t-11.5 -36.5q0 -15 8 -27.5t21.5 -21t30.5 -13t35 -4.5z M625 231q18 0 37 5t34.5 14t26 22t10.5 30q0 26 -25 40.5t-57 14.5q-20 0 -39.5 -5t-34.5 -14.5t-24 -23t-9 -29.5q0 -26 25.5 -40t55.5 -14z" />
<glyph unicode="&#x215e;" horiz-adv-x="811" d="M6 27l669 687l28 -30l-669 -688zM554 -5q-60 0 -94.5 30t-34.5 72q0 23 9.5 41.5t25.5 33.5t36 25.5t40 16.5q-23 9 -39.5 27t-16.5 44t15 47t38 36t52 23t56 8q23 0 44.5 -6t38.5 -17.5t27 -27.5t10 -36q0 -37 -28 -61.5t-66 -36.5q31 -11 50 -33t19 -54 q0 -29 -15.5 -53t-41 -41.5t-58.5 -27.5t-67 -10zM566 39q22 0 44 6.5t40 17.5t29.5 27t11.5 36q0 16 -8 28.5t-21.5 21.5t-30 13.5t-34.5 4.5q-22 0 -44.5 -6.5t-40.5 -18t-29.5 -28t-11.5 -36.5q0 -15 8 -27.5t21.5 -21t30.5 -13t35 -4.5zM606 231q18 0 37 5t34.5 14 t26 22t10.5 30q0 26 -25 40.5t-57 14.5q-20 0 -39.5 -5t-34.5 -14.5t-24 -23t-9 -29.5q0 -26 25.5 -40t55.5 -14zM359 686h-237l9 44h307l-308 -399h-51z" />
<glyph unicode="&#x2202;" horiz-adv-x="563" d="M251 -10q-48 0 -88 16t-69.5 43.5t-45.5 65t-16 80.5q0 47 19.5 90.5t53.5 76.5t78.5 52.5t94.5 19.5q63 0 109 -31t62 -87q3 23 4.5 51t1.5 51q0 66 -11.5 111.5t-32.5 73.5t-50.5 40t-66.5 12q-47 0 -89 -16t-63 -42l-38 41q32 38 84.5 57.5t110.5 19.5 q109 0 164.5 -74t55.5 -242q0 -101 -19.5 -177.5t-55 -128t-84.5 -77.5t-109 -26zM252 50q39 0 72.5 16t57.5 41.5t37.5 57.5t13.5 65q0 30 -12 57t-32.5 47.5t-48.5 32t-61 11.5q-36 0 -69 -14.5t-57.5 -38.5t-39.5 -56.5t-15 -68.5q0 -32 11.5 -59t32 -47.5t49 -32 t61.5 -11.5z" />
<glyph unicode="&#x2206;" horiz-adv-x="649" d="M596 53v-53h-601v53l273 657h58zM520 62l-223 566l-225 -566h448z" />
<glyph unicode="&#x220f;" horiz-adv-x="744" d="M558 648h-334v-738h-66v738h-83v62h629v-62h-80v-738h-66v738z" />
<glyph unicode="&#x2211;" horiz-adv-x="599" d="M522 653h-350v-4l203 -280l-218 -301v-4h380v-64h-463v51l226 309l-220 304v46h442v-57z" />
<glyph unicode="&#x2212;" horiz-adv-x="550" d="M72 267v56h403v-56h-403z" />
<glyph unicode="&#x2215;" horiz-adv-x="568" d="M-62 30l682 684l34 -34l-681 -684z" />
<glyph unicode="&#x2219;" horiz-adv-x="186" d="M52 246l23 112h58l-23 -112h-58z" />
<glyph unicode="&#x221a;" horiz-adv-x="407" d="M19 365h139l72 -303l118 728h66l-148 -790h-75l-90 314h-82v51z" />
<glyph unicode="&#x221e;" horiz-adv-x="692" d="M212 517q29 0 50.5 -8.5t38.5 -22.5t30 -33t24 -40q11 21 24 40t30 33t38.5 22.5t50.5 8.5q36 0 64.5 -13t49 -35.5t31.5 -53t11 -64.5t-12 -64t-33 -52.5t-50 -35.5t-62 -13q-27 0 -48.5 8t-38 21.5t-29.5 31t-24 37.5q-11 -20 -23.5 -37.5t-29.5 -31t-39.5 -21.5 t-52.5 -8q-31 0 -59.5 13t-50 35.5t-34.5 53t-13 64.5t12 64t33 52.5t50 35.5t62 13zM212 241q23 0 41 8.5t32 23.5t25.5 35t22.5 42q-11 22 -22 42.5t-25.5 35.5t-32 24t-41.5 9q-18 0 -36 -6.5t-33 -19.5t-24 -34t-9 -49q0 -29 9 -49.5t24 -34.5t33 -20.5t36 -6.5z M498 241q18 0 36.5 6.5t32.5 20.5t23 34.5t9 49.5q0 28 -9 49t-23 34t-32.5 19.5t-36.5 6.5q-24 0 -42 -9.5t-32 -25t-24.5 -36.5t-20.5 -44q10 -21 21.5 -40.5t25.5 -33.5t31.5 -22.5t40.5 -8.5z" />
<glyph unicode="&#x222b;" horiz-adv-x="296" d="M105 673q-1 10 -1 19v18q0 25 3.5 45t14 34.5t29 22.5t48.5 8q22 0 49.5 -6t48.5 -15l-17 -48q-14 6 -31 10t-28 4q-26 0 -41.5 -13t-15.5 -39v-7.5v-8.5t0.5 -13.5t1.5 -22.5l38 -684q2 -28 2 -35v-9q0 -48 -26 -74t-71 -26q-21 0 -48 6t-48 15l17 48q14 -6 30 -10 t28 -4q19 0 30 4.5t16.5 15.5t7 29.5t1.5 46.5z" />
<glyph unicode="&#x2248;" horiz-adv-x="442" d="M366 324q-14 -15 -34 -26t-49 -11q-24 0 -42.5 6.5t-34.5 14.5t-31.5 14.5t-31.5 6.5q-19 0 -30 -7t-17 -16l-32 36q11 16 29.5 27t47.5 11q22 0 39.5 -6.5t33.5 -14.5t32 -14.5t36 -6.5t32.5 5.5t20.5 13.5zM366 207q-14 -14 -34 -24t-49 -10q-24 0 -42.5 6.5 t-34.5 14.5t-31.5 14.5t-31.5 6.5q-19 0 -30 -7t-17 -16l-32 36q11 16 29.5 27.5t47.5 11.5q22 0 39.5 -6.5t33.5 -14.5t32 -14.5t36 -6.5t32.5 5t20.5 13z" />
<glyph unicode="&#x2260;" horiz-adv-x="476" d="M81 358h174l66 116l35 -16l-57 -100h84v-49h-112l-37 -66h149v-49h-177l-66 -116l-34 15l57 101h-82v49h109l38 66h-147v49z" />
<glyph unicode="&#x2264;" horiz-adv-x="459" d="M55 61v57h322v-57h-322zM54 383l318 159v-66l-219 -111l219 -109v-68l-318 157v38z" />
<glyph unicode="&#x2265;" horiz-adv-x="478" d="M71 118h322v-57h-322v57zM76 256l219 109l-219 111l-3 66l321 -159v-38l-318 -157v68z" />
<glyph unicode="&#x25ca;" horiz-adv-x="506" d="M303 730l186 -364l-186 -366h-73l-186 366l186 364h73zM425 354l-161 322l-151 -301l160 -322z" />
<glyph unicode="&#x25fc;" horiz-adv-x="520" d="M0 520h520v-520h-520v520z" />
<glyph unicode="&#xf6c3;" horiz-adv-x="149" d="M16 -199l32 74h-20l17 76h61l-16 -76l-40 -74h-34z" />
<glyph unicode="&#xfb06;" horiz-adv-x="773" d="M175 -10q-62 0 -111 22t-78 54l39 47q69 -71 160 -71q27 0 54 6.5t48.5 20t35.5 34t14 47.5q0 23 -10 37t-27 23t-40 14t-50 10q-32 6 -59.5 12.5t-47.5 18.5t-32 32.5t-12 54.5q0 45 20 78.5t52 55.5t70.5 33t76.5 11q31 0 61 -7.5t51 -23.5q-5 20 -8.5 38.5t-3.5 40.5 q0 30 9.5 60.5t31.5 54.5t58.5 39t90.5 15q65 0 89.5 -24t24.5 -70q0 -26 -6 -58.5t-14 -73.5h113l-12 -54h-112l-75 -354q-1 -5 -1.5 -8t-0.5 -6q0 -22 14 -32t35 -10q25 0 48 9.5t31 13.5l5 -55q-7 -3 -19.5 -8t-28 -10t-34 -9t-36.5 -4q-38 0 -63 18.5t-25 54.5 q0 10 2 20t4 22l76 358h-69l12 54h68q9 42 14 72.5t5 51.5q0 38 -16 51.5t-52 13.5q-38 0 -63.5 -11.5t-40.5 -30.5t-21.5 -43.5t-6.5 -50.5q0 -42 9.5 -73t14.5 -41l-41 -40q-23 35 -57.5 47t-68.5 12q-27 0 -53 -6t-46.5 -19t-33.5 -34t-13 -50q0 -25 10 -40.5t27.5 -24.5 t42 -14t53.5 -10t55.5 -11t47 -18t32.5 -32.5t12 -53.5q0 -44 -20.5 -77t-53.5 -55t-74 -33t-81 -11z" />
<glyph horiz-adv-x="564" d="M312 548h52l119 -548h-66l-36 165h-249l-106 -165h-67zM377 220l-56 250l-162 -250h218z" />
<glyph horiz-adv-x="557" d="M135 548h276q25 0 44.5 -9.5t32.5 -25.5t19.5 -36.5t6.5 -42.5q0 -49 -31 -91t-81 -62q38 -12 59 -42t21 -71q0 -37 -16.5 -68t-44 -53t-63 -34.5t-72.5 -12.5h-268zM297 54q23 0 45 9.5t39 26t27.5 37t10.5 43.5q0 32 -19.5 56.5t-54.5 24.5h-211l-41 -197h204zM334 302 q22 0 43 9t37 25t25.5 36.5t9.5 43.5q0 33 -19 54.5t-51 21.5h-194l-40 -190h189z" />
<glyph horiz-adv-x="570" d="M246 -5q-51 0 -90.5 20t-66.5 53t-41.5 75.5t-14.5 87.5q0 55 25 112t69.5 103.5t106 75.5t134.5 29q76 0 123.5 -33.5t62.5 -86.5l-56 -32q-8 27 -23 45t-34.5 29.5t-42.5 16t-45 4.5q-57 0 -104 -23.5t-81 -61t-52.5 -83.5t-18.5 -91q0 -37 11.5 -70.5t32.5 -58.5 t51.5 -39.5t68.5 -14.5q24 0 49.5 5.5t51 17.5t49 31t42.5 45l46 -29q-21 -30 -50.5 -54t-64 -40t-70 -24.5t-68.5 -8.5z" />
<glyph horiz-adv-x="600" d="M135 548h195q57 0 99.5 -16.5t70 -45.5t41 -68.5t13.5 -84.5q0 -72 -25.5 -133.5t-71 -105.5t-108 -69t-135.5 -25h-196zM225 56q62 0 111 21.5t83 58.5t52 85.5t18 101.5q0 37 -11 68t-32.5 53.5t-53.5 35t-74 12.5h-133l-92 -436h132z" />
<glyph horiz-adv-x="509" d="M135 548h377l-11 -56h-316l-39 -187h275l-12 -52h-274l-42 -197h322l-12 -56h-385z" />
<glyph horiz-adv-x="498" d="M135 548h374l-12 -56h-312l-40 -190h264l-12 -54h-264l-52 -248h-63z" />
<glyph horiz-adv-x="701" d="M300 -5q-60 0 -107 24.5t-79.5 65t-49.5 94t-17 111.5q0 80 33 156.5t89 136t129.5 96t153.5 36.5q85 0 142 -42t82 -111l-63 -45q-9 25 -24 49.5t-37 43.5t-51.5 30.5t-65.5 11.5q-65 0 -123 -32t-101.5 -83t-68.5 -115t-25 -127q0 -46 12.5 -89t36.5 -76t60 -52.5 t83 -19.5q48 0 92.5 19t82 51t66.5 73t45 85h-195l14 63h270l-10 -38q-17 -63 -53 -120.5t-86 -101t-110.5 -69t-124.5 -25.5z" />
<glyph horiz-adv-x="593" d="M439 76q-93 -80 -194 -80q-49 0 -88 19.5t-66.5 51.5t-42 74.5t-14.5 87.5q0 62 27 120t72 103t104.5 72t124.5 27q82 0 127.5 -33t62.5 -86l-56 -33q-15 50 -54.5 73t-93.5 23q-52 0 -98 -23t-80 -60.5t-53.5 -84t-19.5 -94.5q0 -37 11.5 -70t33 -57.5t52 -38.5 t67.5 -14q48 0 95.5 21.5t96.5 67.5l18 81h-124l9 48h178l-57 -271h-54z" />
<glyph horiz-adv-x="617" d="M135 548h62l-51 -239h329l50 239h62l-116 -548h-62l53 252h-328l-53 -252h-63z" />
<glyph horiz-adv-x="226" d="M135 547h62l-116 -547h-63z" />
<glyph horiz-adv-x="413" d="M83 -8q-74 0 -117 33l28 51q14 -11 40 -19.5t61 -8.5q42 0 70.5 14.5t47.5 42.5t31.5 69t24.5 95l59 278h63l-60 -278q-14 -63 -30.5 -114t-44 -87t-69 -56t-104.5 -20z" />
<glyph horiz-adv-x="539" d="M135 547h62l-66 -309l371 310h69l-282 -241l178 -307h-68l-157 270l-125 -102l-36 -168h-63z" />
<glyph horiz-adv-x="469" d="M135 548h62l-104 -492h311l-12 -56h-374z" />
<glyph horiz-adv-x="212" d="M53 637l76 93h72l-106 -110z" />
<glyph horiz-adv-x="726" d="M135 548h65l139 -364l293 364h65l-117 -548h-62l92 435l-271 -335h-36l-130 335l-92 -435h-63z" />
<glyph horiz-adv-x="642" d="M135 548h48l274 -439l93 438h63l-116 -547h-54l-271 431l-91 -431h-63z" />
<glyph horiz-adv-x="624" d="M247 -4q-51 0 -91 19t-67.5 51t-42 73.5t-14.5 86.5q0 62 27.5 120.5t74 104t107 73t125.5 27.5q51 0 91 -19.5t67 -52t41 -74t14 -85.5q0 -62 -27.5 -120.5t-73.5 -103.5t-106 -72.5t-125 -27.5zM260 53q54 0 100.5 23.5t81 61t54.5 84t20 92.5q0 36 -11 68.5t-32 57.5 t-51.5 39.5t-68.5 14.5q-53 0 -100 -23.5t-82 -60.5t-55 -84t-20 -93q0 -36 11 -68.5t32 -57.5t51.5 -39.5t69.5 -14.5z" />
<glyph horiz-adv-x="523" d="M135 548h236q32 0 57.5 -12.5t43 -33t27 -47t9.5 -54.5q0 -37 -16.5 -73t-44.5 -64.5t-65.5 -46.5t-79.5 -18h-179l-42 -199h-63zM310 255q28 0 52.5 12t42.5 31.5t28.5 44.5t10.5 52q0 42 -24.5 69.5t-63.5 27.5h-171l-50 -237h175z" />
<glyph horiz-adv-x="623" d="M414 45q-38 -23 -80 -36t-87 -13q-51 0 -91 19t-67.5 51t-42 73.5t-14.5 86.5q0 62 28 120.5t74.5 104t106.5 73t125 27.5q51 0 91 -19.5t67 -52t41 -74t14 -85.5q0 -69 -34 -133.5t-89 -110.5l50 -76h-62zM260 53q34 0 65.5 10t58.5 27l-56 85h63l35 -53 q42 38 65.5 89.5t23.5 103.5q0 36 -11 68.5t-31.5 57t-50.5 39.5t-69 15q-53 0 -100 -23.5t-82 -61t-55 -84.5t-20 -93q0 -36 11 -68.5t32 -57.5t51.5 -39.5t69.5 -14.5z" />
<glyph horiz-adv-x="550" d="M135 548h241q33 0 58.5 -12.5t43 -33t27 -47t9.5 -54.5q0 -32 -12.5 -63.5t-34.5 -57t-51.5 -44t-63.5 -25.5l94 -211h-72l-89 199h-162l-42 -199h-63zM315 255q27 0 51.5 12t43 31.5t29.5 44.5t11 51q0 40 -24.5 69t-64.5 29h-176l-50 -237h180z" />
<glyph horiz-adv-x="508" d="M200 -5q-131 0 -211 78l42 52q24 -32 70.5 -53.5t112.5 -21.5q71 0 113.5 27t42.5 78q0 39 -37.5 58t-108.5 35q-36 8 -63.5 18t-46.5 24t-28.5 32.5t-9.5 44.5q0 44 18.5 78t50.5 57.5t75 36t93 12.5q110 0 168 -63l-39 -50q-19 26 -54.5 42t-86.5 16 q-84 0 -121.5 -31.5t-37.5 -79.5q0 -35 33.5 -52t100.5 -33q37 -9 67 -19t51.5 -24.5t33 -34.5t11.5 -49q0 -45 -18.5 -78.5t-51 -55.5t-76 -33t-93.5 -11z" />
<glyph horiz-adv-x="509" d="M264 492h-201l12 56h462l-12 -56h-199l-104 -492h-63z" />
<glyph horiz-adv-x="624" d="M248 -4q-53 0 -89.5 14.5t-59 40t-32.5 60t-10 73.5q0 21 2.5 43t7.5 44l59 277h62l-58 -277q-4 -20 -6.5 -38.5t-2.5 -36.5q0 -30 7 -56t23.5 -45.5t42.5 -30.5t65 -11q52 0 90 19t65 49.5t43.5 69.5t25.5 80l59 277h62l-59 -277q-12 -56 -35 -105.5t-59.5 -87.5 t-87 -60t-115.5 -22z" />
<glyph horiz-adv-x="561" d="M67 548h66l100 -461l293 461h67l-352 -548h-55z" />
<glyph horiz-adv-x="1009" d="M100 710h77l50 -609l318 609h76l65 -609l308 609h79l-366 -710h-73l-75 597l-322 -597h-73z" />
<glyph horiz-adv-x="857" d="M66 548h68l104 -472l150 231l-49 237h59l37 -192l120 192h60l-150 -237l53 -231l304 472h68l-357 -548h-54l-61 264l-173 -264h-56z" />
<glyph horiz-adv-x="529" d="M224 270l-158 278h70l132 -233l230 233h70l-276 -278l153 -270h-69l-127 225l-223 -225h-70z" />
<glyph horiz-adv-x="526" d="M207 203l-145 345h68l119 -290l244 290h69l-293 -346l-43 -202h-63z" />
<glyph horiz-adv-x="525" d="M-18 49l473 443h-372l12 56h446l-11 -50l-468 -442h373l-12 -56h-451z" />
<glyph horiz-adv-x="596" d="M209 -10q-44 0 -78.5 17.5t-58 47t-36 69t-12.5 83.5q0 64 25 122.5t66.5 103t94 71t108.5 26.5q62 0 103 -33.5t57 -85.5l23 106h68l-110 -517h-68l22 105q-38 -52 -91 -83.5t-113 -31.5zM237 50q29 0 56.5 10t52 27t45.5 40.5t37 50.5l34 158q-8 58 -45 96t-94 38 q-45 0 -86.5 -23t-72.5 -59t-49.5 -81t-18.5 -90q0 -34 9.5 -64.5t27.5 -53t44.5 -36t59.5 -13.5z" />
<glyph horiz-adv-x="519" d="M130 -10q-30 0 -55 10t-42.5 28t-27 42.5t-9.5 52.5q0 49 23 84.5t58.5 58t79 33t84.5 10.5q51 0 86.5 -9t52.5 -18l11 47q4 20 4 42q0 50 -28.5 79t-82.5 29q-38 0 -81 -16t-91 -46l-13 45q48 29 99 48.5t102 19.5q82 0 122.5 -40.5t40.5 -109.5q0 -29 -6 -57l-68 -323 h-66l17 82q-44 -48 -99.5 -70t-110.5 -22zM158 42q21 0 44 4.5t45.5 13.5t43.5 23t37 32q21 22 25 39l18 85q-30 14 -63.5 20.5t-66.5 6.5q-29 0 -60.5 -7t-57.5 -22.5t-43 -40t-17 -60.5q0 -42 27 -68t68 -26z" />
<glyph horiz-adv-x="840" d="M222 -10q-48 0 -84.5 18t-62 48.5t-38.5 70.5t-13 83q0 59 24 116.5t65.5 102.5t98 73t121.5 28q47 0 77 -11.5t53 -32.5q-6 18 -12 42.5t-6 50.5q0 34 12.5 64.5t35.5 53.5t56 36.5t75 13.5q36 0 60 -7t38.5 -20t20 -31.5t5.5 -41.5q0 -26 -5.5 -58t-13.5 -68h112 l-12 -54h-112l-75 -354q-1 -3 -1 -6.5v-5.5q0 -23 14 -33.5t34 -10.5q24 0 45.5 8.5t34.5 14.5l5 -55q-21 -9 -52 -20t-68 -11q-38 0 -62.5 18.5t-24.5 56.5q0 11 3 25l80 373h-69l11 54h69q7 32 12.5 61t5.5 53q0 34 -17 54.5t-63 20.5q-30 0 -52 -11.5t-37 -30t-22.5 -43 t-7.5 -50.5q0 -23 4.5 -48t10 -48.5t11 -42.5t7.5 -30l-70 -21q-14 45 -46.5 65t-78.5 20q-47 0 -87.5 -23t-71 -59t-48 -80.5t-17.5 -88.5q0 -35 10 -65.5t28.5 -53.5t44 -36.5t57.5 -13.5q20 0 43.5 6t46 17.5t41.5 28t30 37.5l62 -20q-18 -31 -44.5 -55t-58 -40.5 t-65.5 -25t-67 -8.5z" />
<glyph horiz-adv-x="593" d="M211 -10q-44 0 -78.5 17.5t-58.5 47.5t-36.5 69.5t-12.5 83.5q0 62 24 120t64 103t92 72t109 27q62 0 102 -34.5t60 -83.5l68 318h68l-155 -730h-68l20 97q-38 -48 -91 -77.5t-107 -29.5zM238 50q24 0 53.5 10t56.5 27.5t48.5 41t30.5 50.5l33 161q-3 27 -15.5 51 t-32 41.5t-43.5 27.5t-49 10q-45 0 -86 -22.5t-71.5 -58.5t-48.5 -80.5t-18 -89.5q0 -35 10 -65.5t28.5 -53.5t45 -36.5t58.5 -13.5z" />
<glyph horiz-adv-x="570" d="M502 229q0 -53 -24.5 -96.5t-64.5 -74.5t-91 -48.5t-105 -17.5q-44 0 -80 13.5t-61 37t-38.5 55.5t-13.5 69q0 42 16.5 76.5t42 61.5t56.5 45.5t61 29.5q-35 17 -58 49t-23 75q0 49 24 87t60.5 64.5t81.5 40.5t87 14q34 0 66 -10t57 -29t40 -47.5t15 -64.5 q0 -33 -12.5 -60.5t-33.5 -50t-47.5 -40t-54.5 -28.5q43 -17 71.5 -57t28.5 -94zM433 227q0 29 -12 52t-31.5 39t-44.5 24.5t-51 8.5q-34 0 -69.5 -12.5t-64 -35.5t-47 -55t-18.5 -71q0 -29 11.5 -52t31 -39t44.5 -24.5t51 -8.5q34 0 69.5 12.5t64.5 35.5t47.5 55t18.5 71z M187 507q0 -24 10.5 -43t27.5 -32t38.5 -20t43.5 -7q27 0 57.5 9.5t56 28t42 45t16.5 60.5q0 24 -9.5 42.5t-26 31t-38.5 19.5t-47 7q-31 0 -61.5 -10t-55 -28.5t-39.5 -44.5t-15 -58z" />
<glyph horiz-adv-x="537" d="M192 -10q-72 0 -121.5 37t-66.5 100l52 34q16 -50 55.5 -79.5t93.5 -29.5q40 0 77.5 15.5t66 43t45.5 65t17 80.5q0 60 -35 97.5t-92 37.5q-44 0 -87.5 -21t-75.5 -59h-63q4 8 17 41t31 77.5t37.5 94t36 91t27.5 68.5l11 27h327l-14 -63h-275l-101 -255q31 29 69 44 t80 15q40 0 72.5 -13.5t56 -37.5t36.5 -57.5t13 -73.5q0 -60 -24.5 -111.5t-65 -88.5t-92.5 -58t-108 -21z" />
<glyph horiz-adv-x="363" d="M243 585q54 0 88 -29t34 -76q0 -34 -15.5 -62t-41.5 -48.5t-59.5 -32t-70.5 -11.5q-47 0 -80.5 20t-44.5 55l35 25q11 -26 37.5 -42t64.5 -16q25 0 48.5 8t41 22t28 33.5t10.5 43.5q0 36 -26.5 55t-59.5 19q-29 0 -58.5 -13t-48.5 -34h-41q7 18 22 51.5t30 69t28 65.5 t18 42h214l-10 -44h-180l-58 -131q41 30 95 30z" />
<glyph horiz-adv-x="384" d="M125 -5q-60 0 -94.5 30t-34.5 72q0 23 9.5 41.5t25.5 33.5t36 25.5t40 16.5q-23 9 -39.5 27t-16.5 44t15 47t38 36t52 23t56 8q23 0 44.5 -6t38.5 -17.5t27 -27.5t10 -36q0 -37 -28 -61.5t-66 -36.5q31 -11 50 -33t19 -54q0 -29 -15.5 -53t-41 -41.5t-58.5 -27.5t-67 -10 zM137 39q22 0 44 6.5t40 17.5t29.5 27t11.5 36q0 16 -8 28.5t-21.5 21.5t-30 13.5t-34.5 4.5q-22 0 -44.5 -6.5t-40.5 -18t-29.5 -28t-11.5 -36.5q0 -15 8 -27.5t21.5 -21t30.5 -13t35 -4.5zM177 231q18 0 37 5t34.5 14t26 22t10.5 30q0 26 -25 40.5t-57 14.5 q-20 0 -39.5 -5t-34.5 -14.5t-24 -23t-9 -29.5q0 -26 25.5 -40t55.5 -14z" />
<glyph horiz-adv-x="546" d="M292 0l40 190h-329l14 61l447 459h47l-97 -458h84l-14 -62h-84l-40 -190h-68zM352 252l75 352l-337 -352h262z" />
<glyph horiz-adv-x="213" d="M119 517h68l-155 -730h-68zM162 721h68l-19 -91h-68z" />
<glyph horiz-adv-x="225" d="M169 730h68l-155 -730h-68z" />
<glyph horiz-adv-x="588" d="M76 428q0 58 25 110t66 91.5t95 62.5t111 23q88 0 139 -59t51 -163q0 -99 -25.5 -189.5t-72 -160.5t-111 -111.5t-142.5 -41.5q-66 0 -112 35t-61 98l51 39q9 -51 45.5 -81t89.5 -30q42 0 80 20.5t70.5 60.5t58 97t41.5 131q-17 -29 -40.5 -53t-51 -41t-58.5 -26t-62 -9 q-42 0 -76.5 15t-59 41.5t-38 62.5t-13.5 78zM359 656q-40 0 -79 -17.5t-69.5 -47.5t-49 -69.5t-18.5 -82.5q0 -32 10 -59.5t28.5 -48t44 -32.5t56.5 -12q40 0 79 17.5t69.5 47.5t49.5 69t19 82q0 32 -10.5 60t-29 48.5t-44 32.5t-56.5 12z" />
<glyph horiz-adv-x="398" d="M13 62h128l123 581q-10 -12 -30.5 -26.5t-44.5 -28t-48.5 -22.5t-43.5 -9l13 64q25 0 54.5 14.5t55 32.5t43 33.5t18.5 17.5h69l-139 -657h120l-13 -62h-318z" />
<glyph horiz-adv-x="260" d="M256 371l-10 -45h-193l10 45h77l65 309q-6 -6 -18.5 -14.5t-27 -16t-29 -13t-26.5 -5.5l10 45q15 0 32.5 8t33 18t26 19t10.5 10h45l-77 -360h72z" />
<glyph horiz-adv-x="377" d="M-27 0q8 39 21.5 67.5t33 50.5t45.5 38t59 28q26 9 53 18t49.5 21.5t36.5 30.5t14 45q0 26 -19.5 44t-61.5 18q-24 0 -44.5 -5.5t-37 -14t-29.5 -18.5t-22 -18l-22 32q5 5 19 16t35.5 22.5t51 20t64.5 8.5q60 0 88.5 -27t28.5 -69q0 -32 -11.5 -54t-32.5 -39t-51 -30 t-67 -25q-34 -11 -56 -25.5t-36 -30t-21 -31.5t-10 -29h231l-9 -44h-300v0z" />
<glyph horiz-adv-x="370" d="M199 103h-217l9 42l284 254h31l-54 -252h56l-10 -44h-55l-22 -103h-44zM210 147l40 191l-210 -191h170z" />
<glyph horiz-adv-x="375" d="M116 -5q-26 0 -49.5 5.5t-41 17t-27.5 28t-10 38.5l32 28q0 -12 7 -25t20 -23.5t32.5 -17.5t45.5 -7q25 0 48 6t40.5 16.5t27.5 25t10 32.5q0 32 -33 49t-93 17h-22l9 40h21q66 0 105.5 19.5t39.5 57.5q0 28 -25.5 44.5t-61.5 16.5q-39 0 -70.5 -15.5t-51.5 -40.5l-23 34 q24 29 66 46t87 17q58 0 92.5 -26.5t34.5 -67.5q0 -40 -27.5 -66.5t-80.5 -37.5q38 -6 58.5 -29.5t20.5 -55.5q0 -30 -15.5 -53t-41 -39.5t-58 -25t-66.5 -8.5z" />
<glyph horiz-adv-x="592" d="M411 108q-48 -58 -102 -88t-111 -30q-42 0 -74.5 17.5t-54.5 46.5t-33.5 68t-11.5 82q0 64 25.5 123t67.5 104t96 72t111 27q58 0 100 -31.5t60 -79.5l21 102h61l-155 -734h-68zM232 50q28 0 55 10t52 26.5t46.5 39t39.5 47.5l35 166q-1 26 -11.5 49.5t-28.5 41.5 t-42.5 29t-51.5 11q-45 0 -87 -22.5t-74 -58.5t-51 -81.5t-19 -92.5q0 -34 9.5 -64t27 -52.5t43 -35.5t57.5 -13z" />
<glyph horiz-adv-x="499" d="M459 647h-360l13 63h469l-493 -710h-76z" />
<glyph horiz-adv-x="340" d="M342 686h-237l9 44h307l-308 -399h-51z" />
<glyph horiz-adv-x="588" d="M238 -10q-89 0 -139.5 59.5t-50.5 162.5q0 99 25.5 190t71.5 160.5t111 111t143 41.5q66 0 112 -35t61 -97l-52 -40q-10 51 -46 81.5t-89 30.5q-41 0 -79.5 -21t-71 -60.5t-58 -97.5t-41.5 -131q17 29 40.5 53t51.5 41t58.5 26t62.5 9q42 0 76.5 -15t58.5 -41.5 t37.5 -62.5t13.5 -78q0 -58 -25 -110t-66 -91.5t-94.5 -62.5t-110.5 -23zM251 50q40 0 79 17.5t69.5 47.5t49 69t18.5 82q0 32 -10 59.5t-28 48t-43.5 32.5t-56.5 12q-41 0 -79.5 -17.5t-69 -47.5t-49 -69t-18.5 -82q0 -32 10 -59.5t28.5 -48t44 -32.5t55.5 -12z" />
<glyph horiz-adv-x="311" d="M133 459h-73l13 62h73l37 176h70l-38 -176h118l-13 -62h-118l-97 -459h-70z" />
<glyph horiz-adv-x="558" d="M206 -9q-44 0 -79 11.5t-60.5 33t-39 52t-13.5 68.5l49 38q0 -61 39 -100t114 -39q39 0 75.5 12t64 33t44 49.5t16.5 61.5q0 59 -49.5 90.5t-139.5 31.5h-32l12 59h33q104 0 165.5 38.5t61.5 110.5q0 55 -35.5 86t-93.5 31q-29 0 -57 -8t-52.5 -21.5t-44.5 -32t-33 -39.5 l-37 46q19 27 46 48.5t58.5 36.5t66 23t68.5 8q43 0 77.5 -12.5t59 -34.5t37.5 -53t13 -68q0 -67 -43 -116.5t-127 -69.5q55 -11 85.5 -52t30.5 -97q0 -51 -24.5 -92.5t-64 -71t-89.5 -45.5t-102 -16z" />
<glyph horiz-adv-x="374" d="M185 321q-54 0 -90.5 23t-38.5 66l34 29q0 -13 6.5 -26t19.5 -23.5t32.5 -17t45.5 -6.5q25 0 48 6t40.5 16.5t28 25t10.5 32.5q0 31 -34 48t-93 17h-22l8 41h22q67 0 105.5 19.5t38.5 57.5q0 28 -25 44.5t-61 16.5q-39 0 -70.5 -15.5t-51.5 -40.5l-23 34q23 29 65.5 46 t88.5 17q57 0 91.5 -26.5t34.5 -68.5q0 -40 -28 -66t-80 -37q37 -6 57.5 -29.5t20.5 -55.5q0 -30 -15.5 -53.5t-40.5 -40t-57.5 -25t-66.5 -8.5z" />
<glyph horiz-adv-x="556" d="M-16 0q13 69 35.5 120.5t54 89.5t72 65.5t90.5 49.5q40 18 83 34.5t78.5 39.5t58 57t22.5 87q0 23 -7 43.5t-21 35.5t-36.5 24t-52.5 9q-36 0 -68 -11t-59 -27.5t-48 -35t-35 -33.5l-34 49q7 7 29 27t56.5 41t80 37.5t99.5 16.5q44 0 76.5 -13t53.5 -35.5t31.5 -52.5 t10.5 -63q0 -61 -23.5 -103.5t-60 -72.5t-82 -51.5t-88.5 -39.5q-57 -24 -95.5 -50t-63.5 -54t-38 -58.5t-20 -63.5h371l-13 -62h-457v0z" />
<glyph horiz-adv-x="374" d="M42 327q8 39 21.5 67.5t33 50t45.5 37.5t59 28q26 10 53.5 19t50 21.5t36.5 30.5t14 45q0 26 -20 43.5t-62 17.5q-24 0 -44 -5.5t-37 -14t-29.5 -18t-21.5 -17.5l-23 31q5 5 19 16.5t36 23t51 20t64 8.5q60 0 88.5 -27t28.5 -69q0 -31 -12 -53.5t-33 -40t-51 -30 t-66 -24.5q-34 -11 -56 -25.5t-36 -30t-21 -31.5t-10 -30h226l-9 -43h-295z" />
<glyph horiz-adv-x="565" d="M164 -10q-71 0 -99 37t-28 96q0 21 3.5 43.5t8.5 48.5l65 306h68l-63 -294q-5 -22 -7.5 -42t-2.5 -37q0 -44 19.5 -71t69.5 -27q29 0 58.5 11.5t56.5 31t49.5 45.5t38.5 55l70 328h68l-111 -521h-66l25 114q-21 -29 -47 -52t-55 -39t-60 -24.5t-61 -8.5z" />
<glyph horiz-adv-x="790" d="M64 521h72l48 -436l222 436h66l37 -436l234 436h71l-285 -521h-72l-40 418l-218 -418h-71z" />
<glyph horiz-adv-x="508" d="M32 -213q1 1 14.5 24t32.5 55.5t40.5 68.5t39.5 65l-104 521h72l83 -458l264 458h65l-431 -734h-76v0z" />
<glyph horiz-adv-x="658" d="M263 -10q-56 0 -96 25.5t-66 66.5t-38.5 91.5t-12.5 101.5q0 74 29 151.5t79 140.5t116.5 103t141.5 40q57 0 97 -26t65.5 -67t37.5 -92t12 -102q0 -49 -13 -100.5t-37 -99.5t-57.5 -90.5t-74 -74t-87 -50t-96.5 -18.5zM276 53q62 0 113.5 36.5t89 91t58 118.5t20.5 119 q0 43 -9 84t-28 73t-48 52t-69 20q-42 0 -79 -17.5t-68.5 -47t-56 -68t-42 -80.5t-26.5 -85t-9 -81q0 -42 8.5 -81t27 -68.5t48 -47.5t70.5 -18z" />
<glyph horiz-adv-x="157" d="M13 -166l20 98h62l-20 -98h-62z" />
<glyph horiz-adv-x="441" d="M157 -5q-39 0 -66.5 15t-45 38.5t-26 53t-8.5 59.5q0 41 18 83t49.5 76.5t73.5 56.5t90 22q38 0 65 -15t44.5 -39t26 -53.5t8.5 -58.5q0 -41 -18 -83.5t-48.5 -77t-72.5 -56t-90 -21.5zM166 39q39 0 71.5 18.5t55 47t35 61t12.5 61.5q0 24 -6.5 47t-20 41t-34 29 t-47.5 11q-39 0 -71.5 -18.5t-55.5 -47t-35.5 -61.5t-12.5 -62q0 -23 6.5 -46t20 -41t34 -29t48.5 -11z" />
<glyph horiz-adv-x="275" d="M-7 44h85l66 309q-7 -7 -20 -15t-29 -15.5t-32 -12.5t-29 -5l10 44q16 0 35.5 8.5t36 18.5t27.5 19t11 10h46l-77 -361h79l-9 -44h-209z" />
<glyph horiz-adv-x="363" d="M109 -5q-47 0 -80.5 20.5t-45.5 53.5l35 26q12 -26 38.5 -42t64.5 -16q25 0 48 8t41 22t28.5 33.5t10.5 43.5q0 36 -27 55t-60 19q-29 0 -58 -13t-49 -34h-41q7 18 22 51.5t30.5 69t28.5 65.5t18 42h213l-10 -44h-179l-59 -130q40 29 96 29q54 0 87.5 -29t33.5 -76 q0 -34 -15.5 -62t-41 -48.5t-59.5 -32t-70 -11.5z" />
<glyph horiz-adv-x="393" d="M137 -5q-59 0 -93 35t-34 97q0 58 16 108t45 87t69.5 58.5t89.5 21.5q42 0 73 -18.5t42 -52.5l-33 -29q-8 26 -33 42t-59 16q-55 0 -96.5 -41t-58.5 -118q20 30 58 48t76 18q58 0 92.5 -33t34.5 -81q0 -32 -15.5 -60.5t-42 -50.5t-60.5 -34.5t-71 -12.5zM148 36 q25 0 49.5 9t43.5 24t30.5 34.5t11.5 41.5q0 35 -26.5 59t-68.5 24q-26 0 -51 -9t-44 -24t-30.5 -34.5t-11.5 -41.5q0 -35 27.5 -59t69.5 -24z" />
<glyph horiz-adv-x="341" d="M273 355h-237l9 44h307l-309 -399h-50z" />
<glyph horiz-adv-x="393" d="M120 -5q-43 0 -74 18.5t-42 52.5l34 29q8 -26 32.5 -42t59.5 -16q54 0 96 41.5t59 116.5q-21 -29 -58.5 -47t-76.5 -18q-58 0 -92.5 32.5t-34.5 80.5q0 33 15.5 61.5t42 50.5t60.5 34.5t71 12.5q60 0 94 -35t34 -97q0 -57 -16 -107.5t-45 -87.5t-69.5 -58.5t-89.5 -21.5z M162 170q26 0 50.5 9t43 24t30 34.5t11.5 40.5q0 34 -26.5 58.5t-68.5 24.5q-26 0 -50 -9t-43 -24t-30.5 -35t-11.5 -41q0 -35 26.5 -58.5t68.5 -23.5z" />
<glyph horiz-adv-x="441" d="M227 326q-38 0 -65.5 15t-45.5 38.5t-26.5 53t-8.5 59.5q0 41 18 83t49.5 76.5t73.5 56.5t90 22q38 0 65 -15t44.5 -39t26 -53.5t8.5 -58.5q0 -41 -17.5 -83.5t-48.5 -77t-73 -56t-90 -21.5zM128 497q0 -23 6.5 -46t20 -41t33.5 -29t48 -11q40 0 72 18.5t55 46.5t35.5 61 t12.5 62q0 24 -6.5 47t-20 41t-34 29t-47.5 11q-40 0 -72 -18.5t-55 -47t-35.5 -61.5t-12.5 -62z" />
<glyph horiz-adv-x="371" d="M248 331l22 103h-216l9 42l283 254h31l-54 -253h56l-10 -43h-55l-21 -103h-45zM111 477h170l40 192z" />
<glyph horiz-adv-x="393" d="M397 481q0 -32 -16 -61t-42 -51t-61 -34.5t-72 -12.5q-59 0 -93 35t-34 97q0 58 16 108t45 87.5t69.5 59t89.5 21.5q43 0 74 -18.5t42 -52.5l-34 -29q-7 26 -32 42t-60 16q-54 0 -96 -41.5t-59 -117.5q20 30 58 47.5t76 17.5q58 0 93.5 -32.5t35.5 -80.5zM217 363 q26 0 50.5 9t43.5 24t30.5 35t11.5 42q0 35 -27 58.5t-69 23.5q-26 0 -50.5 -9t-43.5 -24t-30.5 -34.5t-11.5 -40.5q0 -35 27 -59.5t69 -24.5z" />
<glyph horiz-adv-x="383" d="M377 458q0 -29 -15.5 -53t-40.5 -41.5t-58 -27.5t-67 -10q-30 0 -54 8t-41 22t-26 32.5t-9 39.5q0 23 10 41.5t26 33t36 25t40 17.5q-23 9 -40 27t-17 44t15 47t38.5 36t52.5 23t56 8q23 0 44 -6t37.5 -17.5t26.5 -27.5t10 -36q0 -37 -27 -61.5t-65 -36.5q30 -11 49 -33 t19 -54zM333 457q0 16 -8 28.5t-21.5 21.5t-30 13.5t-34.5 4.5q-23 0 -45.5 -6.5t-40.5 -18t-29.5 -28t-11.5 -35.5q0 -16 8.5 -28.5t22 -21t30.5 -13t35 -4.5q21 0 43.5 6.5t40.5 17.5t29.5 27t11.5 36zM166 617q0 -26 25.5 -40.5t55.5 -14.5q18 0 37 5t35 14t26.5 22 t10.5 30q0 26 -25 40t-57 14q-20 0 -39.5 -5t-34.5 -14t-24.5 -22t-9.5 -29z" />
<glyph horiz-adv-x="393" d="M92 571q0 32 16 61t42 50.5t60.5 34.5t71.5 13q59 0 93.5 -35t34.5 -97q0 -58 -16 -108t-45 -87.5t-69.5 -59t-89.5 -21.5q-43 0 -74 19t-42 53l34 28q7 -26 32 -42t60 -16q54 0 95.5 41.5t58.5 117.5q-10 -15 -25 -27t-33 -20.5t-37.5 -13.5t-38.5 -5q-29 0 -52.5 9 t-40 24t-26 36t-9.5 45zM272 689q-26 0 -50.5 -9t-43.5 -24t-30.5 -35t-11.5 -42q0 -34 27 -58t69 -24q25 0 49.5 9t44 24t31 34.5t11.5 40.5q0 35 -27 59.5t-69 24.5z" />
</font>
</defs>
</svg>
